<svg id="Ebene_1" data-name="Ebene 1" xmlns="http://www.w3.org/2000/svg" viewBox="0 0 64 64"><defs><style>.cls-1{fill:#fff;}</style></defs><title>Rochelt_Icons_Pfeil_rechts</title><polygon class="cls-1" points="9.51 55.27 41.27 31.92 9.31 8.76 14.09 2.17 55.09 31.88 14.34 61.84 9.51 55.27"/><path d="M14.38,4,52.86,31.88,14.62,60l-3.27-4.45L43.49,31.92,11.14,8.47,14.38,4M13.8.33,12.26,2.46,9,6.93,7.47,9.05,9.6,10.59,39,31.93,9.79,53.44,7.67,55l1.56,2.12,3.27,4.45,1.56,2.11,2.11-1.55L54.41,34l2.9-2.13L54.4,29.76,15.92,1.87,13.8.33Z"/></svg>