<svg id="Ebene_1" data-name="Ebene 1" xmlns="http://www.w3.org/2000/svg" viewBox="0 0 64 64"><defs><style>.cls-1{fill:#fff;}</style></defs><title>Rochelt_Icons_Pfeil_links</title><polygon class="cls-1" points="8.91 32.12 49.66 2.17 54.49 8.73 22.73 32.08 54.69 55.24 49.91 61.83 8.91 32.12"/><path d="M49.38,4l3.27,4.45L20.51,32.08,52.86,55.53,49.62,60,11.14,32.12,49.38,4M49.94.33,47.83,1.89,9.59,30l-2.9,2.13L9.6,34.24,48.08,62.13l2.13,1.54,1.54-2.12L55,57.07l1.54-2.13L54.4,53.41,25,32.07,54.21,10.56,56.33,9,54.77,6.89,51.5,2.44,49.94.33Z"/></svg>