<?xml version="1.0" encoding="UTF-8"?>
<svg width="62px" height="64px" viewBox="0 0 62 64" version="1.1" xmlns="http://www.w3.org/2000/svg" xmlns:xlink="http://www.w3.org/1999/xlink">
    <!-- Generator: Sketch 46.1 (44463) - http://www.bohemiancoding.com/sketch -->
    <title>divider</title>
    <desc>Created with Sketch.</desc>
    <defs></defs>
    <g id="Page-1" stroke="none" stroke-width="1" fill="none" fill-rule="evenodd">
        <g id="divider" fill-rule="nonzero" fill="#000000">
            <g id="Group" transform="translate(27.000000, 9.000000)">
                <path d="M2.79525451e-15,25.5 C0,23.4881056 1.6309627,21.8571429 3.64285714,21.8571429 L3.64285714,21.8571429 C5.65475159,21.8571429 7.28571429,23.4881056 7.28571429,25.5 L7.28571429,25.5 C7.28571429,27.5118944 5.65475159,29.1428571 3.64285714,29.1428571 L3.64285714,29.1428571 C1.6309627,29.1428571 0,27.5118944 0,25.5 L2.79525451e-15,25.5 Z" id="Shape"></path>
                <path d="M2.79525451e-15,3.64285714 C0,1.6309627 1.6309627,-8.73517036e-17 3.64285714,0 L3.64285714,0 C5.65475159,1.31027555e-16 7.28571429,1.6309627 7.28571429,3.64285714 L7.28571429,3.64285714 C7.28571429,4.60900293 6.90191437,5.5355779 6.21874613,6.21874613 C5.5355779,6.90191437 4.60900293,7.28571429 3.64285714,7.28571429 L3.64285714,7.28571429 C1.6309627,7.28571429 0,5.65475159 0,3.64285714 L2.79525451e-15,3.64285714 Z" id="Shape"></path>
                <path d="M2.79525451e-15,47.3571429 C0,45.3452484 1.6309627,43.7142857 3.64285714,43.7142857 L3.64285714,43.7142857 C5.65475159,43.7142857 7.28571429,45.3452484 7.28571429,47.3571429 L7.28571429,47.3571429 C7.28571429,49.3690373 5.65475159,51 3.64285714,51 L3.64285714,51 C1.6309627,51 0,49.3690373 0,47.3571429 L2.79525451e-15,47.3571429 Z" id="Shape"></path>
            </g>
        </g>
    </g>
</svg>