<?xml version="1.0" encoding="UTF-8"?>
<svg width="25px" height="42px" viewBox="0 0 25 42" version="1.1" xmlns="http://www.w3.org/2000/svg" xmlns:xlink="http://www.w3.org/1999/xlink">
    <!-- Generator: Sketch 42 (36781) - http://www.bohemiancoding.com/sketch -->
    <title>logo</title>
    <desc>Created with Sketch.</desc>
    <defs></defs>
    <g id="Page-1" stroke="none" stroke-width="1" fill="none" fill-rule="evenodd">
        <g id="Artboard" fill="#000000">
            <g id="logo">
                <path d="M21.9917,31.049 C21.8167,31.361 21.6357,31.683 21.4177,31.978 C20.6487,33.013 19.6657,34.011 18.3237,35.116 C18.2417,35.183 18.1597,35.251 18.0777,35.318 C17.3437,35.92 16.5857,36.542 15.9447,37.258 C15.5527,37.695 15.3747,38.107 15.3847,38.557 L15.3857,38.584 C15.3947,39.005 15.4027,39.403 15.5897,39.764 C15.7247,40.023 15.6517,40.196 15.5667,40.295 C15.4857,40.389 15.3927,40.409 15.3277,40.409 C15.2537,40.409 15.1897,40.383 15.1387,40.362 C15.1187,40.354 15.1007,40.347 15.0867,40.343 C15.0107,40.322 14.9347,40.303 14.8587,40.283 C14.7447,40.253 14.6267,40.223 14.5097,40.189 C13.7657,39.971 13.0117,39.86 12.2667,39.86 C11.2427,39.86 10.1977,40.07 9.1607,40.483 C8.8737,40.597 8.5957,40.655 8.3347,40.655 C7.9797,40.655 7.6507,40.549 7.3557,40.339 C7.0747,40.14 6.7807,39.916 6.5257,39.633 C5.8127,38.84 5.4457,37.809 5.4017,36.483 C5.3387,34.537 5.7397,32.577 6.5947,30.659 C7.2377,29.217 8.1167,27.796 9.4477,26.052 C9.5497,25.918 9.6477,25.774 9.7427,25.636 C9.8677,25.453 9.9967,25.265 10.1417,25.087 C10.7147,24.384 11.3307,23.701 11.9267,23.041 C12.5947,22.303 13.2847,21.539 13.9117,20.747 C15.2727,19.028 16.3647,17.391 17.2487,15.743 C17.6097,15.069 17.8367,14.389 17.9277,13.716 C17.5847,15.031 16.8977,16.275 15.8367,17.508 C15.1837,18.267 14.4547,18.97 13.7507,19.65 C13.2347,20.148 12.7017,20.663 12.2047,21.193 C10.3897,23.129 8.3337,25.323 6.6797,27.726 C6.1567,28.485 5.7847,29.169 5.5077,29.878 C4.8937,31.453 4.7347,33.051 4.6947,33.865 C4.6787,35.338 4.8147,36.445 5.1497,37.564 C5.4917,38.705 5.9667,39.834 6.5607,40.919 C6.6217,41.03 6.6967,41.077 6.8117,41.077 C6.8257,41.077 6.8407,41.076 6.8567,41.075 C6.8897,41.071 6.9217,41.067 6.9547,41.063 C7.0337,41.054 7.1147,41.044 7.1987,41.044 C7.5537,41.045 7.9047,41.045 8.2567,41.045 L8.6207,41.045 L8.9837,41.045 C10.1277,41.045 11.2497,41.047 12.3907,41.066 C12.5367,41.069 12.6877,41.07 12.8517,41.07 C13.2167,41.07 13.5877,41.064 13.9467,41.058 C14.3067,41.052 14.6797,41.046 15.0467,41.046 C15.6467,41.046 16.1397,41.062 16.5957,41.099 C16.6057,41.1 16.6157,41.1 16.6247,41.1 C16.7347,41.1 16.8057,41.048 16.9187,40.886 C17.2767,40.373 17.5767,39.838 17.8237,39.382 C18.1357,38.805 18.4607,38.223 18.7737,37.659 C19.3297,36.662 19.9037,35.631 20.4287,34.599 C20.9107,33.651 21.3517,32.66 21.7777,31.701 C21.9577,31.298 22.1427,30.882 22.3297,30.472 C22.3047,30.51 22.2807,30.548 22.2577,30.586 C22.1667,30.738 22.0777,30.896 21.9917,31.049" id="Fill-234"></path>
                <path d="M22.8157,15.8167 C22.8137,17.1637 22.3227,18.3397 21.8437,19.3127 C21.1687,20.6837 20.2887,21.9547 19.5167,23.0387 C18.5927,24.3377 17.5447,25.5597 16.5317,26.7407 L16.3197,26.9877 C16.1887,27.1407 16.0567,27.2937 15.9257,27.4467 C14.9187,28.6187 13.8777,29.8297 12.9717,31.1097 C12.0307,32.4397 10.9937,34.0507 10.4357,35.9167 C10.4097,36.0027 10.3837,36.0887 10.3577,36.1737 C10.1977,36.6997 10.0317,37.2437 9.9877,37.7957 C9.9837,37.8377 9.9777,37.8817 9.9717,37.9237 C9.9617,37.9867 9.9427,38.1167 9.9617,38.1487 L9.9617,38.1487 C9.9627,38.1487 9.9687,38.1517 9.9817,38.1537 C9.9897,38.1547 9.9967,38.1557 10.0027,38.1557 L10.0107,38.1557 C10.0397,38.1257 10.0547,37.9867 10.0607,37.9267 C10.0647,37.8937 10.0677,37.8617 10.0717,37.8337 C10.1587,37.2367 10.3507,36.6367 10.6767,35.9447 C11.1037,35.0367 11.6527,34.2157 12.1337,33.5327 C13.1417,32.1007 14.2107,30.7787 15.3117,29.6037 C15.6287,29.2637 15.9547,28.9217 16.2687,28.5897 C17.1187,27.6957 17.9967,26.7697 18.8117,25.8187 C20.2407,24.1507 21.2827,22.7257 22.0907,21.3337 C22.7417,20.2117 23.1487,19.2587 23.3717,18.3367 C23.6017,17.3887 23.5877,16.4677 23.3307,15.5987 C23.0877,14.7737 22.6177,13.9717 21.9337,13.2137 C21.9157,13.1937 21.8967,13.1707 21.8767,13.1467 C21.8457,13.1087 21.7857,13.0377 21.7457,13.0087 C21.7707,13.0517 21.8397,13.1217 21.8757,13.1577 C21.8967,13.1787 21.9167,13.1987 21.9347,13.2177 C22.5527,13.8837 22.8407,14.7337 22.8157,15.8167" id="Fill-236"></path>
                <path d="M19.1669,18.017 C18.6969,18.926 18.0889,19.814 17.2539,20.81 C16.3379,21.903 15.4719,22.852 14.6059,23.713 C13.3399,24.972 12.1489,26.409 11.0649,27.983 C9.8459,29.754 8.9809,31.481 8.4189,33.263 C8.0069,34.571 7.7359,36.029 7.5669,37.85 C7.5719,37.892 7.5709,37.935 7.5699,37.976 C7.5689,38.006 7.5679,38.057 7.5729,38.086 C7.5759,38.055 7.5739,38.01 7.5729,37.979 C7.5709,37.93 7.5689,37.88 7.5749,37.831 C7.6629,37.112 7.8389,36.413 8.0979,35.755 C8.6179,34.438 9.2709,33.066 10.1529,31.437 C10.8559,30.141 11.7059,28.968 12.5189,27.894 C13.1259,27.093 13.8019,26.332 14.4569,25.597 C14.9009,25.098 15.3599,24.582 15.7909,24.059 C15.8649,23.97 15.9389,23.881 16.0119,23.792 C16.9979,22.602 18.0169,21.371 18.6859,19.938 C19.0179,19.227 19.3939,18.421 19.6069,17.587 C19.8519,16.634 20.0009,15.854 20.0769,15.132 C20.0819,15.092 20.0849,15.053 20.0879,15.015 C20.0319,15.209 19.9949,15.408 19.9579,15.611 C19.7979,16.51 19.5389,17.297 19.1669,18.017" id="Fill-238"></path>
                <path d="M6.9656,22.0987 C7.4226,21.6027 7.9326,21.1517 8.4256,20.7147 C8.6946,20.4757 8.9726,20.2297 9.2376,19.9797 C9.6136,19.6257 9.9906,19.2577 10.3556,18.9027 C10.8806,18.3917 11.4246,17.8617 11.9766,17.3597 C13.6076,15.8757 14.7786,14.3747 15.5566,12.7697 C15.6726,12.5297 15.7786,12.2787 15.8826,12.0217 C15.8056,12.1267 15.7526,12.2507 15.6966,12.3817 C15.6476,12.4957 15.5976,12.6127 15.5286,12.7257 C14.7816,13.9387 13.7356,14.8827 12.8116,15.6467 C12.4146,15.9737 12.0096,16.3037 11.6186,16.6237 C10.5466,17.4977 9.4386,18.4007 8.3936,19.3417 C6.7396,20.8297 5.4316,22.3867 4.3946,24.0997 C3.7866,25.1027 3.3376,26.1487 3.0596,27.2077 C2.7846,28.2527 2.5586,29.2147 2.5776,30.3907 L2.5776,30.4017 L2.5766,30.4127 C2.5106,30.9977 2.6166,31.6607 2.7286,32.3617 C2.7716,32.6267 2.8146,32.9017 2.8496,33.1747 C2.8836,33.4407 2.9716,33.7007 3.0656,33.9757 C3.0706,33.9917 3.0766,34.0077 3.0816,34.0237 C3.0806,34.0107 3.0786,33.9987 3.0766,33.9857 C3.0506,33.7947 3.0246,33.5967 2.9886,33.4057 C2.7856,32.2957 2.7476,31.3157 2.8726,30.4087 C3.0486,29.1347 3.3866,27.8947 3.9066,26.6177 C4.6836,24.7107 5.9496,23.2007 6.9656,22.0987" id="Fill-240"></path>
                <path d="M24.4108,19.813 C24.3978,19.813 24.3928,19.815 24.3928,19.815 C24.3728,19.831 24.3548,19.924 24.3458,19.968 C24.3288,20.058 24.3158,20.158 24.3058,20.274 C24.2268,21.288 23.9948,22.258 23.6188,23.156 C23.1988,24.158 22.6168,25.151 21.8398,26.192 C20.9728,27.356 19.9498,28.409 18.9598,29.428 C18.8458,29.546 18.7318,29.663 18.6188,29.781 C18.2958,30.114 17.9548,30.439 17.6248,30.753 C17.2208,31.138 16.8028,31.536 16.4198,31.949 C15.4648,32.98 14.7228,33.851 14.0848,34.689 C13.2928,35.73 12.7718,36.648 12.4438,37.576 L12.4358,37.6 C12.4208,37.642 12.3908,37.726 12.3928,37.76 C12.3938,37.761 12.3958,37.762 12.3968,37.762 C12.4208,37.736 12.4538,37.667 12.4708,37.631 L12.4838,37.604 C13.0408,36.457 13.9548,35.602 14.8378,34.775 C14.9048,34.712 14.9718,34.65 15.0388,34.587 C15.6938,33.971 16.3758,33.365 17.0358,32.779 C17.5698,32.304 18.1228,31.812 18.6568,31.32 C20.0868,30.001 21.2118,28.719 22.0968,27.401 C22.8898,26.22 23.4578,25.118 23.8318,24.033 C24.2348,22.866 24.3498,21.64 24.4618,20.455 C24.4688,20.371 24.4768,20.288 24.4848,20.205 C24.4848,20.162 24.4858,20.125 24.4858,20.094 C24.4868,20.038 24.4878,20.002 24.4848,19.97 C24.4688,19.816 24.4468,19.815 24.4178,19.813 L24.4108,19.813 L24.4108,19.643 L24.4108,19.813 Z" id="Fill-242"></path>
                <path d="M5.4653,11.1792 C6.4323,10.5842 7.4233,10.0212 8.3493,9.5022 C9.0563,9.1062 9.6243,8.6612 10.0843,8.1412 C10.4543,7.7242 10.8243,7.2642 11.0263,6.7222 C11.3613,5.8232 11.4623,4.9812 11.3333,4.1472 L11.3313,4.1342 L11.3313,4.1212 C11.3313,4.0322 11.3303,3.9392 11.3303,3.8422 C11.3283,3.6162 11.3273,3.3822 11.3333,3.1442 C11.3473,2.5732 11.5153,2.1272 11.8333,1.8202 C12.1503,1.5132 12.5993,1.3582 13.1703,1.3582 L13.2303,1.3582 C13.4073,1.3612 13.5853,1.3762 13.7563,1.3902 C13.9533,1.4072 14.1403,1.4222 14.3283,1.4222 C14.4353,1.4222 14.5323,1.4172 14.6253,1.4072 C14.7723,1.3902 14.8943,1.3342 14.9523,1.2562 C14.9783,1.2212 14.9873,1.1872 14.9803,1.1512 C14.9563,1.0242 14.9063,0.9672 14.6743,0.9672 C14.6483,0.9672 14.6223,0.9682 14.5953,0.9692 C14.4623,0.9742 10.6293,0.9602 10.4643,0.9562 L10.4213,0.9562 C10.3493,0.9562 10.2903,0.9612 10.2403,0.9712 C10.0643,1.0072 10.0613,1.0582 10.0583,1.0982 C10.0523,1.1692 10.0663,1.2382 10.1983,1.2582 C10.4563,1.2972 10.7723,1.4492 10.8123,1.9582 C10.8143,1.9822 10.8163,2.0072 10.8183,2.0312 C10.8313,2.1872 10.8453,2.3482 10.8293,2.5122 C10.6813,3.9852 10.3163,5.1602 9.6803,6.2092 C9.1533,7.0792 8.6513,7.7582 8.0993,8.3482 C7.1633,9.3482 6.1173,10.2572 5.1053,11.1362 C4.6233,11.5562 4.1233,11.9902 3.6443,12.4272 L3.5753,12.4902 C2.9223,13.0852 2.2543,13.6932 1.6873,14.3852 C1.7183,14.3472 1.7503,14.3102 1.7833,14.2732 C2.8783,13.0502 4.1173,12.0092 5.4653,11.1792" id="Fill-244"></path>
                <path d="M8.1854,16.2576 C9.6254,15.0276 11.2944,13.5366 12.7524,11.7986 C12.7664,11.7816 12.7804,11.7646 12.7954,11.7466 C12.1204,12.4926 11.3584,13.1436 10.5304,13.6826 C10.2154,13.8876 9.8904,14.0846 9.5764,14.2746 C9.2714,14.4586 8.9564,14.6486 8.6534,14.8456 C7.7154,15.4536 6.8454,16.1766 6.1174,16.8026 C6.0404,16.8686 5.9624,16.9356 5.8854,17.0016 C5.2494,17.5456 4.5924,18.1086 4.0564,18.7806 C3.0654,20.0236 2.3794,21.2236 1.9584,22.4496 C1.4854,23.8306 1.3274,25.3116 1.1744,26.7436 C1.1514,26.9666 1.1274,27.1896 1.1024,27.4126 C1.1064,27.4746 1.1094,27.5366 1.1124,27.5986 C1.1204,27.7556 1.1284,27.9176 1.1444,28.0746 C1.1464,28.0916 1.1484,28.1096 1.1494,28.1276 C1.1504,28.1356 1.1504,28.1436 1.1514,28.1526 C1.1514,28.1456 1.1524,28.1386 1.1524,28.1326 C1.1534,28.1086 1.1534,28.0856 1.1554,28.0636 C1.3414,25.5186 1.7954,24.2736 2.2164,23.3926 C2.7524,22.2676 3.2784,21.3786 3.8704,20.5956 C5.1594,18.8926 6.7734,17.4636 8.1854,16.2576" id="Fill-246"></path>
                <path d="M7.1498,13.2534 C8.4048,12.4494 9.3908,11.7204 10.2518,10.9604 C10.5088,10.7334 10.7258,10.5264 10.9048,10.3014 C10.6128,10.5714 10.2678,10.8364 9.8418,11.1204 C9.3228,11.4664 8.7628,11.7464 8.2208,12.0174 C7.8608,12.1974 7.4878,12.3844 7.1348,12.5864 C5.5938,13.4694 3.8258,14.5914 2.3898,16.2264 C1.5828,17.1454 0.9778,18.1894 0.5908,19.3294 C0.2318,20.3884 0.1358,21.5204 0.0428,22.6144 C0.0318,22.7454 0.0208,22.8764 0.0088,23.0074 C-0.0072,23.3204 -0.0102,23.6524 0.0688,23.9684 C0.0788,24.0094 0.0858,24.0524 0.0918,24.0944 C0.0988,24.1364 0.1098,24.2094 0.1238,24.2434 C0.1388,24.2024 0.1368,24.1014 0.1368,24.0504 C0.1358,24.0234 0.1358,23.9974 0.1368,23.9724 C0.1578,22.7654 0.3448,21.6624 0.7088,20.6034 C1.1138,19.4274 1.7308,18.3134 2.5448,17.2924 C3.7368,15.7964 5.2438,14.4744 7.1498,13.2534" id="Fill-248"></path>
                <path d="M14.2193,2.8896 L14.2193,2.7536 C14.2193,2.6456 14.2183,2.5386 14.2193,2.4316 C14.2203,2.3206 14.1803,2.2946 14.1383,2.2786 C14.1173,2.2706 14.0993,2.2676 14.0813,2.2676 C14.0403,2.2676 13.9973,2.2876 13.9493,2.3306 C13.8753,2.3966 13.8543,2.4906 13.8273,2.6366 L13.8193,2.6786 C13.7453,3.0696 13.8193,3.4506 13.8973,3.8546 C13.9093,3.9156 13.9213,3.9776 13.9323,4.0396 C14.1433,5.1796 14.6293,6.2266 15.3773,7.1526 C16.3703,8.3816 17.5893,9.5216 19.3203,10.8366 C17.7353,9.4916 16.4713,8.0486 15.4583,6.4276 C14.8083,5.3886 14.1773,4.2606 14.2193,2.8896" id="Fill-250"></path>
            </g>
        </g>
    </g>
</svg>