<?xml version="1.0" encoding="UTF-8"?>
<svg width="413px" height="64px" viewBox="0 0 413 64" version="1.1" xmlns="http://www.w3.org/2000/svg" xmlns:xlink="http://www.w3.org/1999/xlink">
    <!-- Generator: Sketch 44 (41411) - http://www.bohemiancoding.com/sketch -->
    <title>name</title>
    <desc>Created with Sketch.</desc>
    <defs></defs>
    <g id="Page-1" stroke="none" stroke-width="1" fill="none" fill-rule="evenodd">
        <g id="name" fill="#000000">
            <path d="M178.622024,1.66776471 C178.760376,7.07482353 178.880847,12.4818824 179.056847,17.8870588 C179.085082,18.7425882 179.838965,19.8315294 178.471435,20.1487059 C177.008847,20.4875294 176.825318,19.1614118 176.532612,18.1957647 C176.273788,17.3383529 176.226729,16.4178824 175.9952,15.5501176 C174.007435,8.10541176 170.185318,5.44094118 162.016847,4.24376471 C155.820141,3.33552941 148.679435,7.08611765 146.272847,12.8018824 C140.600376,26.2710588 140.999435,39.3788235 149.565082,51.7232941 C155.545318,60.3416471 172.071435,59.9454118 176.5392,51.0738824 C177.231906,49.6978824 178.004612,48.5675294 179.408847,49.4456471 C180.639906,50.2155294 179.729788,51.4654118 179.140612,52.496 C176.442259,57.2188235 172.4912,60.6089412 167.284612,61.8456471 C157.054965,64.2738824 147.043671,63.2649412 138.117553,57.4249412 C125.989553,49.4898824 122.457318,30.4611765 129.639435,17.2385882 C137.440847,2.87623529 155.006024,-2.31152941 169.276141,2.12894118 C171.182024,2.72188235 174.066729,4.99388235 175.514259,1.08611765 C176.549553,1.28 177.585788,1.47388235 178.622024,1.66776471 M136.722729,14.1054118 C125.937788,26.7924706 128.528847,50.0527059 141.417318,55.6310588 C135.589553,49.8861176 133.528376,43.0654118 132.771671,35.5284706 C132.006494,27.9181176 133.880376,20.9458824 136.722729,14.1054118" id="Fill-6"></path>
            <path d="M364.3056,48.2848 C364.357365,48.5953882 364.522071,48.9888 364.467482,49.3483294 C363.867012,53.3426824 363.209129,57.3285647 362.617129,61.3238588 C362.347953,63.1431529 360.899482,63.6325647 359.757835,63.0019765 C355.543247,60.6763294 351.058541,62.0156235 346.760188,61.9139765 C337.0576,61.6833882 327.339953,62.1266824 317.627953,62.1398588 C316.573835,62.1417412 314.5936,63.0989176 314.365835,61.1469176 C314.137129,59.1864471 315.764424,58.9822118 317.374776,59.1582118 C319.220424,59.3605647 319.651482,58.3045647 320.089129,56.6368 C321.868894,49.8518588 321.599718,42.9699765 321.495247,36.0805647 C321.354071,26.7384471 321.796424,17.3699765 320.157835,8.09750588 C319.846306,6.33468235 319.547953,4.64150588 317.1376,5.13185882 C315.785129,5.40668235 315.120659,4.87021176 315.070776,3.5808 C315.001129,1.76715294 316.463718,1.91868235 317.544188,1.93562353 C324.517365,2.04009412 331.487718,2.27538824 338.460894,2.35727059 C340.9136,2.38550588 343.371012,1.99303529 345.823718,2.01938824 C346.830776,2.02974118 348.093835,2.09938824 348.052424,3.91397647 C348.006306,5.88574118 346.554071,4.93985882 345.787953,5.19303529 C344.966306,5.46503529 343.980894,5.20338824 343.0736,5.26644706 C339.835953,5.49232941 337.932894,6.61703529 337.963953,10.4975059 C338.083482,25.3568 337.915953,40.2198588 337.815247,55.0810353 C337.797365,57.7916235 338.703718,58.9718588 341.688188,58.6829176 C344.883482,58.3732706 348.158776,58.4353882 351.357835,58.7535059 C355.404894,59.1553882 357.642071,57.0471529 359.301365,53.8490353 C360.197365,52.1229176 360.911718,50.2989176 361.856659,48.6019765 C362.381835,47.6579765 363.207247,46.8466824 364.3056,48.2848 M324.634071,7.28715294 C325.836894,24.7017412 325.435012,41.4339765 324.245365,58.2603294 C326.999247,57.5742118 327.279718,55.8104471 327.289129,53.6504471 C327.347482,40.6349176 327.528188,27.6193882 327.588424,14.6038588 C327.599718,12.1351529 327.358776,9.62785882 324.634071,7.28715294" id="Fill-8"></path>
            <path d="M358.978071,14.4753882 C358.723012,9.97185882 359.779012,6.21656471 360.434071,2.47538824 C360.693835,0.994917647 362.439718,-0.650258824 364.113129,1.61891765 C364.963012,2.77091765 365.954071,2.31632941 366.851012,2.33797647 C379.9776,2.65232941 393.108894,3.23303529 406.227953,2.08762353 C406.749365,2.04244706 407.304659,2.20527059 407.8016,2.08668235 C412.403953,0.990211765 412.375718,0.977976471 412.164894,6.00197647 C412.038776,9.02691765 411.995482,12.0556235 411.943718,15.0824471 C411.926776,16.1083294 411.613365,17.0720941 410.530071,17.0692706 C409.392188,17.0655059 409.866541,15.9229176 409.694306,15.2358588 C407.989835,8.41797647 406.423718,5.01091765 397.034541,5.75068235 C395.050541,5.90691765 394.183718,6.48291765 394.171482,8.51303529 C394.079247,23.6170353 393.886306,38.7210353 393.852424,53.8250353 C393.845835,56.9713882 395.486306,58.9779765 398.947012,58.9742118 C399.991718,58.9732706 401.080659,58.9610353 402.067012,59.2424471 C402.830306,59.4608 403.186071,60.2419765 403.126776,61.1483294 C403.051482,62.2956235 402.259012,62.3662118 401.466541,62.2730353 C391.568188,61.1078588 381.667012,61.2763294 371.763012,62.1723294 C370.675953,62.2711529 369.952188,61.7262118 369.776188,60.7088 C369.573835,59.5483294 370.465129,58.8273882 371.384659,59.0043294 C376.758776,60.0339765 376.947012,56.4848 377.325365,52.7266824 C378.826541,37.8156235 378.4576,22.8772706 378.237365,7.93421176 C378.202541,5.58785882 377.276424,4.92997647 375.235953,5.41468235 C370.914071,6.44150588 365.942776,5.45703529 362.645835,9.70456471 C361.582306,11.0749176 361.343247,13.0316235 358.978071,14.4753882 M382.081129,5.85138824 C381.745129,22.8236235 381.415718,39.4457412 381.080659,56.3662118 C383.336659,55.0899765 383.746071,53.1944471 383.789365,51.1003294 C384.084894,36.9478588 384.538541,22.7963294 384.142306,8.63727059 C384.115953,7.69609412 384.177129,6.77562353 382.081129,5.85138824" id="Fill-10"></path>
            <path d="M121.213553,34.2356706 C122.698729,20.2130824 117.453553,8.93025882 104.587671,2.79284706 C94.4192,-2.05797647 83.9109647,-0.0862117647 74.4107294,5.68602353 C60.9490824,13.8648471 56.8897882,35.1043765 64.2319059,47.7961412 C65.1335529,49.3547294 69.0742588,54.4474353 69.8253176,55.1448471 C74.3410824,59.3387294 79.9156706,61.3594353 85.8055529,62.6959059 C92.2610824,64.1613176 98.5970824,63.6794353 104.305318,60.3740235 C114.293082,54.5914353 120.006965,45.6286118 121.213553,34.2356706 M77.8959059,7.20602353 C71.9420235,14.0926118 68.3344941,21.8761412 67.6794353,31.0516706 C67.0140235,40.3599059 68.6544941,48.8182588 75.0441412,55.9288471 C58.4370824,45.4187294 63.1890824,15.6352 77.8959059,7.20602353 M97.3688471,56.3090824 C94.8944941,59.8573176 92.8747294,60.6799059 88.9180235,58.9829647 C86.1312,57.7895529 84.2949647,55.6427294 82.8719059,53.1580235 C75.6747294,40.6008471 75.4657882,27.5919059 80.5293176,14.2704941 C81.0319059,13.0582588 81.3613176,11.7340235 82.0634353,10.6526118 C87.5599059,2.18014118 94.4841412,2.47849412 99.0912,11.4610824 C103.541082,20.1368471 104.184847,29.4507294 102.6752,38.8719059 C101.713318,44.8719059 101.057318,51.0206118 97.3688471,56.3090824 M98.4935529,58.5406118 C112.753318,38.1829647 112.331671,17.2333176 97.4159059,5.03472941 C105.718024,7.59378824 111.326494,16.9679059 111.890259,28.5396706 C112.645082,44.0314353 106.638494,54.8709647 98.4935529,58.5406118" id="Fill-12"></path>
            <path d="M56.7317647,55.3876706 C53.3209412,53.2163765 51.432,49.8290824 49.5825882,46.3410824 C46.5849412,40.6855529 45.0075294,34.0032 38.0785882,30.5180235 C39.5242353,29.7773176 40.2056471,29.4224941 40.8917647,29.0770824 C47.5317647,25.7481412 50.6461176,20.5472 49.8188235,14.1650824 C49.0809412,8.47190588 44.3072941,4.16790588 37.2108235,2.79284706 C27.5374118,0.918023529 4.67058824,2.16696471 2.97364706,2.72696471 C2.07858824,3.02249412 0.372235294,2.32508235 0.250823529,4.18390588 C0.187764706,5.15143529 0.437176471,5.65967059 1.35388235,5.91190588 C3.52894118,6.51143529 4.12564706,8.36178824 4.76941176,10.2102588 C6.68564706,15.7142588 7.208,21.4243765 7,27.1730824 C6.68470588,35.8639059 6.94917647,44.6112 5.39341176,53.2060235 C4.94541176,55.6832 5.03388235,58.8737882 1.63905882,59.8234353 C0.647058824,60.1010824 -0.248,60.5999059 0.0625882353,61.6483765 C0.348705882,62.6130824 1.39811765,62.7476706 2.39388235,62.5537882 C5.88,61.8761412 9.416,61.8770824 12.9284706,62.0775529 C19.1430588,62.4314353 25.3783529,61.5326118 31.5910588,62.4728471 C32.4776471,62.6064941 34.2517647,62.9076706 34.1134118,60.9330824 C34.008,59.4366118 33.0329412,59.0121412 31.624,59.1552 C30.7345882,59.2464941 29.8122353,59.2173176 28.9237647,59.0996706 C22.52,58.2535529 22.5708235,58.2422588 22.6781176,51.6192 C22.7835294,45.1467294 22.6771765,38.6704941 22.7985882,32.1970824 C22.8145882,31.3914353 23.3962353,30.6319059 24.2009412,30.5763765 C26.0004706,30.4530824 27.6164706,31.7368471 28.4908235,33.7293176 C29.7030588,36.4907294 30.4701176,39.3453176 31.1298824,42.2874353 C32.8409412,49.9297882 34.232,57.9984941 43.2814118,60.7213176 C51.0705882,63.0639059 58.9943529,65.5843765 65.7134118,59.1947294 C66.3807059,58.5603765 66.6715294,57.5956706 66.3044706,56.7514353 C66.3044706,56.7514353 66.0503529,55.9203765 65.5355294,55.8733176 C62.9557647,55.6352 62.6009412,59.1241412 56.7317647,55.3876706 M12.6677647,52.3664941 C12.6207059,55.3123765 11.9487059,58.0333176 8.53411765,58.7279059 C11.0658824,41.2690824 11.7905882,23.8507294 8.76,6.59331765 C10.7007059,6.87096471 13.1383529,10.0954353 13.1138824,13.9457882 C13.0310588,26.7533176 12.872,39.5599059 12.6677647,52.3664941 M29.4,26.1942588 C27.7152941,27.5053176 25.6936471,27.4883765 23.7990588,26.9952 C21.6155294,26.4267294 22.9322353,24.6046118 22.8992941,23.3509647 C22.7807059,18.8257882 22.6875294,14.2940235 22.8117647,9.77072941 C22.8447059,8.57167059 22.1275294,6.75049412 23.7783529,6.15849412 C25.6409412,5.49025882 27.6258824,5.58155294 29.2663529,7.05072941 C34.3750588,11.6248471 35.2192941,18.8530824 31.4094118,24.0380235 C30.6385882,24.8794353 30.1049412,25.6464941 29.4,26.1942588 M35.8225882,23.7246118 C38.1557647,18.0295529 37.8809412,12.8248471 33.0244706,8.13214118 C40.1247059,10.4916706 41.3322353,17.5900235 35.8225882,23.7246118 M32.2395294,33.0686118 C34.9915294,34.4624941 34.8409412,37.1109647 35.6644706,39.1213176 C37.9082353,44.6027294 39.0225882,50.5443765 43.0395294,55.2832 C44.0305882,56.4530824 45.464,57.2286118 46.3402353,58.9801412 C35.2230588,53.6323765 35.3030588,42.7269647 32.2395294,33.0686118" id="Fill-14"></path>
            <path d="M249.061647,1.66908235 C240.031059,2.47472941 231.005176,1.91002353 221.975529,1.6672 C220.876235,1.63802353 219.117176,1.05825882 219.221647,3.35096471 C219.310118,5.29731765 220.690824,4.83708235 221.787294,4.78343529 C224.463059,4.65167059 225.440941,5.65872941 225.933176,8.52367059 C226.923294,14.2836706 225.738353,20.0427294 226.582588,25.7537882 C226.892235,27.8422588 225.798588,28.4634353 223.834353,28.4719059 C218.068706,28.4973176 212.299294,27.7801412 206.538353,28.4784941 C204.524235,28.7222588 204.463059,27.4413176 204.464,26.0417882 C204.466824,20.4003765 204.356706,14.7542588 204.521412,9.11755294 C204.606118,6.2272 205.836235,4.19331765 209.363765,4.53684706 C210.752941,4.67237647 213.077647,5.02437647 212.715294,2.52367059 C212.403765,0.375905882 210.431059,1.60131765 209.157647,1.54296471 C203.394824,1.27849412 187.814588,-0.117270588 183.739294,0.903905882 C183.121882,2.93872941 183.640471,4.56037647 185.568,4.43614118 C190.045176,4.1472 190.179765,7.17402353 190.257882,10.3024941 C190.576941,23.1316706 190.943059,35.9608471 191.142588,48.7919059 C191.170824,50.6243765 191.031529,52.4540235 190.800941,54.2723765 C190.446118,57.0780235 190.157176,60.9434353 185.702588,60.2319059 C184.445176,60.0314353 183.148235,59.9354353 183.290353,61.7406118 C183.425882,63.4657882 184.813176,62.7420235 185.741176,62.6968471 C193.702588,62.3090824 201.648941,61.3509647 209.643294,62.2949647 C210.567529,62.4041412 212.325647,62.9189647 212.357647,61.0639059 C212.387765,59.2982588 210.978824,59.1090824 209.536941,59.1909647 C206.495059,59.3622588 204.039529,58.0935529 204.362353,54.9180235 C205.016471,48.4775529 204.115765,42.0737882 204.450824,35.6493176 C204.575059,33.2700235 205.657412,33.0112 207.340235,33.2116706 C212.710588,33.8497882 218.078118,33.5881412 223.429647,33.1617882 C225.805176,32.9716706 226.287059,33.9109647 226.342588,36.0173176 C226.515765,42.5688471 225.692235,49.0610824 225.418353,55.5824941 C225.288471,58.6789647 223.790118,59.9617882 220.907294,59.7509647 C219.766588,59.6681412 219.013647,59.9636706 218.923294,61.0159059 C218.796235,62.4860235 219.917176,62.6460235 221.060706,62.5970824 C222.245647,62.5462588 223.430588,62.5010824 224.614588,62.4352 C231.296941,62.0634353 239.315765,61.9655529 246.016941,62.4295529 C247.705412,62.5462588 248.099765,61.6559059 248.683294,60.0662588 C248.683294,60.0662588 248.768941,59.7330824 248.561882,59.5570824 C247.950118,59.0366118 245.138824,59.5495529 244.407529,59.4827294 C241.757176,59.2361412 240.752941,57.7726118 240.590118,55.0337882 C240.166588,47.9382588 240.568471,40.8342588 240.670118,33.7679059 C240.759529,27.4799059 239.917176,21.1514353 240.828235,14.9123765 C241.224471,12.1923765 239.788235,9.2512 241.460706,6.83802353 C243.341176,4.12555294 246.529882,5.53637647 249.125647,5.0432 C250.336941,4.81355294 250.934588,4.06625882 250.790588,2.81637647 C250.671059,1.77731765 249.870118,1.59661176 249.061647,1.66908235 M195.884235,13.0912 C195.769412,26.0370824 195.594353,38.9820235 195.383529,51.9260235 C195.345882,54.2356706 195.245176,56.6177882 192.884706,58.1368471 C193.190588,50.0220235 193.751529,42.2159059 193.708235,34.4126118 C193.661176,25.7481412 193.031529,17.0883765 192.745412,8.42296471 C192.712471,7.42531765 191.831529,5.73967059 193.614118,5.49402353 C195.480471,5.23708235 194.585412,7.24743529 195.196235,8.10955294 C196.249412,9.59943529 195.899294,11.4224941 195.884235,13.0912 M231.840941,46.7514353 C231.873882,49.5081412 231.859765,52.2676706 231.973647,55.0224941 C232.051765,56.8841412 231.600941,58.3119059 229.12,59.2323765 C230.483765,41.5947294 229.967059,24.4850824 228.858353,7.25684706 C230.986353,7.71331765 231.415529,8.93308235 231.431529,10.5283765 C231.553882,22.6027294 231.699765,34.6770824 231.840941,46.7514353" id="Fill-16"></path>
            <path d="M299.077176,15.3449412 C299.824471,15.2837647 300.135059,14.7049412 300.296941,14.0065882 C300.795765,11.8447059 301.24,9.664 301.872471,7.54070588 C302.463529,5.55670588 304.381647,3.06447059 303.737882,1.81082353 C302.520941,-0.563764706 299.829176,1.616 297.755765,1.59905882 C286.932235,1.51058824 276.108706,1.44 265.285176,1.36 C262.974588,1.34211765 260.663059,1.27435294 258.353412,1.29976471 C257.432,1.31011765 256.408941,1.42776471 256.572706,2.77835294 C256.685647,3.71576471 257.172235,4.02917647 258.204706,3.87764706 C261.057412,3.45882353 261.736941,5.12282353 261.724706,7.60564706 C261.715294,9.53976471 262.129412,11.4729412 262.186824,13.4117647 C262.592471,27.2301176 263.409412,41.0475294 261.913882,54.8630588 C261.613647,57.6310588 260.334588,59.104 257.806588,59.6602353 C256.870118,59.8663529 255.930824,60.0611765 254.988706,60.2437647 C254.396706,60.3585882 253.990118,60.8988235 254.049412,61.5002353 C254.049412,61.5002353 254.014588,62.3802353 254.588706,62.7115294 C255.162824,63.0418824 258.793882,62.5628235 261.110118,62.3811765 C271.019765,61.6065882 280.941647,62.1995294 290.856,62.2842353 C294.760941,62.3171765 298.776,61.3967059 302.546353,63.5792941 C303.756706,64.2785882 305.106353,63.2781176 305.616471,61.8729412 C307.114824,57.7430588 308.392,53.5265882 311.258824,50.032 C311.842353,49.3204706 311.973176,48.176 310.875765,47.6875294 C310.108706,47.3468235 309.484706,47.9369412 308.926588,48.5976471 C302.142588,56.6334118 293.004706,58.4254118 283.090353,58.6701176 C279.010353,58.7708235 277.757647,56.9778824 277.845176,53.4983529 C278.002353,47.3091765 278.173647,41.1265882 277.895059,34.9336471 C277.852706,33.9905882 277.693647,32.5731765 279.384,32.1590588 C285.224941,30.7237647 289.095059,32.9628235 290.612235,38.8009412 C290.711059,39.1821176 290.770353,39.5736471 290.846588,39.9604706 C291.072471,41.1068235 291.716235,42.0997647 292.902118,41.9077647 C294.180235,41.7007059 294.094588,40.544 294.017412,39.4014118 C293.631529,33.7374118 293.520471,28.0743529 294.672471,22.4658824 C294.825882,21.7195294 295.093176,20.8696471 293.988235,20.6512941 C293.037647,20.464 292.130353,20.5487059 291.826353,21.7430588 C290.254588,27.9265882 285.500706,27.8352941 280.488,27.8127059 C278.347765,27.8023529 278.193412,27.0051765 278.195294,25.4277647 C278.2,21.6978824 278.287529,17.9614118 278.111529,14.2381176 C277.747294,6.55247059 278.298824,5.84847059 285.8,5.41458824 C294.397647,4.91764706 295.656,5.792 297.775529,13.776 C297.975059,14.5251765 297.975059,15.4343529 299.077176,15.3449412 M267.439529,9.77694118 C267.416,24.7049412 267.284235,39.6329412 267.117647,54.56 C267.102588,55.9962353 267.375529,57.7505882 264.68,58.8687059 C266.256471,40.7463529 265.590118,23.0475294 264.593412,5.09082353 C267.381176,6.04611765 267.442353,8.08752941 267.439529,9.77694118" id="Fill-18"></path>
        </g>
    </g>
</svg>