<?xml version="1.0" encoding="utf-8"?>
<!-- Generator: Adobe Illustrator 21.0.0, SVG Export Plug-In . SVG Version: 6.00 Build 0)  -->
<svg version="1.1" id="Ebene_1" xmlns="http://www.w3.org/2000/svg" xmlns:xlink="http://www.w3.org/1999/xlink" x="0px" y="0px"
	 viewBox="0 0 64 64" style="enable-background:new 0 0 64 64;" xml:space="preserve">
<title>Rochelt_Instagram</title>
<g>
	<g>
		<path d="M63.8,18.8c0-2.7-0.6-5.3-1.5-7.8c-0.8-2.1-2.1-4.1-3.7-5.7C57,3.7,55.1,2.5,53,1.7c-2.5-0.9-5.1-1.4-7.8-1.5
			C41.8,0,40.7,0,32,0s-9.8,0-13.2,0.2c-2.7,0-5.3,0.6-7.8,1.5C8.9,2.5,7,3.7,5.4,5.4C3.7,7,2.5,8.9,1.7,11
			c-0.9,2.5-1.4,5.1-1.5,7.8C0,22.2,0,23.3,0,32s0,9.8,0.2,13.2c0,2.7,0.6,5.3,1.5,7.8c0.8,2.1,2.1,4.1,3.7,5.7
			c1.6,1.6,3.5,2.9,5.6,3.7c2.5,0.9,5.1,1.4,7.8,1.5C22.2,64,23.3,64,32,64s9.8,0,13.2-0.2c2.7,0,5.3-0.6,7.8-1.5
			c4.3-1.7,7.7-5,9.3-9.3c0.9-2.5,1.4-5.1,1.5-7.8C64,41.8,64,40.7,64,32S64,22.2,63.8,18.8z M58,44.9c0,2-0.4,4-1.1,5.9
			c-1.1,2.8-3.3,5-6.1,6.1c-1.9,0.7-3.9,1-5.9,1.1c-3.4,0.2-4.4,0.2-12.9,0.2s-9.6,0-12.9-0.2c-2,0-4-0.4-5.9-1.1
			c-1.4-0.5-2.6-1.3-3.7-2.4c-1.1-1-1.9-2.3-2.4-3.7c-0.7-1.9-1-3.9-1.1-5.9C5.8,41.6,5.8,40.5,5.8,32s0-9.6,0.2-12.9
			c0-2,0.4-4,1.1-5.9c0.5-1.4,1.3-2.6,2.4-3.7c1-1.1,2.3-1.9,3.7-2.4C15,6.4,17,6,19.1,6c3.4-0.2,4.4-0.2,12.9-0.2v0
			c8.5,0,9.6,0,12.9,0.2c2,0,4,0.4,5.9,1.1c1.4,0.5,2.6,1.3,3.7,2.4c1.1,1,1.9,2.3,2.4,3.7c0.7,1.9,1,3.9,1.1,5.9
			c0.2,3.4,0.2,4.4,0.2,12.9S58.2,41.6,58,44.9z M32,15.6c-9.1,0-16.4,7.4-16.4,16.4S22.9,48.4,32,48.4S48.4,41.1,48.4,32
			S41.1,15.6,32,15.6z M32,42.7c-5.9,0-10.7-4.8-10.7-10.7S26.1,21.3,32,21.3S42.7,26.1,42.7,32S37.9,42.7,32,42.7z M49.1,11.1
			c-2.1,0-3.8,1.7-3.8,3.8c0,2.1,1.7,3.8,3.8,3.8s3.8-1.7,3.8-3.8C52.9,12.8,51.2,11.1,49.1,11.1z"/>
	</g>
</g>
</svg>
