<svg id="Ebene_1" data-name="Ebene 1" xmlns="http://www.w3.org/2000/svg" viewBox="0 0 1140 500"><title>wie_abbildung_gaerung_text</title><g id="toggle_4" data-name="toggle 4"><path id="Kreis_Zierstöpsel" data-name="Kreis Zierstöpsel" d="M505.35,304.68a8,8,0,1,0-8-8,8,8,0,0,0,8,8" style="fill:#fff;stroke:#666;stroke-miterlimit:10"/><polygon id="Plus_Zierstöpsel" data-name="Plus Zierstöpsel" points="505.85 296.18 505.85 291.98 504.85 291.98 504.85 296.18 500.65 296.18 500.65 297.18 504.85 297.18 504.85 301.48 505.85 301.48 505.85 297.18 510.15 297.18 510.15 296.18 505.85 296.18" style="fill:#666"/></g><g id="toggle_3" data-name="toggle 3"><path id="Kreis_Zierstöpsel-2" data-name="Kreis Zierstöpsel-2" d="M612.06,242.49a8,8,0,1,0-8-8,8,8,0,0,0,8,8" style="fill:#fff;stroke:#666;stroke-miterlimit:10"/><polygon id="Plus_Zierstöpsel-2" data-name="Plus Zierstöpsel-2" points="612.56 233.99 612.56 229.79 611.56 229.79 611.56 233.99 607.36 233.99 607.36 234.99 611.56 234.99 611.56 239.29 612.56 239.29 612.56 234.99 616.86 234.99 616.86 233.99 612.56 233.99" style="fill:#666"/></g><g id="toggle_2" data-name="toggle 2"><path id="Kreis_Zierstöpsel-3" data-name="Kreis Zierstöpsel-3" d="M483.38,143a8,8,0,1,0-8-8,8,8,0,0,0,8,8" style="fill:#fff;stroke:#666;stroke-miterlimit:10"/><polygon id="Plus_Zierstöpsel-3" data-name="Plus Zierstöpsel-3" points="483.88 134.5 483.88 130.3 482.88 130.3 482.88 134.5 478.68 134.5 478.68 135.5 482.88 135.5 482.88 139.8 483.88 139.8 483.88 135.5 488.18 135.5 488.18 134.5 483.88 134.5" style="fill:#666"/></g><g id="toggle_1" data-name="toggle 1"><path id="Kreis_Zierstöpsel-4" data-name="Kreis Zierstöpsel-4" d="M561.77,67.48a8,8,0,1,0-8-8,8,8,0,0,0,8,8" style="fill:#fff;stroke:#666;stroke-miterlimit:10"/><polygon id="Plus_Zierstöpsel-4" data-name="Plus Zierstöpsel-4" points="562.27 58.98 562.27 54.78 561.27 54.78 561.27 58.98 557.07 58.98 557.07 59.98 561.27 59.98 561.27 64.28 562.27 64.28 562.27 59.98 566.57 59.98 566.57 58.98 562.27 58.98" style="fill:#666"/></g></svg>