<svg id="Ebene_1" data-name="Ebene 1" xmlns="http://www.w3.org/2000/svg" viewBox="0 0 1140 850"><title>wie_abbildung_brennvorgang_Illustration</title><g id="Illustration"><g id="Illustration-2"><path id="Illustration_Inhalt_Herzstück" data-name="Illustration Inhalt Herzstück" d="M487.4,651.8v17.4a15.56,15.56,0,0,0,2.7,8.9h60.8a15.79,15.79,0,0,0,2.7-8.9V651.8Zm66.2-38.1H487.4v15.2l66.2.3Z" style="fill:#e0e0e0"/><path id="Illustration_Brennvorgang" data-name="Illustration Brennvorgang" d="M475,692.9a3.6,3.6,0,1,0-3.6-3.6h0A3.65,3.65,0,0,0,475,692.9Zm0-5.2a1.6,1.6,0,1,1-1.6,1.6h0A1.64,1.64,0,0,1,475,687.7Zm-94.2-61.3a48.28,48.28,0,0,1-28.4,9.1H326.5a1,1,0,0,0,0,2h25.9A50.67,50.67,0,0,0,382,628a1,1,0,0,0,.2-1.4h0A1.09,1.09,0,0,0,380.8,626.4Zm-54.3,2.1a1,1,0,0,0,0,2h25.8a1,1,0,1,0,0-2ZM282.9,474.9a1,1,0,0,0-.6,2,174.65,174.65,0,0,0,106.4,0,1,1,0,0,0-.6-2A173.31,173.31,0,0,1,282.9,474.9ZM362,528.4a27.2,27.2,0,1,0-27.2,27.2A27.2,27.2,0,0,0,362,528.4Zm-52.4,0a25.2,25.2,0,1,1,25.2,25.2A25.2,25.2,0,0,1,309.6,528.4Zm539.7,98a48.28,48.28,0,0,1-28.4,9.1H795a1,1,0,0,0,0,2h25.9a50.67,50.67,0,0,0,29.6-9.5.9.9,0,0,0,.2-1.4,1.08,1.08,0,0,0-1.4-.2ZM598.7,287.5a.94.94,0,0,0,1-1V222.9a1,1,0,0,0-2,0v63.6A1,1,0,0,0,598.7,287.5ZM856.6,474.9a173.31,173.31,0,0,1-105.2,0,1,1,0,0,0-.6,2h0a174.65,174.65,0,0,0,106.4,0,1.15,1.15,0,0,0,.7-1.3,1,1,0,0,0-1.21-.73ZM795,628.5a1,1,0,0,0,0,2h25.8a1,1,0,0,0,0-2ZM859.3,465l-19.2-35.3,9.2-9a14,14,0,0,0,9.5,3.6A14.3,14.3,0,1,0,844.5,410a14.54,14.54,0,0,0,3.4,9.3l-8.8,8.6-9.4-17.3h7.6a.94.94,0,0,0,1-1V398.4a.94.94,0,0,0-.88-1H828v-6.7c21.6-7.6,35.5-24.7,35.5-43.6,0-24.4-23.1-44.6-52.8-47.3v-12h8.1a.94.94,0,0,0,1-1V274.5h14a8.8,8.8,0,0,0,0-17.6h-14V236.7a1.23,1.23,0,0,0-.4-.8,1,1,0,0,0-.9-.1l-7.7,2.5V130.4a.94.94,0,0,0-.88-1H585.5a.94.94,0,0,0-1,1v56c-8.1,2-13.8,6.8-13.8,12.5,0,3.2,1.9,6.2,5,8.5v198H548.4V394.8a13.55,13.55,0,0,0-7.9-12.3v-175c3.1-2.3,5-5.3,5-8.5,0-6-6.5-11.1-15.4-12.8V130.6a.94.94,0,0,0-.88-1H434.8a.94.94,0,0,0-1,1v91.8a72.79,72.79,0,0,0-30.5,10.3l-2.5,1.5a1,1,0,0,0-.5.9v12.8h-8.5V240a.94.94,0,0,0-.88-1H379.8a.94.94,0,0,0-1,1v7.5l-47.7-.1h0a1,1,0,0,0-1,1v40.3h-8.5a7.55,7.55,0,0,0-7.5,7.5v6.5c-22.4,6.9-38.3,24.2-38.3,44.5,0,18.9,13.9,35.9,35.5,43.6v6.6h-9.2a.94.94,0,0,0-1,1v11.2a.94.94,0,0,0,.88,1h7.62L280.2,465a27.57,27.57,0,0,0-14,23.9V609.6a51.13,51.13,0,0,0,51.1,51.1h36.4a51.13,51.13,0,0,0,51.1-51.1V488.9a27.25,27.25,0,0,0-14-23.9l-5.5-10c.1,0,.1-.1.2-.1l64.6-55.4a1.14,1.14,0,0,0,.3-.8v-11h5.3a.94.94,0,0,0,1-1v-11a.94.94,0,0,0-.88-1H450.4V363.9a20.25,20.25,0,0,0,5.5-4.7l15.2-19.3a50.09,50.09,0,0,0,10.7-30.8V234.8a1.19,1.19,0,0,0-.5-.9l-2.5-1.5a72.74,72.74,0,0,0-28.4-10V145.3h65.3v40.8c-8.5,1.9-14.7,6.8-14.7,12.7,0,3.2,1.9,6.2,5,8.5v198H489.6a.94.94,0,0,0-1,1V552H464.8a.94.94,0,0,0-1,1v22.3a.94.94,0,0,0,.88,1h3.72v52.1h-3.6a.94.94,0,0,0-1,1v22.3a.94.94,0,0,0,.88,1h3.72v24.5h-3.6a.94.94,0,0,0-1,1v22.3a.94.94,0,0,0,.88,1H576.1a.94.94,0,0,0,1-1V678.2a.94.94,0,0,0-.88-1H572.5V652.7h3.6a.94.94,0,0,0,1-1V633.2h10.4v67a.94.94,0,0,0,.88,1H662a.94.94,0,0,0,1-1v-67h36.5a.94.94,0,0,0,1-1V406.3a.94.94,0,0,0-.88-1h-12V394.7a13.55,13.55,0,0,0-7.9-12.3v-175c3.1-2.3,5-5.3,5-8.5,0-5.8-6.2-10.8-14.8-12.7V172.4h81.5V273.5a.94.94,0,0,0,.88,1H774.2v.9a8.25,8.25,0,0,0,4.5,7.4l9.5,4.9a.75.75,0,0,0,.5.1h6V300c-28.5,3.5-50.4,23.3-50.4,47.1,0,18.9,13.9,35.9,35.5,43.6v6.7h-9.1a.94.94,0,0,0-1,1v11.2a.94.94,0,0,0,.88,1h7.62L748.7,465a27.57,27.57,0,0,0-14,23.9V609.6a51.13,51.13,0,0,0,51.1,51.1h36.4a51.13,51.13,0,0,0,51.1-51.1V488.9A27.37,27.37,0,0,0,859.3,465Zm-12.8-55a12.3,12.3,0,1,1,12.3,12.3h0A12.29,12.29,0,0,1,846.5,410ZM833.8,258.9a6.8,6.8,0,0,1,0,13.6h-30a6.8,6.8,0,0,1,0-13.6ZM586.5,131.4H808.7V238.9l-11.9,3.8V144.3a.94.94,0,0,0-.88-1H598.6a.94.94,0,0,0-1,1v41.4a36.36,36.36,0,0,0-4.8-.3,33.1,33.1,0,0,0-6.4.6V131.4Zm6.4,56c11.2,0,20.2,5.1,20.2,11.5s-9.1,11.5-20.2,11.5h0c-11.2,0-20.2-5.1-20.2-11.5S581.7,187.4,592.9,187.4Zm0,241.6V394.6A11.61,11.61,0,0,1,604.5,383h0a11.61,11.61,0,0,1,11.6,11.6V429Zm23.1,2v8.4H592.9V431Zm-7.9-49.4a14.87,14.87,0,0,0-3.6-.5h0a13.61,13.61,0,0,0-13.6,13.6v10.6H577.6V208.6a33.07,33.07,0,0,0,30.4,0v173Zm-59.7,25.7h42.5v14.4H548.4Zm-2-12.7V429H523.3V394.6a11.55,11.55,0,0,1,23.1,0ZM523.3,431h23.1v8.4H523.3Zm-2-36.4v10.6H508V208.6a33.07,33.07,0,0,0,30.4,0v173a14.87,14.87,0,0,0-3.6-.5A13.57,13.57,0,0,0,521.3,394.6ZM391.8,249.5h8.5v9h-8.5ZM380.9,241h9v25.7h-9Zm-1,27.7h11a.94.94,0,0,0,1-1v-7.1h8.5v48.5a49.88,49.88,0,0,0,10.7,30.8l15.2,19.3a18.18,18.18,0,0,0,3.1,3.1,22.1,22.1,0,0,0,4.4,2.6v9.8H428a.94.94,0,0,0-1,1v11a.94.94,0,0,0,.88,1h5.82v5.9L378,441.5l-8-14.7,6.1-6a14,14,0,0,0,9.5,3.6,14.3,14.3,0,1,0-14.3-14.3h0a14.54,14.54,0,0,0,3.4,9.3L369,425l-7.8-14.3h7.5a.94.94,0,0,0,1-1V398.5a.94.94,0,0,0-.88-1H359.5v-6.7c21.6-7.6,35.5-24.6,35.5-43.6,0-20.3-15.9-37.6-38.2-44.5v-6.5a7.55,7.55,0,0,0-7.5-7.5h-6.7V260.6h36.3v7.1a1,1,0,0,0,1,1ZM373.3,410a12.3,12.3,0,1,1,12.3,12.3h0A12.29,12.29,0,0,1,373.3,410ZM332.1,249.4l46.8.1v9.1H341.6a.94.94,0,0,0-1,1v29.1h-8.4V249.4Zm-15.9,46.8a5.55,5.55,0,0,1,5.5-5.5h27.6a5.55,5.55,0,0,1,5.5,5.5v5.9a72.93,72.93,0,0,0-38.6,0Zm-38.3,51c0-25.2,25.8-45.7,57.5-45.7a67.18,67.18,0,0,1,19.3,2.7,1.08,1.08,0,0,0,1,.8.91.91,0,0,0,.7-.3c21.4,6.7,36.6,23.2,36.6,42.5,0,18.2-13.7,34.7-34.8,41.9a1,1,0,0,0-.7.9v7.4H313.4V390a1,1,0,0,0-.7-.9c-21.1-7.3-34.8-23.7-34.8-41.9Zm25.3,61.4v-9.2h64.5v9.2Zm87.5,58.7A25.42,25.42,0,0,1,402.8,489V609.7a49.12,49.12,0,0,1-49.1,49.1H317.3a49.12,49.12,0,0,1-49.1-49.1V488.9a25.55,25.55,0,0,1,12.1-21.7h0a174.7,174.7,0,0,0,110.4.1Zm-1.8-1.5a171.35,171.35,0,0,1-106.9,0l30-55.2h46.9l17.9,32.9,6.3,11.7Zm59.5-67.6-64.1,55-5.4-9.9h0l56.4-48.4a1.14,1.14,0,0,0,.3-.8v-6.4h12.7v10.5Zm6.3-21.5v9H429v-9Zm-19-2v-9.1a18.56,18.56,0,0,0,12.7-.7v9.8H435.7Zm42.1-140.6,2,1.2V309a47.55,47.55,0,0,1-10.3,29.6L454.3,358a17,17,0,0,1-23.8,2.8,18.53,18.53,0,0,1-2.8-2.8l-15.2-19.3a48.16,48.16,0,0,1-10.3-29.6V235.4l2-1.2a70.82,70.82,0,0,1,73.6-.1Zm-28.4-90.8a.94.94,0,0,0-1,1v77.9a77,77,0,0,0-12.7-.2V131.4H528v54.3a37.49,37.49,0,0,0-4.8-.3,34.35,34.35,0,0,0-5.6.4V144.3a.94.94,0,0,0-.88-1H449.4ZM503,198.8c0-6.3,9.1-11.5,20.2-11.5s20.2,5.1,20.2,11.5-9.1,11.5-20.2,11.5S503,205.2,503,198.8ZM490.6,407.3h30.7v14.4H490.6Zm0,16.4h10.9V552H490.6ZM465.8,574.2V554H575.1v20.3H465.8Zm104.7,2v52.1h-9.1V576.2ZM548.1,599l-18.3-15.4v-7.3h29.7v52.1h-4.8V613.2A18.78,18.78,0,0,0,548.1,599Zm-59.7,15.2h.2a.5.5,0,1,0,0-1h-.2a16.72,16.72,0,0,1,5.8-12.7l19-16v-8.2h14.5v8.2l19,16a16.39,16.39,0,0,1,5.8,12.7v15.2H488.3V614.2Zm-2-1v15.2h-4.8V576.3h29.7v7.3L493,599a18.44,18.44,0,0,0-6.6,14.2Zm-6.8-37v52.1h-9.1V576.2Zm95.6,102.9v20.3H465.8V679.1Zm-104.7-2V652.6h9.1v24.5Zm17.9,0h-6.8V652.6h4.8v16.6a16.55,16.55,0,0,0,2,7.9Zm0-7.9V652.6h64.2v16.6a14.58,14.58,0,0,1-2.3,7.9H490.7a14.58,14.58,0,0,1-2.3-7.9Zm64.2,7.9a16.85,16.85,0,0,0,2-7.9V652.6h4.8v24.5Zm8.8,0V652.6h9.1v24.5Zm13.8-26.5H465.8V630.3H575.1v20.3Zm12.4-19.5H577.2v-1.7a.94.94,0,0,0-.88-1H572.6V616.8h15Zm73.4,68H589.5V477.8H661ZM604.3,475.8a13,13,0,0,1,11.5-6.9H636a13.06,13.06,0,0,1,11.5,6.9Zm57.7,0H649.7a14.93,14.93,0,0,0-13.7-8.9H615.7a14.93,14.93,0,0,0-13.7,8.9H588.5a.94.94,0,0,0-1,1v17.4H526.7a13.14,13.14,0,0,0-13.1,13.1V527a.94.94,0,0,0,.88,1H527.4a.94.94,0,0,0,1-1V511.3a2.33,2.33,0,0,1,2.3-2.3h56.9V614.8h-15V576.3h3.6a.94.94,0,0,0,1-1V553a.94.94,0,0,0-.88-1H503.5V423.7h17.8v16.8a.94.94,0,0,0,.88,1H547.4a.94.94,0,0,0,1-1V430.1h0v-6.3h42.5v16.8a.94.94,0,0,0,.88,1H617a.94.94,0,0,0,1-1V423.8h42.5v16.8a.94.94,0,0,0,.88,1H685.6V614.9H663v-138a1,1,0,0,0-.89-1.1Zm-75.2,20.4V507H530.7a4.38,4.38,0,0,0-4.3,4.2V526H515.6V507.3a11.14,11.14,0,0,1,11.1-11.1h60.1Zm73.8-101.6v10.6H647.3V208.6a33.07,33.07,0,0,0,30.4,0v173a14.87,14.87,0,0,0-3.6-.5,13.51,13.51,0,0,0-13.5,13.5Zm2,36.4h23.1v8.4H662.6Zm-2-23.7v14.4H618V407.3Zm37.9,223.8H663V616.7h35.5ZM687.7,407.3h10.9v14.4H687.7Zm-.1,33.3V423.5h10.9V614.6H687.6Zm-1.9-46v34.3H662.6V394.5a11.55,11.55,0,0,1,23.1.1h0Zm-2.9-195.8c0,6.3-9.1,11.5-20.2,11.5s-20.2-5.1-20.2-11.5,9.1-11.5,20.2-11.5,20.2,5.2,20.2,11.5Zm91.5,73.6H753.5v-101a.94.94,0,0,0-.88-1H669a.94.94,0,0,0-1,1v14.4a33.13,33.13,0,0,0-5.5-.4,39.08,39.08,0,0,0-4.9.3V158.5H765.4V258a.94.94,0,0,0,.88,1h7.92v13.4Zm0-15.4h-6.8V157.5a.94.94,0,0,0-.88-1h-110a.94.94,0,0,0-1,1V186c-8.9,1.8-15.3,6.8-15.3,12.8,0,3.2,1.9,6.2,5,8.5v198H618V394.7a13.55,13.55,0,0,0-7.9-12.3v-175c3.1-2.3,5-5.3,5-8.5,0-6-6.5-11.1-15.5-12.8V145.4H794.8v98l-14.7,4.7a8.28,8.28,0,0,0-5.8,8Zm14.8,28.8-9.3-4.8a6.35,6.35,0,0,1-3.5-5.6V256a6.24,6.24,0,0,1,4.4-6l37.1-11.9v18.8H803.9a8.8,8.8,0,0,0,0,17.6h14v11.3H789.1Zm19.6,2v11.9c-1.6-.1-3.2-.2-4.8-.2a55.3,55.3,0,0,0-7.1.4V287.8h11.9Zm-62.3,59.3c0-25.2,25.8-45.7,57.5-45.7s57.5,20.5,57.5,45.7c0,18.2-13.7,34.7-34.8,41.9a1,1,0,0,0-.7.9v7.4H781.8V390a1,1,0,0,0-.7-.9c-21-7.3-34.7-23.7-34.7-42Zm25.4,61.5v-9.2h64.5v9.2Zm8.8,2h46.8l30.1,55.2a171.35,171.35,0,0,1-106.9,0Zm90.7,199a49.12,49.12,0,0,1-49.1,49.1H785.8a49.12,49.12,0,0,1-49.1-49.1V488.9a25.55,25.55,0,0,1,12.1-21.7h0a173.78,173.78,0,0,0,110.4,0h0a25.42,25.42,0,0,1,12.1,21.7Zm-8.3-194a1,1,0,0,0,1.4-1.4l-4.9-4.9a1,1,0,0,0-1.4,1.4ZM386.6,410v-6.9a1,1,0,0,0-2,0V410a1,1,0,1,0,2,0Zm439.9,32.7A22.5,22.5,0,1,0,804,465.2h0A22.53,22.53,0,0,0,826.5,442.7Zm-42.9,0a20.5,20.5,0,1,1,20.5,20.5A20.5,20.5,0,0,1,783.6,442.7Zm46.9,85.7a27.2,27.2,0,1,0-27.2,27.2A27.2,27.2,0,0,0,830.5,528.4Zm-52.4,0a25.2,25.2,0,1,1,25.2,25.2A25.2,25.2,0,0,1,778.1,528.4Zm-426.5,0a16.8,16.8,0,1,0-16.8,16.8h0a16.84,16.84,0,0,0,16.8-16.8Zm-31.7,0a14.8,14.8,0,1,1,14.8,14.8h0a14.83,14.83,0,0,1-14.8-14.8ZM818,442.7a14,14,0,1,0-14,14A14,14,0,0,0,818,442.7Zm-26,0a12,12,0,1,1,12,12h0A12,12,0,0,1,792,442.7Zm28.2,85.7a16.8,16.8,0,1,0-16.8,16.8h0A16.84,16.84,0,0,0,820.2,528.4Zm-31.7,0a14.8,14.8,0,1,1,14.8,14.8h0A14.83,14.83,0,0,1,788.5,528.4ZM529,287.5a.94.94,0,0,0,1-1V222.9a1,1,0,0,0-2,0v63.6A1.08,1.08,0,0,0,529,287.5ZM335.5,428.7a14,14,0,1,0,14,14A14,14,0,0,0,335.5,428.7Zm0,26a12,12,0,1,1,12-12h0A12,12,0,0,1,335.5,454.7ZM526.9,613.2h-1.2a.5.5,0,0,0,0,1h1.2a.47.47,0,0,0,.5-.44.48.48,0,0,0,0-.06A.54.54,0,0,0,526.9,613.2Zm3.4,0h-1.2a.5.5,0,1,0,0,1h1.2a.5.5,0,0,0,0-1Zm3.5,0h-1.2a.5.5,0,1,0,0,1h1.2a.5.5,0,0,0,0-1Zm-10.4,0h-1.2a.5.5,0,0,0,0,1h1.2a.5.5,0,0,0,0-1Zm-10.5,0h-1.2a.5.5,0,1,0,0,1h1.2a.5.5,0,0,0,0-1Zm3.5,0h-1.2a.5.5,0,0,0,0,1h1.2a.5.5,0,0,0,0-1Zm-6.9,0h-1.2a.5.5,0,1,0,0,1h1.2a.47.47,0,0,0,.5-.5.54.54,0,0,0-.5-.5Zm10.4,0h-1.2a.5.5,0,0,0,0,1h1.2a.5.5,0,0,0,0-1Zm31.3,0H550a.5.5,0,0,0,0,1h1.2a.5.5,0,0,0,0-1Zm-13.9,0h-1.2a.5.5,0,0,0,0,1h1.2a.5.5,0,0,0,0-1Zm10.4,0h-1.2a.5.5,0,0,0,0,1h1.2a.5.5,0,0,0,0-1ZM566,692.9a3.6,3.6,0,1,0-3.6-3.6h0a3.58,3.58,0,0,0,3.56,3.6Zm0-5.2a1.6,1.6,0,1,1-1.6,1.6h0a1.58,1.58,0,0,1,1.56-1.6Zm-25.2-74.5h-1.2a.5.5,0,0,0,0,1h1.2a.5.5,0,0,0,0-1Zm3.5,0h-1.2a.5.5,0,0,0,0,1h1.2a.47.47,0,0,0,.5-.44.48.48,0,0,0,0-.06A.54.54,0,0,0,544.3,613.2ZM475,644.1a3.6,3.6,0,1,0-3.6-3.6h0A3.65,3.65,0,0,0,475,644.1Zm0-5.2a1.6,1.6,0,1,1-1.6,1.6h0a1.64,1.64,0,0,1,1.6-1.6ZM601.7,688H650a.94.94,0,0,0,1-1V666h0V616.2h0V566.4h0V536.2a.94.94,0,0,0-.88-1H601.7a.94.94,0,0,0-1,1v151A1.09,1.09,0,0,0,601.7,688Zm1-21.1h5.8a1,1,0,0,0,0-2h-5.8V617h5.8a1,1,0,0,0,0-2h-5.8V567.1h5.8a1,1,0,0,0,0-2h-5.8V536.9h22.2v5.8a1,1,0,0,0,2,0v-5.8H649v28.2h-5.8a1,1,0,0,0,0,2H649V615h-5.8a1,1,0,0,0,0,2H649v47.9h-5.8a1,1,0,0,0,0,2H649V686H602.7ZM475,560.5a3.6,3.6,0,1,0,3.6,3.6h0a3.52,3.52,0,0,0-3.44-3.6Zm0,5.2a1.6,1.6,0,1,1,1.6-1.6h0a1.58,1.58,0,0,1-1.56,1.6ZM418.5,279.1A22.5,22.5,0,1,0,441,256.6,22.5,22.5,0,0,0,418.5,279.1Zm43,0A20.5,20.5,0,1,1,441,258.6,20.5,20.5,0,0,1,461.5,279.1ZM566,567.7a3.6,3.6,0,1,0-3.6-3.6h0a3.58,3.58,0,0,0,3.56,3.6Zm0-5.2a1.6,1.6,0,1,1-1.6,1.6h0a1.58,1.58,0,0,1,1.56-1.6ZM412.6,321.3l-1.2-.3a1,1,0,0,0-.5,1.9l1.2.3a121.3,121.3,0,0,0,28.8,3.4,126.21,126.21,0,0,0,26.7-2.9l3.6-.8a1,1,0,0,0-.4-2l-3.6.8A119.86,119.86,0,0,1,412.6,321.3Zm255.7-33.8a.94.94,0,0,0,1-1V222.9a1,1,0,0,0-2,0v63.6A1.08,1.08,0,0,0,668.3,287.5ZM427,279.1a14,14,0,1,0,14-14A14,14,0,0,0,427,279.1Zm26,0a12,12,0,1,1-12-12A12,12,0,0,1,453,279.1Zm46,334.1h-1.2a.5.5,0,0,0,0,1H499a.5.5,0,0,0,0-1Zm7,0h-1.2a.5.5,0,0,0,0,1H506a.5.5,0,0,0,0-1Zm-10.5,0h-1.2a.5.5,0,0,0,0,1h1.2a.5.5,0,0,0,0-1Zm7,0h-1.2a.5.5,0,0,0,0,1h1.2a.5.5,0,0,0,0-1ZM566,644.1a3.6,3.6,0,1,0-3.6-3.6h0a3.58,3.58,0,0,0,3.56,3.6Zm0-5.2a1.6,1.6,0,1,1-1.6,1.6h0a1.58,1.58,0,0,1,1.56-1.6h0Zm-73.9-25.7h-1.2a.5.5,0,0,0,0,1h1.2a.47.47,0,0,0,.5-.5.54.54,0,0,0-.5-.5Zm-156.6-193A22.5,22.5,0,1,0,358,442.7a22.5,22.5,0,0,0-22.5-22.5Zm0,42.9A20.5,20.5,0,1,1,356,442.6h0a20.53,20.53,0,0,1-20.5,20.5Z" style="fill:#666"/><text transform="translate(167.56 825.23)" style="isolation:isolate;font-size:15px;fill:#666;font-family:GillSans, Gill Sans">A</text><text transform="translate(193.73 825.23)" style="isolation:isolate;font-size:15px;fill:#666;font-family:GillSans, Gill Sans">=</text><text transform="translate(218.66 825.23)" style="isolation:isolate;font-size:15px;fill:#666;font-family:GillSans, Gill Sans">R</text><text transform="translate(233.72 825.23)" style="isolation:isolate;font-size:15px;fill:#666;font-family:GillSans, Gill Sans">A</text><text transform="translate(249.42 825.23)" style="isolation:isolate;font-size:15px;fill:#666;font-family:GillSans, Gill Sans">U</text><text transform="translate(266.04 825.23)" style="isolation:isolate;font-size:15px;fill:#666;font-family:GillSans, Gill Sans">H</text><text transform="translate(282.98 825.23)" style="isolation:isolate;font-size:15px;fill:#666;font-family:GillSans, Gill Sans">B</text><text transform="translate(297.42 825.23)" style="isolation:isolate;font-size:15px;fill:#666;font-family:GillSans, Gill Sans">R</text><text transform="translate(312.48 825.23)" style="isolation:isolate;font-size:15px;fill:#666;font-family:GillSans, Gill Sans">A</text><text transform="translate(328.49 825.23)" style="isolation:isolate;font-size:15px;fill:#666;font-family:GillSans, Gill Sans">N</text><text transform="translate(346.2 825.23)" style="isolation:isolate;font-size:15px;fill:#666;font-family:GillSans, Gill Sans">D</text><text transform="translate(424.46 825.23)" style="isolation:isolate;font-size:15px;fill:#666;font-family:GillSans, Gill Sans">B</text><text transform="translate(449.07 825.23)" style="isolation:isolate;font-size:15px;fill:#666;font-family:GillSans, Gill Sans">=</text><text transform="translate(474 825.23)" style="isolation:isolate;font-size:15px;fill:#666;font-family:GillSans, Gill Sans">H</text><text transform="translate(490.93 825.23)" style="isolation:isolate;font-size:15px;fill:#666;font-family:GillSans, Gill Sans">E</text><text transform="translate(504.43 825.23)" style="isolation:isolate;font-size:15px;fill:#666;font-family:GillSans, Gill Sans">R</text><text transform="translate(519.49 825.23)" style="isolation:isolate;font-size:15px;fill:#666;font-family:GillSans, Gill Sans">Z</text><text transform="translate(535.18 825.23)" style="isolation:isolate;font-size:15px;fill:#666;font-family:GillSans, Gill Sans">S</text><text transform="translate(548.05 825.23)" style="isolation:isolate;font-size:15px;fill:#666;font-family:GillSans, Gill Sans">T</text><text transform="translate(563.11 825.23)" style="isolation:isolate;font-size:15px;fill:#666;font-family:GillSans, Gill Sans">Ü</text><text transform="translate(579.73 825.23)" style="isolation:isolate;font-size:15px;fill:#666;font-family:GillSans, Gill Sans">C</text><text transform="translate(596.35 825.23)" style="isolation:isolate;font-size:15px;fill:#666;font-family:GillSans, Gill Sans">K</text><text transform="translate(673.19 825.23)" style="isolation:isolate;font-size:15px;fill:#666;font-family:GillSans, Gill Sans">C</text><text transform="translate(699.98 825.23)" style="isolation:isolate;font-size:15px;fill:#666;font-family:GillSans, Gill Sans">=</text><text transform="translate(722.66 825.23)" style="isolation:isolate;font-size:15px;fill:#666;font-family:GillSans, Gill Sans">V</text><text transform="translate(737.12 825.23)" style="isolation:isolate;font-size:15px;fill:#666;font-family:GillSans, Gill Sans">O</text><text transform="translate(755.47 825.23)" style="isolation:isolate;font-size:15px;fill:#666;font-family:GillSans, Gill Sans">R</text><text transform="translate(770.53 825.23)" style="isolation:isolate;font-size:15px;fill:#666;font-family:GillSans, Gill Sans">L</text><text transform="translate(783.88 825.23)" style="isolation:isolate;font-size:15px;fill:#666;font-family:GillSans, Gill Sans">A</text><text transform="translate(799.58 825.23)" style="isolation:isolate;font-size:15px;fill:#666;font-family:GillSans, Gill Sans">U</text><text transform="translate(816.2 825.23)" style="isolation:isolate;font-size:15px;fill:#666;font-family:GillSans, Gill Sans">F</text><text transform="translate(827.14 825.23)" style="isolation:isolate;font-size:15px;fill:#666;font-family:GillSans, Gill Sans;letter-spacing:-0.20009765625em">,</text><text transform="translate(845.1 825.23)" style="isolation:isolate;font-size:15px;fill:#666;font-family:GillSans, Gill Sans">N</text><text transform="translate(862.81 825.23)" style="isolation:isolate;font-size:15px;fill:#666;font-family:GillSans, Gill Sans">A</text><text transform="translate(878.21 825.23)" style="isolation:isolate;font-size:15px;fill:#666;font-family:GillSans, Gill Sans">C</text><text transform="translate(894.83 825.23)" style="isolation:isolate;font-size:15px;fill:#666;font-family:GillSans, Gill Sans">H</text><text transform="translate(911.77 825.23)" style="isolation:isolate;font-size:15px;fill:#666;font-family:GillSans, Gill Sans">L</text><text transform="translate(925.12 825.23)" style="isolation:isolate;font-size:15px;fill:#666;font-family:GillSans, Gill Sans">A</text><text transform="translate(940.82 825.23)" style="isolation:isolate;font-size:15px;fill:#666;font-family:GillSans, Gill Sans">U</text><text transform="translate(957.44 825.23)" style="isolation:isolate;font-size:15px;fill:#666;font-family:GillSans, Gill Sans">F</text><text transform="translate(669.15 419.79)" style="isolation:isolate;font-size:16px;fill:#666;font-family:GillSans, Gill Sans">C</text><text transform="translate(600.71 419.79)" style="isolation:isolate;font-size:16px;fill:#666;font-family:GillSans, Gill Sans">B</text><text transform="translate(530.28 419.79)" style="isolation:isolate;font-size:16px;fill:#666;font-family:GillSans, Gill Sans">A</text></g><g id="Animation5"><path id="Tropfen_Herzstück" data-name="Tropfen Herzstück" d="M520.5,533c-1.4,2.7-3.7,6.3-3.7,8.3a3.69,3.69,0,0,0,3.68,3.7h0a3.63,3.63,0,0,0,3.7-3.56s0-.09,0-.14C524.2,539.3,522,535.8,520.5,533Z" style="fill:none;stroke:#666;stroke-linecap:round;stroke-linejoin:round;stroke-dasharray:1.159999966621399,2.319999933242798"/><path id="Tropfen_C" data-name="Tropfen C" d="M673.6,447.2c-1.4,2.7-3.7,6.3-3.7,8.3a3.69,3.69,0,0,0,3.68,3.7h0a3.63,3.63,0,0,0,3.7-3.56s0-.09,0-.14C677.3,453.4,675.1,449.9,673.6,447.2Z" style="fill:none;stroke:#666;stroke-linecap:round;stroke-linejoin:round;stroke-dasharray:1.159999966621399,2.319999933242798"/><path id="Tropfen_B" data-name="Tropfen B" d="M604,447.2c-1.4,2.7-3.7,6.3-3.7,8.3a3.69,3.69,0,0,0,3.68,3.7h0a3.63,3.63,0,0,0,3.7-3.56s0-.09,0-.14C607.7,453.4,605.5,449.9,604,447.2Z" style="fill:none;stroke:#666;stroke-linecap:round;stroke-linejoin:round;stroke-dasharray:1.159999966621399,2.319999933242798"/><path id="Tropfen_A" data-name="Tropfen A" d="M534.4,447.2c-1.4,2.7-3.7,6.3-3.7,8.3a3.69,3.69,0,0,0,3.68,3.7h0a3.63,3.63,0,0,0,3.7-3.56s0-.09,0-.14C538.1,453.4,535.9,449.9,534.4,447.2Z" style="fill:none;stroke:#666;stroke-linecap:round;stroke-linejoin:round;stroke-dasharray:1.159999966621399,2.319999933242798"/></g><g id="Animation4"><circle id="Blase_2._Kessel_4" data-name="Blase 2. Kessel 4" cx="800.7" cy="538.4" r="3.3" style="fill:none;stroke:#666;stroke-linecap:round;stroke-linejoin:round;stroke-dasharray:1.159999966621399,2.319999933242798"/><circle id="Blase_2._Kessel_3" data-name="Blase 2. Kessel 3" cx="806" cy="530.6" r="2" style="fill:none;stroke:#666;stroke-linecap:round;stroke-linejoin:round;stroke-dasharray:1.159999966621399,2.319999933242798"/><circle id="Blase_2._Kessel_2" data-name="Blase 2. Kessel 2" cx="796.4" cy="524.3" r="2.6" style="fill:none;stroke:#666;stroke-linecap:round;stroke-linejoin:round;stroke-dasharray:1.159999966621399,2.319999933242798"/><circle id="Blase_2._Kessel_1" data-name="Blase 2. Kessel 1" cx="809.2" cy="519.7" r="3.3" style="fill:none;stroke:#666;stroke-linecap:round;stroke-linejoin:round;stroke-dasharray:1.159999966621399,2.319999933242798"/></g><g id="Animation3"><circle id="Blase_1._Kessel_4" data-name="Blase 1. Kessel 4" cx="333.1" cy="538.4" r="3.3" style="fill:none;stroke:#666;stroke-linecap:round;stroke-linejoin:round;stroke-dasharray:1.159999966621399,2.319999933242798"/><circle id="Blase_1._Kessel_3" data-name="Blase 1. Kessel 3" cx="338.4" cy="530.6" r="2" style="fill:none;stroke:#666;stroke-linecap:round;stroke-linejoin:round;stroke-dasharray:1.159999966621399,2.319999933242798"/><circle id="Blase_1._kessel_2" data-name="Blase 1. kessel 2" cx="328.8" cy="524.3" r="2.6" style="fill:none;stroke:#666;stroke-linecap:round;stroke-linejoin:round;stroke-dasharray:1.159999966621399,2.319999933242798"/><circle id="Blase_1._Kessel_1" data-name="Blase 1. Kessel 1" cx="341.6" cy="519.7" r="3.3" style="fill:none;stroke:#666;stroke-linecap:round;stroke-linejoin:round;stroke-dasharray:1.159999966621399,2.319999933242798"/></g><g id="Animation2"><polygon id="Animation2-2" points="807.5 210.6 802.7 202.7 798 210.6 800 210.6 800 214.6 805.5 214.6 805.5 210.6 807.5 210.6" style="fill:none;stroke:#666;stroke-linecap:round;stroke-linejoin:round"/></g><g id="Animation1"><polygon id="Animation1-2" points="446.8 210.6 442.1 202.7 437.3 210.6 439.3 210.6 439.3 214.6 444.8 214.6 444.8 210.6 446.8 210.6" style="fill:none;stroke:#666;stroke-linecap:round;stroke-linejoin:round"/></g></g></svg>