<svg id="Ebene_1" data-name="Ebene 1" xmlns="http://www.w3.org/2000/svg" viewBox="0 0 686 754.72"><title>wie_abbildung_brennvorgang_Illustration_mobile</title><g id="Illustration"><path id="Illustration_Inhalt_Herzst端ck" data-name="Illustration Inhalt Herzst端ck" d="M260.42,556.54v17.38a15.91,15.91,0,0,0,2.72,8.94H323.9a15.91,15.91,0,0,0,2.71-8.94V556.54Zm66.19-38.09H260.42V533.6l66.19.33Z" style="fill:#e0e0e0"/><path id="Illustration_Brennvorgang" data-name="Illustration Brennvorgang" d="M248,597.6a3.61,3.61,0,1,0-3.61-3.61A3.61,3.61,0,0,0,248,597.6Zm0-5.22a1.61,1.61,0,1,1-1.61,1.61A1.61,1.61,0,0,1,248,592.38Zm-94.29-61.26a48.6,48.6,0,0,1-28.42,9.11H99.48a1,1,0,1,0,0,2h25.86a50.59,50.59,0,0,0,29.58-9.49,1,1,0,0,0-1.16-1.63Zm-54.28,2.15a1,1,0,1,0,0,2h25.77a1,1,0,0,0,0-2ZM55.85,379.58a1,1,0,1,0-.6,1.91,175.09,175.09,0,0,0,106.43,0,1,1,0,1,0-.6-1.91A173.13,173.13,0,0,1,55.85,379.58ZM135,433.07a27.19,27.19,0,1,0-27.19,27.19A27.22,27.22,0,0,0,135,433.07Zm-52.38,0a25.19,25.19,0,1,1,25.19,25.19A25.22,25.22,0,0,1,82.57,433.07Zm539.71,98a48.6,48.6,0,0,1-28.42,9.11H568a1,1,0,0,0,0,2h25.86a50.59,50.59,0,0,0,29.58-9.49,1,1,0,0,0-1.16-1.63ZM371.69,192.21a1,1,0,0,0,1-1V127.56a1,1,0,1,0-2,0v63.65A1,1,0,0,0,371.69,192.21ZM629.64,379.58a173.12,173.12,0,0,1-105.22,0,1,1,0,0,0-.61,1.91,175.1,175.1,0,0,0,106.44,0,1,1,0,0,0-.61-1.91ZM568,533.27a1,1,0,0,0,0,2h25.78a1,1,0,0,0,0-2Zm64.29-163.56L613.1,334.42l9.21-9a14.26,14.26,0,1,0-1.4-1.43l-8.8,8.58-9.42-17.29h7.58a1,1,0,0,0,1-1V303.09a1,1,0,0,0-1-1H601v-6.66c21.58-7.64,35.48-24.68,35.48-43.57,0-24.44-23.11-44.64-52.76-47.34v-12h8.09a1,1,0,0,0,1-1V179.16h14a8.78,8.78,0,1,0,0-17.56h-14V141.43a1,1,0,0,0-1.3-1L583.72,143V35.12a1,1,0,0,0-1-1H358.5a1,1,0,0,0-1,1v56c-8.12,2-13.85,6.84-13.85,12.47,0,3.22,1.88,6.18,5,8.5V309.92s0,.06,0,.09H321.41V299.36A13.57,13.57,0,0,0,313.49,287V112c3.12-2.32,5-5.28,5-8.5,0-6-6.49-11.08-15.44-12.82V35.12a1,1,0,0,0-1-1H207.72a1,1,0,0,0-1,1v91.77a72.75,72.75,0,0,0-30.5,10.27l-2.45,1.49a1,1,0,0,0-.48.85v12.76l-8.45,0v-7.55a1,1,0,0,0-1-1h-11a1,1,0,0,0-1,1v7.52l-47.75-.12h0a1,1,0,0,0-1,1V193.4H94.66a7.5,7.5,0,0,0-7.49,7.49v6.27a1,1,0,0,0,0,.21c-22.37,6.86-38.29,24.22-38.29,44.51,0,18.89,13.9,35.93,35.48,43.57v6.64H75.22a1,1,0,0,0-1,1V314.3a1,1,0,0,0,1,1h7.54l-29.6,54.41a27.46,27.46,0,0,0-14,23.94V514.31a51.17,51.17,0,0,0,51.11,51.11h36.38a51.17,51.17,0,0,0,51.11-51.11V393.65a27.44,27.44,0,0,0-14-23.94l-5.51-10a1,1,0,0,0,.21-.12l64.59-55.38a1,1,0,0,0,.35-.76v-11h5.3a1,1,0,0,0,1-1v-11a1,1,0,0,0-1-1h-5.3V268.63a18.81,18.81,0,0,0,5.46-4.7L244,244.66a50.08,50.08,0,0,0,10.69-30.85V139.5a1,1,0,0,0-.48-.85l-2.45-1.49a72.78,72.78,0,0,0-28.39-10V50h65.27V90.88C280.13,92.76,274,97.73,274,103.55c0,3.22,1.88,6.18,5,8.51V309.92s0,.06,0,.09H262.62a1,1,0,0,0-1,1v145.7H237.84a1,1,0,0,0-1,1V480a1,1,0,0,0,1,1h3.64V533.1h-3.64a1,1,0,0,0-1,1v22.26a1,1,0,0,0,1,1h3.64v24.5h-3.64a1,1,0,0,0-1,1v22.26a1,1,0,0,0,1,1H349.18a1,1,0,0,0,1-1V582.86a1,1,0,0,0-1-1h-3.64v-24.5h3.64a1,1,0,0,0,1-1V537.84h10.41v67a1,1,0,0,0,1,1H435a1,1,0,0,0,1-1v-67h36.5a1,1,0,0,0,1-1V311a1,1,0,0,0-1-1H460.68V299.36A13.57,13.57,0,0,0,452.76,287v-175c3.13-2.32,5-5.28,5-8.51,0-5.84-6.17-10.82-14.77-12.69V77.1h81.51V178.16a1,1,0,0,0,1,1h21.75v.91a8.29,8.29,0,0,0,4.54,7.41l9.55,4.91a1,1,0,0,0,.46.11h6v12.26c-28.51,3.53-50.4,23.31-50.4,47.1,0,18.89,13.9,35.93,35.48,43.57v6.66h-9.11a1,1,0,0,0-1,1V314.3a1,1,0,0,0,1,1h7.54l-29.6,54.42a27.46,27.46,0,0,0-14,23.93V514.31a51.17,51.17,0,0,0,51.11,51.11h36.38a51.17,51.17,0,0,0,51.11-51.11V393.65A27.44,27.44,0,0,0,632.32,369.71Zm-12.84-55a12.34,12.34,0,1,1,12.34,12.34A12.35,12.35,0,0,1,619.48,314.74ZM606.79,163.6a6.78,6.78,0,1,1,0,13.56h-30a6.78,6.78,0,1,1,0-13.56ZM359.5,36.12H581.72V143.59l-11.92,3.81V49a1,1,0,0,0-1-1H371.64a1,1,0,0,0-1,1V90.39a36.23,36.23,0,0,0-4.75-.31,35.73,35.73,0,0,0-6.39.57Zm6.39,56c11.16,0,20.24,5.15,20.24,11.47S377,115,365.89,115h0c-11.16,0-20.24-5.15-20.24-11.47s9.08-11.47,20.24-11.47Zm0,241.65V299.36a11.57,11.57,0,0,1,11.56-11.56h0A11.57,11.57,0,0,1,389,299.36v34.37Zm23.13,2v8.44H365.92v-8.44Zm-7.92-49.42a13.49,13.49,0,0,0-3.64-.51h0a13.58,13.58,0,0,0-13.56,13.56V310H350.63s0-.06,0-.09V113.35a33.45,33.45,0,0,0,30.48,0ZM321.41,312h42.51v14.38H321.41Zm-2-12.65v34.37H296.29V299.36a11.56,11.56,0,1,1,23.12,0Zm-23.12,36.37h23.12v8.44H296.29Zm-2-36.37V310H281s0-.06,0-.09V113.35a33.45,33.45,0,0,0,30.47,0v173a13.52,13.52,0,0,0-17.2,13ZM164.84,154.24l8.45,0v9h-8.45Zm-11-8.55h9v25.69h-9Zm-1,27.69h11a1,1,0,0,0,1-1V165.3h8.45v48.51A50.09,50.09,0,0,0,184,244.66l15.17,19.27a18.8,18.8,0,0,0,7.58,5.74v9.79H201a1,1,0,0,0-1,1v11a1,1,0,0,0,1,1h5.7v5.89L151,346.18l-8-14.75,6.14-6a14.26,14.26,0,1,0-1.4-1.43l-5.73,5.6-7.78-14.31h7.53a1,1,0,0,0,1-1V303.09a1,1,0,0,0-1-1h-9.23v-6.66c21.6-7.61,35.52-24.64,35.52-43.55,0-20.27-15.9-37.62-38.24-44.49v-6.49a7.5,7.5,0,0,0-7.49-7.49h-6.71V165.3h36.31v7.08A1,1,0,0,0,152.87,173.38Zm-6.59,141.36a12.34,12.34,0,1,1,12.34,12.34A12.35,12.35,0,0,1,146.28,314.74ZM105.12,154.09l46.75.12v9.09H114.56a1,1,0,0,0-1,1v29.1h-8.44Zm-16,46.8a5.5,5.5,0,0,1,5.49-5.49h27.61a5.5,5.5,0,0,1,5.49,5.49v5.91a73.36,73.36,0,0,0-38.59,0Zm-38.25,51c0-25.18,25.81-45.66,57.54-45.66a70.8,70.8,0,0,1,19.35,2.66,1,1,0,0,0,1.63.49C150.82,216,166,232.58,166,251.88c0,18.24-13.68,34.68-34.84,41.89a1,1,0,0,0-.68.95v7.37H86.4v-7.35a1,1,0,0,0-.68-.95C64.58,286.55,50.92,270.1,50.92,251.88Zm25.3,61.42v-9.21h64.49v9.21h-8a1,1,0,0,0-.49,0ZM163.69,372a25.44,25.44,0,0,1,12.07,21.66V514.31a49.17,49.17,0,0,1-49.11,49.11H90.27a49.17,49.17,0,0,1-49.11-49.11V393.65A25.46,25.46,0,0,1,53.24,372h0a173.37,173.37,0,0,0,110.43,0Zm-1.79-1.51a171.42,171.42,0,0,1-106.89,0L85,315.3h46.87l17.89,32.89,6.32,11.75ZM221.41,303l-64.1,55L152,348l0,0,56.39-48.42a1,1,0,0,0,.35-.76v-6.35h12.69Zm6.3-21.5v9H202v-9Zm-19-2v-9.09a18.82,18.82,0,0,0,12.69-.75v9.84Zm42-140.6,2,1.2v73.75a48.07,48.07,0,0,1-10.27,29.61l-15.17,19.27a16.92,16.92,0,0,1-26.58,0l-15.17-19.27a48.08,48.08,0,0,1-10.26-29.61V140.06l2-1.2A70.47,70.47,0,0,1,250.76,138.86ZM222.41,48a1,1,0,0,0-1,1V126.9a72.26,72.26,0,0,0-12.69-.18V36.12H301V90.4a36.35,36.35,0,0,0-10.37.11V49a1,1,0,0,0-1-1ZM276,103.55c0-6.32,9.08-11.47,20.24-11.47s20.24,5.15,20.24,11.47S307.41,115,296.25,115,276,109.87,276,103.55ZM263.62,312h30.67v14.38H263.62Zm0,16.38h10.9V456.71h-10.9ZM238.84,479V458.71H348.18V479H301.95a.51.51,0,0,0-.4,0Zm104.7,2V533.1h-9.13V481Zm-22.47,22.71-18.32-15.42V481h29.66V533.1h-4.8V517.93A18.58,18.58,0,0,0,321.07,503.68ZM261.41,519h.17a.5.5,0,1,0,0-1h-.17v0a16.58,16.58,0,0,1,5.82-12.72l19-16V481h14.48v8.22l19,16a16.59,16.59,0,0,1,5.83,12.73V533.1h-64.2Zm-2-1V533.1h-4.8V481h29.66v7.28l-18.33,15.42A18.58,18.58,0,0,0,259.41,517.92Zm-6.8-37V533.1h-9.13V481Zm95.57,102.89v20.26H238.84V583.86Zm-104.7-2v-24.5h9.13v24.5Zm17.91,0h-6.78v-24.5h4.81v16.56A16.83,16.83,0,0,0,261.39,581.86Zm0-7.94V557.36h64.19v16.56a14.84,14.84,0,0,1-2.27,7.94H263.7A14.84,14.84,0,0,1,261.42,573.92Zm64.23,7.94a16.82,16.82,0,0,0,2-7.94V557.36h4.8v24.5Zm8.76,0v-24.5h9.13v24.5Zm13.77-26.5H238.84V535.1H348.18Zm12.41-19.52H350.18V534.1a1,1,0,0,0-1-1h-3.64V521.47h15Zm73.45,68H362.59V382.51H434Zm-56.77-223.3a13,13,0,0,1,11.48-6.91H409a12.9,12.9,0,0,1,11.48,6.91Zm57.77,0H422.73A14.89,14.89,0,0,0,409,371.6H388.75a15,15,0,0,0-13.7,8.91H361.59a1,1,0,0,0-1,1v17.41H299.82a13.15,13.15,0,0,0-13.14,13.14v19.66a1,1,0,0,0,1,1h12.76a1,1,0,0,0,1-1V416a2.3,2.3,0,0,1,2.26-2.26h56.89V519.47h-15V481h3.64a1,1,0,0,0,1-1V457.71a1,1,0,0,0-1-1H276.52V328.39h17.77v16.78a1,1,0,0,0,1,1h25.12a1,1,0,0,0,1-1V334.78s0,0,0,0,0,0,0,0v-6.29h42.51v16.78a1,1,0,0,0,1,1H390a1,1,0,0,0,1-1V328.39h42.51v16.78a1,1,0,0,0,1,1h24.08v173.3H436v-138A1,1,0,0,0,435,380.51Zm-75.22,20.41v10.8H303.69a4.32,4.32,0,0,0-4.25,4.25v14.75H288.68V412.06a11.15,11.15,0,0,1,11.14-11.14Zm73.74-101.56V310H420.27s0-.06,0-.09V113.35a33.45,33.45,0,0,0,30.47,0v173a13.52,13.52,0,0,0-17.2,13Zm2,36.37h23.08v8.44H435.56Zm-2-23.72v14.38H391V312Zm38,223.83H436V521.47h35.5ZM460.68,312h10.86v14.38H460.68Zm0,33.36a1,1,0,0,0,0-.2V334.78s0,0,0-.05,0,0,0-.05v-6.29h10.86V519.47h-10.9Zm-2-46v27.83a1,1,0,0,0,0,.2v6.34H435.56V299.36a11.56,11.56,0,1,1,23.12,0Zm-2.91-195.81c0,6.32-9.08,11.47-20.24,11.47s-20.24-5.15-20.24-11.47,9.08-11.47,20.24-11.47S455.77,97.23,455.77,103.55Zm91.49,73.61H526.51V76.1a1,1,0,0,0-1-1H442a1,1,0,0,0-1,1V90.49a36.28,36.28,0,0,0-10.37-.08V63.18H538.42V162.7a1,1,0,0,0,1,1h7.84Zm0-15.46h-6.84V62.18a1,1,0,0,0-1-1H429.63a1,1,0,0,0-1,1V90.75c-8.89,1.76-15.34,6.83-15.34,12.8,0,3.22,1.88,6.18,5,8.5V309.92s0,.06,0,.09H391V299.36A13.57,13.57,0,0,0,383.13,287V112c3.12-2.32,5-5.28,5-8.5,0-6-6.52-11.1-15.49-12.83V50H567.8v98l-14.74,4.72a8.3,8.3,0,0,0-5.8,8Zm14.79,28.8-9.34-4.8a6.3,6.3,0,0,1-3.45-5.63V160.72a6.31,6.31,0,0,1,4.41-6l37.09-11.87v18.8H576.83a8.78,8.78,0,1,0,0,17.56h14V190.5Zm19.67,2v11.87c-1.58-.1-3.17-.17-4.78-.17-2.42,0-4.8.13-7.14.35V192.5ZM519.4,251.86c0-25.18,25.81-45.66,57.54-45.66s57.54,20.48,57.54,45.66c0,18.22-13.66,34.67-34.8,41.91a1,1,0,0,0-.68.95v7.37H554.88v-7.37a1,1,0,0,0-.68-.95C533.06,286.53,519.4,270.08,519.4,251.86Zm25.37,61.44v-9.21h64.49v9.21Zm8.81,2h46.82l30.05,55.18a171.4,171.4,0,0,1-106.89,0Zm90.74,199a49.17,49.17,0,0,1-49.11,49.11H558.83a49.17,49.17,0,0,1-49.11-49.11V393.65A25.46,25.46,0,0,1,521.79,372h0a173.37,173.37,0,0,0,110.43,0h0a25.44,25.44,0,0,1,12.07,21.66Zm-8.35-194a1,1,0,0,0,1.42-1.41L632.53,314a1,1,0,0,0-1.42,1.41Zm-476.35-5.58v-6.88a1,1,0,0,0-2,0v6.88a1,1,0,0,0,2,0ZM599.48,347.4A22.46,22.46,0,1,0,577,369.86,22.49,22.49,0,0,0,599.48,347.4Zm-42.92,0A20.46,20.46,0,1,1,577,367.86,20.48,20.48,0,0,1,556.56,347.4Zm46.94,85.67a27.19,27.19,0,1,0-27.19,27.19A27.22,27.22,0,0,0,603.5,433.07Zm-52.38,0a25.19,25.19,0,1,1,25.19,25.19A25.22,25.22,0,0,1,551.12,433.07Zm-426.52,0a16.84,16.84,0,1,0-16.84,16.84A16.86,16.86,0,0,0,124.6,433.07Zm-31.68,0a14.84,14.84,0,1,1,14.84,14.84A14.86,14.86,0,0,1,92.92,433.07ZM591,347.4a14,14,0,1,0-14,14A14,14,0,0,0,591,347.4Zm-26,0a12,12,0,1,1,12,12A12,12,0,0,1,565,347.4Zm28.11,85.67a16.84,16.84,0,1,0-16.84,16.84A16.86,16.86,0,0,0,593.15,433.07Zm-31.68,0a14.84,14.84,0,1,1,14.84,14.84A14.86,14.86,0,0,1,561.47,433.07ZM302,192.21a1,1,0,0,0,1-1V127.56a1,1,0,1,0-2,0v63.65A1,1,0,0,0,302,192.21ZM108.46,333.42a14,14,0,1,0,14,14A14,14,0,0,0,108.46,333.42Zm0,26a12,12,0,1,1,12-12A12,12,0,0,1,108.46,359.38ZM299.86,518H298.7a.5.5,0,0,0,0,1h1.16a.5.5,0,0,0,0-1Zm3.48,0h-1.16a.5.5,0,0,0,0,1h1.16a.5.5,0,0,0,0-1Zm3.48,0h-1.16a.5.5,0,0,0,0,1h1.16a.5.5,0,1,0,0-1Zm-10.44,0h-1.16a.5.5,0,0,0,0,1h1.16a.5.5,0,0,0,0-1Zm-10.44,0h-1.16a.5.5,0,0,0,0,1h1.16a.5.5,0,0,0,0-1Zm3.48,0h-1.16a.5.5,0,0,0,0,1h1.16a.5.5,0,0,0,0-1Zm-7,0H281.3a.5.5,0,0,0,0,1h1.16a.5.5,0,0,0,0-1Zm10.44,0h-1.16a.5.5,0,0,0,0,1h1.16a.5.5,0,0,0,0-1Zm31.32,0h-1.16a.5.5,0,0,0,0,1h1.16a.5.5,0,1,0,0-1Zm-13.92,0h-1.16a.5.5,0,0,0,0,1h1.16a.5.5,0,0,0,0-1Zm10.44,0h-1.16a.5.5,0,0,0,0,1h1.16a.5.5,0,1,0,0-1ZM339,597.6a3.61,3.61,0,1,0-3.61-3.61A3.61,3.61,0,0,0,339,597.6Zm0-5.22a1.61,1.61,0,1,1-1.61,1.61A1.61,1.61,0,0,1,339,592.38ZM313.78,518h-1.16a.5.5,0,0,0,0,1h1.16a.5.5,0,0,0,0-1Zm3.48,0H316.1a.5.5,0,0,0,0,1h1.16a.5.5,0,1,0,0-1ZM248,548.84a3.61,3.61,0,1,0-3.61-3.61A3.61,3.61,0,0,0,248,548.84Zm0-5.22a1.61,1.61,0,1,1-1.61,1.61A1.61,1.61,0,0,1,248,543.62ZM374.73,592.7H423a1,1,0,0,0,1-1v-21s0,0,0,0,0,0,0,0V520.82s0,0,0,0,0,0,0,0V470.94s0,0,0,0,0,0,0,0V440.66a1,1,0,0,0-1-1H374.73a1,1,0,0,0-1,1v151A1,1,0,0,0,374.73,592.7Zm1-21.06h5.77a1,1,0,0,0,0-2h-5.77V521.77h5.77a1,1,0,0,0,0-2h-5.77V471.89h5.77a1,1,0,0,0,0-2h-5.77V441.66h22.16v5.77a1,1,0,0,0,2,0v-5.77H422v28.23h-5.76a1,1,0,0,0,0,2H422v47.88h-5.76a1,1,0,1,0,0,2H422v47.87h-5.76a1,1,0,0,0,0,2H422V590.7H375.73ZM248,465.23a3.61,3.61,0,1,0,3.61,3.61A3.61,3.61,0,0,0,248,465.23Zm0,5.22a1.61,1.61,0,1,1,1.61-1.61A1.61,1.61,0,0,1,248,470.45ZM191.54,183.77A22.46,22.46,0,1,0,214,161.31,22.49,22.49,0,0,0,191.54,183.77Zm42.92,0A20.46,20.46,0,1,1,214,163.31,20.48,20.48,0,0,1,234.46,183.77ZM339,472.45a3.61,3.61,0,1,0-3.61-3.61A3.61,3.61,0,0,0,339,472.45Zm0-5.22a1.61,1.61,0,1,1-1.61,1.61A1.61,1.61,0,0,1,339,467.23ZM185.56,226l-1.25-.3a1,1,0,1,0-.47,1.94l1.25.3a122.94,122.94,0,0,0,55.45.49l3.56-.8a1,1,0,1,0-.44-2l-3.56.8A120.94,120.94,0,0,1,185.56,226Zm255.76-33.84a1,1,0,0,0,1-1V127.56a1,1,0,1,0-2,0v63.65A1,1,0,0,0,441.32,192.21ZM200,183.77a14,14,0,1,0,14-14A14,14,0,0,0,200,183.77Zm26,0a12,12,0,1,1-12-12A12,12,0,0,1,226,183.77ZM272,518h-1.16a.5.5,0,1,0,0,1H272a.5.5,0,0,0,0-1Zm7,0h-1.16a.5.5,0,0,0,0,1H279a.5.5,0,0,0,0-1Zm-10.44,0h-1.16a.5.5,0,0,0,0,1h1.16a.5.5,0,1,0,0-1Zm7,0h-1.16a.5.5,0,1,0,0,1h1.16a.5.5,0,0,0,0-1ZM339,548.84a3.61,3.61,0,1,0-3.61-3.61A3.61,3.61,0,0,0,339,548.84Zm0-5.22a1.61,1.61,0,1,1-1.61,1.61A1.61,1.61,0,0,1,339,543.62ZM265.06,518H263.9a.5.5,0,0,0,0,1h1.16a.5.5,0,1,0,0-1Zm-156.6-193a22.46,22.46,0,1,0,22.46,22.46A22.49,22.49,0,0,0,108.46,324.94Zm0,42.92a20.46,20.46,0,1,1,20.46-20.46A20.48,20.48,0,0,1,108.46,367.86Z" style="fill:#666"/><path d="M178.6,646.88a5.57,5.57,0,0,0,1,1.2,7.91,7.91,0,0,0,5.35,1.73,7.83,7.83,0,0,0,5.3-1.75,5.32,5.32,0,0,0,1-1.19,6.45,6.45,0,0,0,.71-1.67,11.52,11.52,0,0,0,.29-3v-9.68h-2.45v9.68a8.86,8.86,0,0,1-.32,2.84,3.52,3.52,0,0,1-1,1.44,5.36,5.36,0,0,1-3.54,1.13,5.81,5.81,0,0,1-2.65-.57,3.91,3.91,0,0,1-1.67-1.51,7.18,7.18,0,0,1-.55-3.34v-9.68h-2.45v9.66a12,12,0,0,0,.27,3A6.24,6.24,0,0,0,178.6,646.88Zm-45.66,77.66-5.13-12h-2.46l7.35,17.13h.55l7.21-17.13H138ZM126,682.19h9.58v7.42h2.44V672.56h-2.44v7.37H126v-7.37h-2.44v17.05H126ZM96,642.48H84.17v2.05H96Zm185.49,28.65a1.09,1.09,0,0,0,.81-.33,1.13,1.13,0,0,0,.33-.82,1.12,1.12,0,0,0-.35-.83,1.14,1.14,0,0,0-.82-.34,1.09,1.09,0,0,0-.8.34,1.12,1.12,0,0,0-.34.82,1.13,1.13,0,0,0,.34.82A1.12,1.12,0,0,0,281.48,671.12Zm-4.7,0a1.09,1.09,0,0,0,.81-.33,1.18,1.18,0,0,0-.84-2,1.09,1.09,0,0,0-.8.34,1.12,1.12,0,0,0-.34.82,1.13,1.13,0,0,0,.34.82A1.12,1.12,0,0,0,276.78,671.12ZM161.5,674.74v-2.17h-9.67v17h9.9v-2.17h-7.46v-5.3h7v-2.18h-7v-5.2Zm-7.43-30.17h7.28l2.27,5.05h2.5l-7.65-17.15h-1.72l-7.32,17.15h2.51Zm3.52-8.35,2.75,6.18H155Zm102.91,6h.64a3.84,3.84,0,0,1,1.7.27,5.29,5.29,0,0,1,1.14.9,13.27,13.27,0,0,1,1.39,1.67l.82,1.33.76,1.25.48.67.15.21.74,1.12h2.91l-.9-1.22q-.54-.73-1.43-2.19a29.64,29.64,0,0,0-2.2-3.23,7.56,7.56,0,0,0-1.6-1.46,4.27,4.27,0,0,0,2.88-4.2,4.3,4.3,0,0,0-1.52-3.47,6.17,6.17,0,0,0-4.11-1.28h-4.27v17.05h2.44Zm0-7.56h.73a8.64,8.64,0,0,1,2.57.27,2.29,2.29,0,0,1,1.2.92,2.61,2.61,0,0,1,.43,1.46,2.78,2.78,0,0,1-.38,1.46,2.39,2.39,0,0,1-1.07,1,6.88,6.88,0,0,1-2.54.32h-.93Zm-99.8,77.68a9,9,0,0,0-6.54,2.5,8.43,8.43,0,0,0-2.59,6.32,8.24,8.24,0,0,0,2.57,6.2,8.9,8.9,0,0,0,6.42,2.47,9.43,9.43,0,0,0,6.69-2.47,8.17,8.17,0,0,0,2.65-6.24,8.3,8.3,0,0,0-2.63-6.27A9.17,9.17,0,0,0,160.7,712.32Zm4.79,13.38a7,7,0,0,1-9.49,0,6.13,6.13,0,0,1-1.89-4.59,6.24,6.24,0,0,1,1.88-4.67,6.62,6.62,0,0,1,4.81-1.83,6.48,6.48,0,0,1,4.69,1.85A6.1,6.1,0,0,1,167.4,721,6.25,6.25,0,0,1,165.49,725.7ZM96,637H84.17v2.05H96ZM51.23,677a4.08,4.08,0,0,0-2.43-3.86,7.77,7.77,0,0,0-3.3-.57H41v17.05h5.77a7.29,7.29,0,0,0,3.25-.65,4.89,4.89,0,0,0,2-1.67,4.16,4.16,0,0,0,.67-2.33,4,4,0,0,0-1.1-2.83,5.28,5.28,0,0,0-3-1.54A3.71,3.71,0,0,0,51.23,677Zm-1.51,6.32a2.42,2.42,0,0,1,.46,1.43,2.53,2.53,0,0,1-.43,1.42,2.58,2.58,0,0,1-1.15,1,7.83,7.83,0,0,1-2.72.31h-2.4V682h2.28a8.17,8.17,0,0,1,2.66.32A2.72,2.72,0,0,1,49.73,683.32Zm-1.84-4.2a4.12,4.12,0,0,1-2.78.74H43.48v-5.13h2.1q3.12,0,3.13,2.45A2.48,2.48,0,0,1,47.88,679.12Zm-3.07,46.64a6.08,6.08,0,0,1-1.9-4.61,6.14,6.14,0,0,1,1.94-4.63,6.76,6.76,0,0,1,4.86-1.85,11.75,11.75,0,0,1,5.85,1.71v-2.62a15.37,15.37,0,0,0-6-1.4A9.11,9.11,0,0,0,43,714.88a8.32,8.32,0,0,0-2.66,6.26,8.59,8.59,0,0,0,1.16,4.36,8.45,8.45,0,0,0,3.15,3.16,9.56,9.56,0,0,0,4.85,1.15,12.74,12.74,0,0,0,6.2-1.46v-2.69a11,11,0,0,1-6.05,1.9A6.79,6.79,0,0,1,44.81,725.76ZM93.39,677H81.57v2.05H93.39Zm0,5.43H81.57v2.05H93.39ZM85.2,724.53H97v-2.05H85.2Zm43.52-82.33h.64a3.84,3.84,0,0,1,1.7.27,5.29,5.29,0,0,1,1.14.9,13.27,13.27,0,0,1,1.39,1.67l.82,1.33.76,1.25.48.67.15.21.74,1.12h2.91l-.9-1.22q-.54-.73-1.43-2.19a29.64,29.64,0,0,0-2.2-3.23,7.56,7.56,0,0,0-1.6-1.46,4.27,4.27,0,0,0,2.88-4.2,4.3,4.3,0,0,0-1.52-3.47,6.17,6.17,0,0,0-4.11-1.28h-4.27v17.05h2.44Zm0-7.56h.73a8.64,8.64,0,0,1,2.57.27,2.29,2.29,0,0,1,1.2.92,2.61,2.61,0,0,1,.43,1.46,2.78,2.78,0,0,1-.38,1.46,2.39,2.39,0,0,1-1.07,1,6.88,6.88,0,0,1-2.54.32h-.93ZM85.2,719.09H97V717H85.2ZM46.48,632.47l-7.32,17.15h2.51l2.13-5.05h7.28l2.27,5.05h2.5L48.2,632.47Zm-1.72,9.92,2.55-6.18,2.75,6.18Zm184.61,45.27a5.75,5.75,0,0,1-4.58-2.51v3.1a7.5,7.5,0,0,0,4.6,1.55,5,5,0,0,0,3.57-1.28,4.35,4.35,0,0,0,1.37-3.33q0-2.88-3.12-4.74l-1.86-1.1a7.14,7.14,0,0,1-1.82-1.4,2.18,2.18,0,0,1-.57-1.44,1.68,1.68,0,0,1,.77-1.42,3.28,3.28,0,0,1,2-.55,5.65,5.65,0,0,1,4,1.77v-2.77a6.87,6.87,0,0,0-3.92-1.2,5.23,5.23,0,0,0-3.63,1.26,4.19,4.19,0,0,0-1.4,3.27,4,4,0,0,0,.74,2.37,8.43,8.43,0,0,0,2.48,2.1l1.86,1.13q2.25,1.4,2.25,3a2,2,0,0,1-.76,1.6A2.88,2.88,0,0,1,229.38,687.66Zm121.18-54.06a12.14,12.14,0,0,0-5.51-1H339.3v17h5.4a23.8,23.8,0,0,0,3.08-.13,8.64,8.64,0,0,0,1.77-.51A8.39,8.39,0,0,0,355,641.1a8.54,8.54,0,0,0-1.2-4.42A7.88,7.88,0,0,0,350.55,633.61Zm.08,12a5.81,5.81,0,0,1-1.24.95,6.72,6.72,0,0,1-1.69.63,12.49,12.49,0,0,1-2.84.25h-3.13V634.74h3.05a17,17,0,0,1,2.55.13,6.58,6.58,0,0,1,1.68.55,5.94,5.94,0,0,1,1.57,1.06,5.85,5.85,0,0,1,1.86,4.48A6.32,6.32,0,0,1,350.64,645.59Zm48.13,80.17a6.08,6.08,0,0,1-1.9-4.61,6.14,6.14,0,0,1,1.93-4.63,6.76,6.76,0,0,1,4.86-1.85,11.75,11.75,0,0,1,5.85,1.71v-2.62a15.37,15.37,0,0,0-6-1.4,9.11,9.11,0,0,0-6.55,2.54,8.32,8.32,0,0,0-2.66,6.26,8.59,8.59,0,0,0,1.16,4.36,8.44,8.44,0,0,0,3.15,3.16,9.56,9.56,0,0,0,4.85,1.15,12.74,12.74,0,0,0,6.2-1.46v-2.69a11,11,0,0,1-6.05,1.9A6.79,6.79,0,0,1,398.77,725.76Zm-25-13.29-7.33,17.15h2.51l2.13-5.05h7.28l2.27,5.05h2.5l-7.65-17.15ZM372,722.39l2.55-6.18,2.75,6.18Zm-19.7,3.42-11.5-13.25h-2v17.05h2.29V716.48l11.4,13.13h2.1V712.56h-2.32Zm-19.52-45.15,7.4-8.09h-3.05l-7.18,7.8v-7.8h-2.44v17.05H330v-8.42l8.72,8.42H342Zm-29.23,5.1a6.08,6.08,0,0,1-1.9-4.61,6.14,6.14,0,0,1,1.94-4.63,6.76,6.76,0,0,1,4.86-1.85,11.75,11.75,0,0,1,5.85,1.71v-2.62a15.37,15.37,0,0,0-6-1.4,9.11,9.11,0,0,0-6.55,2.54,8.32,8.32,0,0,0-2.66,6.26,8.59,8.59,0,0,0,1.16,4.36,8.45,8.45,0,0,0,3.15,3.16,9.56,9.56,0,0,0,4.85,1.15,12.74,12.74,0,0,0,6.2-1.46v-2.69a11,11,0,0,1-6.05,1.9A6.79,6.79,0,0,1,303.6,685.76Zm19.7-40-11.5-13.25h-2v17.05h2.29V636.48l11.4,13.13h2.1V632.56h-2.32Zm213.36,68.93v-2.17h-9.09v17.05H530v-7.95h6.65V719.5H530v-4.76Zm-102,5.2h-9.58v-7.37H422.7v17.05h2.44v-7.42h9.58v7.42h2.44V712.56h-2.44Zm77,2.31a8.85,8.85,0,0,1-.32,2.84,3.53,3.53,0,0,1-1,1.44,5.37,5.37,0,0,1-3.54,1.13,5.81,5.81,0,0,1-2.65-.57,3.91,3.91,0,0,1-1.67-1.51,7.17,7.17,0,0,1-.55-3.34v-9.68H499.5v9.66a12,12,0,0,0,.28,3,6.24,6.24,0,0,0,.7,1.63,5.6,5.6,0,0,0,1,1.2,7.92,7.92,0,0,0,5.35,1.73,7.83,7.83,0,0,0,5.3-1.75,5.31,5.31,0,0,0,1-1.19,6.45,6.45,0,0,0,.71-1.67,11.54,11.54,0,0,0,.29-3v-9.68h-2.45Zm-33.09-9.78-7.33,17.15h2.51l2.13-5.05h7.28l2.27,5.05H488l-7.65-17.15Zm-1.72,9.92,2.55-6.18,2.75,6.18Zm-23.54-9.83h-2.44v17.05H461v-2.22h-7.68Zm-242.91,0H208v17.05h10.12v-2.22h-7.68Zm7.25-72.63h-9.58v-7.37h-2.44v17.05h2.44v-7.42h9.58v7.42h2.44V632.56h-2.44Zm-33.95,48.35.15.21.74,1.12h2.91l-.9-1.22q-.54-.73-1.43-2.19A29.64,29.64,0,0,0,183,683a7.56,7.56,0,0,0-1.6-1.46,4.27,4.27,0,0,0,2.88-4.2,4.3,4.3,0,0,0-1.52-3.47,6.17,6.17,0,0,0-4.11-1.28H174.4v17.05h2.44v-7.42h.64a3.84,3.84,0,0,1,1.7.27,5.29,5.29,0,0,1,1.14.9,13.27,13.27,0,0,1,1.39,1.67l.82,1.33.76,1.25Zm-3.44-8.58a6.88,6.88,0,0,1-2.54.32h-.93v-5.38h.73a8.64,8.64,0,0,1,2.57.27,2.29,2.29,0,0,1,1.2.92,2.61,2.61,0,0,1,.43,1.46,2.78,2.78,0,0,1-.38,1.46A2.39,2.39,0,0,1,180.32,679.7Zm55.4,32.76-7.32,17.15h2.51l2.13-5.05h7.28l2.27,5.05h2.5l-7.65-17.15ZM234,722.39l2.55-6.18,2.75,6.18Zm-40.2,3.82a29.64,29.64,0,0,0-2.2-3.23,7.56,7.56,0,0,0-1.6-1.46,4.27,4.27,0,0,0,2.88-4.2,4.3,4.3,0,0,0-1.52-3.47,6.17,6.17,0,0,0-4.11-1.28H183v17.05h2.44v-7.42h.64a3.84,3.84,0,0,1,1.7.27,5.29,5.29,0,0,1,1.14.9,13.27,13.27,0,0,1,1.39,1.67l.82,1.33.76,1.25.48.67.15.21.74,1.12h2.91l-.9-1.22Q194.69,727.66,193.8,726.21Zm-4.9-6.51a6.88,6.88,0,0,1-2.54.32h-.93v-5.38h.73a8.64,8.64,0,0,1,2.57.27,2.29,2.29,0,0,1,1.2.92,2.61,2.61,0,0,1,.43,1.46,2.78,2.78,0,0,1-.38,1.46A2.39,2.39,0,0,1,188.9,719.7Zm52.6-79.11a3.71,3.71,0,0,0,2.6-3.6,4.08,4.08,0,0,0-2.43-3.86,7.77,7.77,0,0,0-3.3-.57h-4.47v17.05h5.77a7.29,7.29,0,0,0,3.25-.65,4.89,4.89,0,0,0,2-1.67,4.16,4.16,0,0,0,.67-2.33,4,4,0,0,0-1.1-2.83A5.28,5.28,0,0,0,241.5,640.59Zm-5.15-5.86h2.1q3.12,0,3.13,2.45a2.48,2.48,0,0,1-.82,1.93,4.12,4.12,0,0,1-2.78.74h-1.62Zm6.27,11.43a2.58,2.58,0,0,1-1.15,1,7.83,7.83,0,0,1-2.72.31h-2.4V642h2.28a8.17,8.17,0,0,1,2.66.32,2.72,2.72,0,0,1,1.3,1,2.42,2.42,0,0,1,.46,1.43A2.53,2.53,0,0,1,242.62,646.16Zm-29.37,43.46v-2.17H202.36l10.89-14.91h-14.7v2.17h10.21l-10.91,14.9Zm93.7,36.78a1.39,1.39,0,0,0-1.06.48,1.62,1.62,0,0,0-.45,1.14,1.57,1.57,0,0,0,1.29,1.6,4.33,4.33,0,0,1-.26,1.45,3.17,3.17,0,0,1-.77,1.06v.45a4.19,4.19,0,0,0,2.15-1.45,3.82,3.82,0,0,0,.78-2.38,2.81,2.81,0,0,0-.48-1.68A1.45,1.45,0,0,0,306.95,726.39Zm-22.28,3.22h2.44v-7.95h6.65V719.5h-6.65v-4.76h6.65v-2.17h-9.09Zm3.86-97.15-7.32,17.15h2.51l2.13-5.05h7.28l2.27,5.05h2.5l-7.65-17.15Zm-1.72,9.92,2.55-6.18,2.75,6.18Zm-1.35,44.49a6.45,6.45,0,0,0,.71-1.67,11.52,11.52,0,0,0,.29-3v-9.68H284v9.68a8.86,8.86,0,0,1-.32,2.84,3.52,3.52,0,0,1-1,1.44,5.36,5.36,0,0,1-3.54,1.13,5.81,5.81,0,0,1-2.65-.57,3.91,3.91,0,0,1-1.67-1.51,7.18,7.18,0,0,1-.55-3.34v-9.68h-2.45v9.66a12,12,0,0,0,.27,3,6.24,6.24,0,0,0,.7,1.63,5.57,5.57,0,0,0,1,1.2,7.91,7.91,0,0,0,5.35,1.73,7.83,7.83,0,0,0,5.3-1.75A5.32,5.32,0,0,0,285.46,686.88Zm-25.63-14.34H245.58v2.17h5.85v14.9h2.45v-14.9h5.94Zm9,49.71a8.86,8.86,0,0,1-.32,2.84,3.52,3.52,0,0,1-1,1.44,5.36,5.36,0,0,1-3.54,1.13,5.81,5.81,0,0,1-2.65-.57,3.91,3.91,0,0,1-1.67-1.51,7.18,7.18,0,0,1-.55-3.34v-9.68h-2.45v9.66a12,12,0,0,0,.27,3,6.24,6.24,0,0,0,.7,1.63,5.57,5.57,0,0,0,1,1.2,7.91,7.91,0,0,0,5.35,1.73,7.83,7.83,0,0,0,5.3-1.75,5.32,5.32,0,0,0,1-1.19,6.45,6.45,0,0,0,.71-1.67,11.52,11.52,0,0,0,.29-3v-9.68h-2.45Z" style="fill:#666"/><text transform="translate(439.9 324.51)" style="isolation:isolate;font-size:20px;fill:#666;font-family:GillSans, Gill Sans">C</text><text transform="translate(371.71 324.51)" style="isolation:isolate;font-size:20px;fill:#666;font-family:GillSans, Gill Sans">B</text><text transform="translate(301.28 324.51)" style="isolation:isolate;font-size:20px;fill:#666;font-family:GillSans, Gill Sans">A</text></g><g id="Animation5"><path id="Tropfen_Herzst端ck" data-name="Tropfen Herzst端ck" d="M293.51,437.72c-1.44,2.69-3.67,6.28-3.67,8.31a3.67,3.67,0,1,0,7.35,0C297.19,444,295,440.48,293.51,437.72Z" style="fill:none;stroke:#666;stroke-linecap:round;stroke-linejoin:round;stroke-dasharray:1.159999966621399,2.319999933242798"/><path id="Tropfen_C" data-name="Tropfen C" d="M446.61,351.88c-1.44,2.69-3.67,6.28-3.67,8.31a3.67,3.67,0,0,0,7.35,0C450.28,358.17,448.11,354.65,446.61,351.88Z" style="fill:none;stroke:#666;stroke-linecap:round;stroke-linejoin:round;stroke-dasharray:1.159999966621399,2.319999933242798"/><path id="Tropfen_B" data-name="Tropfen B" d="M377,351.88c-1.44,2.69-3.67,6.28-3.67,8.31a3.67,3.67,0,0,0,7.35,0C380.69,358.17,378.52,354.65,377,351.88Z" style="fill:none;stroke:#666;stroke-linecap:round;stroke-linejoin:round;stroke-dasharray:1.159999966621399,2.319999933242798"/><path id="Tropfen_A" data-name="Tropfen A" d="M307.43,351.88c-1.44,2.69-3.67,6.28-3.67,8.31a3.67,3.67,0,0,0,7.35,0C311.1,358.17,308.94,354.65,307.43,351.88Z" style="fill:none;stroke:#666;stroke-linecap:round;stroke-linejoin:round;stroke-dasharray:1.159999966621399,2.319999933242798"/></g><g id="Animation4"><circle id="Blase_2._Kessel_4" data-name="Blase 2. Kessel 4" cx="573.69" cy="443.12" r="3.32" style="fill:none;stroke:#666;stroke-linecap:round;stroke-linejoin:round;stroke-dasharray:1.159999966621399,2.319999933242798"/><circle id="Blase_2._Kessel_3" data-name="Blase 2. Kessel 3" cx="579" cy="435.31" r="2" style="fill:none;stroke:#666;stroke-linecap:round;stroke-linejoin:round;stroke-dasharray:1.159999966621399,2.319999933242798"/><circle id="Blase_2._Kessel_2" data-name="Blase 2. Kessel 2" cx="569.44" cy="429.06" r="2.63" style="fill:none;stroke:#666;stroke-linecap:round;stroke-linejoin:round;stroke-dasharray:1.159999966621399,2.319999933242798"/><circle id="Blase_2._Kessel_1" data-name="Blase 2. Kessel 1" cx="582.19" cy="424.44" r="3.32" style="fill:none;stroke:#666;stroke-linecap:round;stroke-linejoin:round;stroke-dasharray:1.159999966621399,2.319999933242798"/></g><g id="Animation3"><circle id="Blase_1._Kessel_4" data-name="Blase 1. Kessel 4" cx="106.05" cy="443.12" r="3.32" style="fill:none;stroke:#666;stroke-linecap:round;stroke-linejoin:round;stroke-dasharray:1.159999966621399,2.319999933242798"/><circle id="Blase_1._Kessel_3" data-name="Blase 1. Kessel 3" cx="111.37" cy="435.31" r="2" style="fill:none;stroke:#666;stroke-linecap:round;stroke-linejoin:round;stroke-dasharray:1.159999966621399,2.319999933242798"/><circle id="Blase_1._kessel_2" data-name="Blase 1. kessel 2" cx="101.8" cy="429.06" r="2.63" style="fill:none;stroke:#666;stroke-linecap:round;stroke-linejoin:round;stroke-dasharray:1.159999966621399,2.319999933242798"/><circle id="Blase_1._Kessel_1" data-name="Blase 1. Kessel 1" cx="114.55" cy="424.44" r="3.32" style="fill:none;stroke:#666;stroke-linecap:round;stroke-linejoin:round;stroke-dasharray:1.159999966621399,2.319999933242798"/></g><g id="Animation2"><polygon id="Animation2-2" data-name="Animation2" points="580.48 115.28 575.75 107.39 571.01 115.28 573 115.28 573 119.35 578.49 119.35 578.49 115.28 580.48 115.28" style="fill:none;stroke:#666;stroke-linecap:round;stroke-linejoin:round"/></g><g id="Animation1"><polygon id="Animation1-2" data-name="Animation1" points="219.81 115.28 215.08 107.39 210.34 115.28 212.34 115.28 212.34 119.35 217.82 119.35 217.82 115.28 219.81 115.28" style="fill:none;stroke:#666;stroke-linecap:round;stroke-linejoin:round"/></g></svg>