<svg id="Ebene_1" data-name="Ebene 1" xmlns="http://www.w3.org/2000/svg" viewBox="0 0 500 386.3"><title>wie_abbildung_glasballon_illustration_mobile</title><g id="Illustration"><path id="Illustration_Inhalt_Ballon" data-name="Illustration Inhalt Ballon" d="M179.42,358.83c-4.88-12.12-37.77-115.33-37.77-146.58C144,198.92,166,194.08,245.22,191.48c6.27-.21,8.59-.26,16.23,0,75.54,2.6,101.21,7.44,103.57,20.77,0,31.25-32.89,134.46-37.77,146.58s-46.41,17-73.91,17-69-4.85-73.91-17" style="fill:#e0e0e0"/><path id="Illustration_Ballon" data-name="Illustration Ballon" d="M365.41,209v-.07a4.14,4.14,0,0,0-.6-2.08c-6.77-22.22-28-35.25-46.87-46.79-9.06-5.55-17.61-10.79-23.35-16.42-1.58-1.55-3-3.09-4.39-4.61l3-3a5.32,5.32,0,0,0,.06-7.4l-3.09-3.19.81-.81a5.3,5.3,0,0,0,0-7.39l-14.33-14.83-.12-.08V97.09a1,1,0,0,0-.06-.31h0a4.21,4.21,0,0,1,.14-.43c.59-1.47,2-2.59,4.19-3.35a11,11,0,0,0,7.36-10.41V72.92a4.45,4.45,0,0,0-4.44-4.44H222.81a4.37,4.37,0,0,0-4.37,4.37V82.91a10.08,10.08,0,0,0,7,9.78A6.72,6.72,0,0,1,229.85,96a4.77,4.77,0,0,1,.25.68,1,1,0,0,0-.11.44v5.25l-.09.07-18,18.86a6.25,6.25,0,0,0,.1,8.7l6.5,6.53a87.67,87.67,0,0,1-6.54,7c-5.81,5.69-14.44,10.91-23.58,16.44-19,11.52-40.65,24.59-47.38,47.58-7,24.1,37.84,150.88,38.3,152.12,1.4,3.76,10.74,16.1,71.8,17.46a1,1,0,0,0,.46.11H255a.9.9,0,0,0,.32-.06c20.19-.44,66.89-3,72-17.48C327.65,358.5,370.59,231.45,365.41,209ZM226,90.77a8.07,8.07,0,0,1-5.56-7.84V72.85a2.37,2.37,0,0,1,2.37-2.37h60.93a2.44,2.44,0,0,1,2.44,2.44h0v9.63a9,9,0,0,1-6,8.52c-2.72.94-4.58,2.49-5.39,4.5a4.52,4.52,0,0,0-.17.52H232a6.77,6.77,0,0,0-.38-1A8.68,8.68,0,0,0,226,90.77Zm48.53,7.32v4H232v-4Zm-61.12,30.53a4.26,4.26,0,0,1-.07-6L231,104.07h44.5l14,14.57a3.3,3.3,0,0,1,0,4.6l-.78.78-2.37-2.45a1,1,0,1,0-1.44,1.39l6.85,7.07a3.31,3.31,0,0,1,0,4.6l-15.11,15.09a3.5,3.5,0,0,1-4.95,0h0l-18.44-18.46a25.16,25.16,0,0,1-7.41-17.9,1,1,0,0,0-2,0,27.14,27.14,0,0,0,7.8,19.08c-3.25,8.22-8.91,14.88-12,18.13a3,3,0,0,1-4.24.12Zm-24,33.12c9.24-5.59,18-10.87,23.94-16.72a89.72,89.72,0,0,0,6.56-7l14,14,.12.12a5,5,0,0,0,7.07-.19h0a62,62,0,0,0,12.1-18l17.13,17.15a5.51,5.51,0,0,0,7.77,0l10.72-10.7c1.35,1.52,2.83,3.07,4.41,4.62,5.9,5.79,14.55,11.09,23.7,16.69,17.44,10.68,37,22.68,44.71,42-4.31-2.81-13-5.85-29.58-8.52-21-3.4-49-5.27-78.72-5.27s-57.68,1.87-78.72,5.27c-17.64,2.85-26.36,6.11-30.36,9.07,7.68-19.86,27.52-31.86,45.14-42.52ZM253.31,192c61.68,0,104.4,7.69,109.57,15.4.18.59.35,1.18.51,1.78-.76,8.13-44.8,16.74-110.08,16.74-65.86,0-110.1-8.77-110.1-17S187.45,192,253.31,192Zm0,183c-43.09,0-72-8.77-72-17s29-17,72-17,72,8.77,72,17-28.91,16.93-72,16.93Zm73.34-19.69C321.5,345,286.87,339,253.29,339c-33.75,0-68.56,6.1-73.44,16.45-8.19-23-39.58-117.08-37.55-143.72,2.69,3.4,11,7.42,32.27,10.86,21,3.4,49,5.27,78.72,5.27S311,226,332,222.6c20.17-3.26,28.68-7,31.81-10.33C365.2,236.69,335.46,329.43,326.65,355.31ZM232.65,87V76.61a1,1,0,0,0-2,0V87a1,1,0,1,0,2,0Zm3,4a1,1,0,0,0,1-1V78.3a1,1,0,0,0-2,0V90A1,1,0,0,0,235.65,91ZM282,120.14a1,1,0,0,0,1.41-1.41l-7.23-7.23a1,1,0,0,0-1.41,1.41Zm1.12,9.11a1,1,0,1,0,1.52-1.3l-.11-.11-11.1-11.1a1,1,0,0,0-1.41,1.41Zm-51.2-22-8.06,8.84a1,1,0,0,0,1.48,1.35h0l8.06-8.84a1,1,0,0,0-1.48-1.35Zm-63.5,158.61a1,1,0,0,0-1.92.57h0L188,338.22a1,1,0,0,0,1.92-.57h0Zm4.34-18.15a1,1,0,1,0-1.93.53h0L190.47,320a1,1,0,1,0,2-.49h0Z" style="fill:#666"/></g><g id="Animation3"><polygon id="Illustration_Pfeil" data-name="Illustration Pfeil" points="267.04 23.93 253.27 1 239.49 23.93 245.29 23.93 245.29 35.79 261.24 35.79 261.24 23.93 267.04 23.93" style="fill:none;stroke:#666;stroke-linecap:round;stroke-linejoin:round;stroke-width:2px"/></g><g id="Animation2"><line id="Illustration_Dunst_oben" data-name="Illustration Dunst oben" x1="253.31" y1="45.05" x2="253.31" y2="61.68" style="fill:none;stroke:#666;stroke-linecap:round;stroke-linejoin:round;stroke-width:2px"/></g><g id="Animation1"><path id="Illustration_Dunst_Flasche" data-name="Illustration Dunst Flasche" d="M227.91,215.35a252.34,252.34,0,0,0,25.74,1.22c8.81,0,17.06-.39,24.13-1.07,13.91-1.33,23.24-3.79,23.24-6.59,0-4-18.47-7.2-42.2-7.61-4-.1-5.16-2.38-5.17-5.25V157.54" style="fill:none;stroke:#666;stroke-linecap:round;stroke-linejoin:round;stroke-width:2px"/></g></svg>