<svg id="Ebene_1" data-name="Ebene 1" xmlns="http://www.w3.org/2000/svg" viewBox="0 0 1140 850"><title>wie_abbildung_brennvorgang_text</title><g id="toggle_61" data-name="toggle 61"><path id="Nummer_2_Kreis" data-name="Nummer 2 Kreis" d="M520.8,674.8a10,10,0,1,0-10-10,10,10,0,0,0,10,10" style="fill:#336f5f"/><text transform="translate(517.31 669.67)" style="isolation:isolate;font-size:14px;fill:#fff;font-family:GillSans, Gill Sans">6</text></g><g id="toggle_51" data-name="toggle 51"><path id="Nummer_2_Kreis-2" data-name="Nummer 2 Kreis-2" d="M802.7,171.1a10,10,0,1,0-10-10,10,10,0,0,0,10,10" style="fill:#336f5f"/><text transform="translate(799.24 165.92)" style="isolation:isolate;font-size:14px;fill:#fff;font-family:GillSans, Gill Sans">5</text></g><g id="toggle_41" data-name="toggle 41"><path id="Nummer_2_Kreis-3" data-name="Nummer 2 Kreis-3" d="M851.1,512.2a10,10,0,1,0-10-10,10,10,0,0,0,10,10" style="fill:#336f5f"/><text transform="translate(847.64 507)" style="isolation:isolate;font-size:14px;fill:#fff;font-family:GillSans, Gill Sans">4</text></g><g id="toggle_31" data-name="toggle 31"><path id="Nummer_2_Kreis-4" data-name="Nummer 2 Kreis-4" d="M523.6,261a10,10,0,1,0-10-10,10,10,0,0,0,10,10" style="fill:#336f5f"/><text transform="translate(520.14 255.86)" style="isolation:isolate;font-size:14px;fill:#fff;font-family:GillSans, Gill Sans">3</text></g><g id="toggle_21" data-name="toggle 21"><path id="Nummer_2_Kreis-5" data-name="Nummer 2 Kreis-5" d="M442.5,176.8a10,10,0,1,0-10-10,10,10,0,0,0,10,10" style="fill:#336f5f"/><text transform="translate(438.97 171.68)" style="isolation:isolate;font-size:14px;fill:#fff;font-family:GillSans, Gill Sans">2</text></g><g id="toggle_11" data-name="toggle 11"><path id="Nummer_2_Kreis-6" data-name="Nummer 2 Kreis-6" d="M291.1,512.2a10,10,0,1,0-10-10,10,10,0,0,0,10,10" style="fill:#336f5f"/><text transform="translate(287.64 507)" style="isolation:isolate;font-size:14px;fill:#fff;font-family:GillSans, Gill Sans">1</text></g><g id="text_6" data-name="text 6"><g style="isolation:isolate"><text transform="translate(127.23 732.44)" style="isolation:isolate;font-size:15px;fill:#666;font-family:Times-Roman, Times;letter-spacing:0.019010416666666665em">Das fertig gebrannte Herzstück – bereit </text><text transform="translate(148.63 754.44)" style="isolation:isolate;font-size:15px;fill:#666;font-family:Times-Roman, Times;letter-spacing:0.019010416666666665em">für die Einlagerung zur Reifung.</text></g></g><g id="toggle_6" data-name="toggle 6"><path id="Nummer_6_Kreis" data-name="Nummer 6 Kreis" d="M250.72,705.59a10,10,0,1,0-10-10,10,10,0,0,0,10,10" style="fill:#336f5f"/><text transform="translate(247.22 700.43)" style="isolation:isolate;font-size:14px;fill:#f6f6f6;font-family:GillSans, Gill Sans">6</text></g><g id="text_5" data-name="text 5"><g style="isolation:isolate"><text transform="translate(918.51 156.44)" style="isolation:isolate;font-size:15px;fill:#666;font-family:Times-Roman, Times;letter-spacing:0.019010416666666665em">Beim Feinbrennen steigt </text><text transform="translate(929.71 178.44)" style="isolation:isolate;font-size:15px;fill:#666;font-family:Times-Roman, Times;letter-spacing:0.019010416666666665em">alkoholischer Dampf </text><text transform="translate(908.64 200.44)" style="isolation:isolate;font-size:15px;fill:#666;font-family:Times-Roman, Times;letter-spacing:0.019010416666666665em">wiederum in den Kühlturm.</text></g></g><g id="toggle_5" data-name="toggle 5"><path id="Nummer_5_Kreis" data-name="Nummer 5 Kreis" d="M995.38,129.59a10,10,0,1,0-10-10,10,10,0,0,0,10,10" style="fill:#336f5f"/><text transform="translate(991.88 124.43)" style="isolation:isolate;font-size:14px;fill:#f6f6f6;font-family:GillSans, Gill Sans">5</text></g><g id="text_4" data-name="text 4"><g style="isolation:isolate"><text transform="translate(940.89 541.11)" style="isolation:isolate;font-size:15px;fill:#666;font-family:Times-Roman, Times;letter-spacing:0.019010416666666665em">2. Brennvo</text><text transform="translate(1010.4 541.11)" style="isolation:isolate;font-size:15px;fill:#666;font-family:Times-Roman, Times;letter-spacing:0.0010091145833333334em">r</text><text transform="translate(1015.41 541.11)" style="isolation:isolate;font-size:15px;fill:#666;font-family:Times-Roman, Times;letter-spacing:0.019010416666666665em">gang: </text><text transform="translate(944.03 563.11)" style="isolation:isolate;font-size:15px;fill:#666;font-family:Times-Roman, Times;letter-spacing:0.019010416666666665em">Feinbrennen des </text><text transform="translate(941.4 585.11)" style="isolation:isolate;font-size:15px;fill:#666;font-family:Times-Roman, Times;letter-spacing:0.019010416666666665em">„Herzstücks“ aus </text><text transform="translate(943.96 607.11)" style="isolation:isolate;font-size:15px;fill:#666;font-family:Times-Roman, Times;letter-spacing:0.019010416666666665em">dem Rauhbrand.</text></g></g><g id="toggle_4" data-name="toggle 4"><path id="Nummer_4_Kreis" data-name="Nummer 4 Kreis" d="M995.38,514.26a10,10,0,1,0-10-10,10,10,0,0,0,10,10" style="fill:#336f5f"/><text transform="translate(991.88 509.1)" style="isolation:isolate;font-size:14px;fill:#f6f6f6;font-family:GillSans, Gill Sans">4</text></g><g id="text_3" data-name="text 3"><g style="isolation:isolate"><text transform="translate(339.6 75.78)" style="isolation:isolate;font-size:15px;fill:#666;font-family:Times-Roman, Times;letter-spacing:0.019010416666666665em">Im Kühlturm wird alkoholischer Dampf in flüssigen</text><text transform="translate(666.84 75.78)" style="isolation:isolate;font-size:15px;fill:#666;font-family:Times-Roman, Times;letter-spacing:-0.034993489583333336em"> </text><text transform="translate(670.06 75.78)" style="isolation:isolate;font-size:15px;fill:#666;font-family:Times-Roman, Times;letter-spacing:0.019010416666666665em">Alkohol verwandelt.</text></g></g><g id="toggle_3" data-name="toggle 3"><path id="Nummer_3_Kreis" data-name="Nummer 3 Kreis" d="M569,48.92a10,10,0,1,0-10-10,10,10,0,0,0,10,10" style="fill:#336f5f"/><text transform="translate(565.55 43.76)" style="isolation:isolate;font-size:14px;fill:#f6f6f6;font-family:GillSans, Gill Sans">3</text></g><g id="text_2" data-name="text 2"><g style="isolation:isolate"><text transform="translate(27.26 172.69)" style="isolation:isolate;font-size:15px;fill:#666;font-family:Times-Roman, Times;letter-spacing:0.019010416666666665em">Aus der Maische steigt alkoholischer </text><text transform="translate(66.32 194.69)" style="isolation:isolate;font-size:15px;fill:#666;font-family:Times-Roman, Times;letter-spacing:0.019010416666666665em">Dampf in den Kühlturm.</text></g></g><g id="toggle_2" data-name="toggle 2"><path id="Nummer_2_Kreis-2-2" data-name="Nummer 2 Kreis-2-2" d="M143.47,145.84a10,10,0,1,0-10-10,10,10,0,0,0,10,10" style="fill:#336f5f"/><text transform="translate(139.97 140.68)" style="isolation:isolate;font-size:14px;fill:#f6f6f6;font-family:GillSans, Gill Sans">2</text></g><g id="text_1" data-name="text 1"><g style="isolation:isolate"><text transform="translate(88.97 504.69)" style="isolation:isolate;font-size:15px;fill:#666;font-family:Times-Roman, Times;letter-spacing:0.019010416666666665em">1. Brennvo</text><text transform="translate(158.48 504.69)" style="isolation:isolate;font-size:15px;fill:#666;font-family:Times-Roman, Times;letter-spacing:0.0010091145833333334em">r</text><text transform="translate(163.49 504.69)" style="isolation:isolate;font-size:15px;fill:#666;font-family:Times-Roman, Times;letter-spacing:0.019010416666666665em">gang:</text><text transform="translate(53.61 526.69)" style="isolation:isolate;font-size:15px;fill:#666;font-family:Times-Roman, Times;letter-spacing:0.019010416666666665em">Aus der ve</text><text transform="translate(121.44 526.69)" style="isolation:isolate;font-size:15px;fill:#666;font-family:Times-Roman, Times;letter-spacing:0.0010091145833333334em">r</text><text transform="translate(126.46 526.69)" style="isolation:isolate;font-size:15px;fill:#666;font-family:Times-Roman, Times;letter-spacing:0.019010416666666665em">gorenen Maische </text><text transform="translate(55.67 548.69)" style="isolation:isolate;font-size:15px;fill:#666;font-family:Times-Roman, Times;letter-spacing:0.019010416666666665em">destillieren wir den</text><text transform="translate(177.17 548.69)" style="isolation:isolate;font-size:15px;fill:#666;font-family:Times-Roman, Times;letter-spacing:-0.034993489583333336em"> </text><text transform="translate(180.38 548.69)" style="isolation:isolate;font-size:15px;fill:#666;font-family:Times-Roman, Times;letter-spacing:0.019010416666666665em">Alkohol </text><text transform="translate(98.02 570.69)" style="isolation:isolate;font-size:15px;fill:#666;font-family:Times-Roman, Times;letter-spacing:0.019010416666666665em">zu Rauhbrand.</text></g></g><g id="toggle_1" data-name="toggle 1"><path id="Nummer_1_Kreis" data-name="Nummer 1 Kreis" d="M143.47,477.84a10,10,0,1,0-10-10,10,10,0,0,0,10,10" style="fill:#336f5f"/><text transform="translate(139.97 472.68)" style="isolation:isolate;font-size:14px;fill:#f6f6f6;font-family:GillSans, Gill Sans">1</text></g></svg>