<svg id="Ebene_1" data-name="Ebene 1" xmlns="http://www.w3.org/2000/svg" viewBox="0 0 934.59 386.3"><title>wie_abbildung_glasballon_text</title><g id="toggle_4" data-name="toggle 4"><path id="Kreis_Zierstöpsel" data-name="Kreis Zierstöpsel" d="M446.5,309.78a8,8,0,1,0-8-8,8,8,0,0,0,8,8" style="fill:#fff;stroke:#666;stroke-miterlimit:10"/><polygon id="Plus_Zierstöpsel" data-name="Plus Zierstöpsel" points="447 301.28 447 297.08 446 297.08 446 301.28 441.8 301.28 441.8 302.28 446 302.28 446 306.58 447 306.58 447 302.28 451.3 302.28 451.3 301.28 447 301.28" style="fill:#666"/></g><g id="toggle_3" data-name="toggle 3"><path id="Kreis_Zierstöpsel-2" data-name="Kreis Zierstöpsel-2" d="M541.83,216.45a8,8,0,1,0-8-8,8,8,0,0,0,8,8" style="fill:#fff;stroke:#666;stroke-miterlimit:10"/><polygon id="Plus_Zierstöpsel-2" data-name="Plus Zierstöpsel-2" points="542.33 207.95 542.33 203.75 541.33 203.75 541.33 207.95 537.13 207.95 537.13 208.95 541.33 208.95 541.33 213.25 542.33 213.25 542.33 208.95 546.63 208.95 546.63 207.95 542.33 207.95" style="fill:#666"/></g><g id="toggle_2" data-name="toggle 2"><path id="Kreis_Zierstöpsel-3" data-name="Kreis Zierstöpsel-3" d="M495.5,78.11a8,8,0,1,0-8-8,8,8,0,0,0,8,8" style="fill:#fff;stroke:#666;stroke-miterlimit:10"/><polygon id="Plus_Zierstöpsel-3" data-name="Plus Zierstöpsel-3" points="496 69.61 496 65.41 495 65.41 495 69.61 490.8 69.61 490.8 70.61 495 70.61 495 74.91 496 74.91 496 70.61 500.3 70.61 500.3 69.61 496 69.61" style="fill:#666"/></g><g id="toggle_1" data-name="toggle 1"><path id="Kreis_Zierstöpsel-4" data-name="Kreis Zierstöpsel-4" d="M463.14,44.29a8,8,0,1,0-8-8,8,8,0,0,0,8,8" style="fill:#fff;stroke:#666;stroke-miterlimit:10"/><polygon id="Plus_Zierstöpsel-4" data-name="Plus Zierstöpsel-4" points="463.64 35.79 463.64 31.59 462.64 31.59 462.64 35.79 458.44 35.79 458.44 36.79 462.64 36.79 462.64 41.09 463.64 41.09 463.64 36.79 467.94 36.79 467.94 35.79 463.64 35.79" style="fill:#666"/></g></svg>