<svg id="Ebene_1" data-name="Ebene 1" xmlns="http://www.w3.org/2000/svg" viewBox="0 0 686 754.7"><title>wie_abbildung_brennvorgang_Illustration_mobile_overlay_1</title><g id="toggle_6" data-name="toggle 6"><path id="Nummer_2_Kreis" data-name="Nummer 2 Kreis" d="M294.2,565.2a19.8,19.8,0,1,0-19.8-19.8,19.78,19.78,0,0,0,19.8,19.8h0" style="fill:#336f5f"/><text transform="translate(287.29 554.94)" style="isolation:isolate;font-size:27.779499053955078px;fill:#fff;font-family:Times-Roman, Times">6</text></g><g id="toggle_5" data-name="toggle 5"><path id="Nummer_2_Kreis-2" data-name="Nummer 2 Kreis-2" d="M595.7,95.5a19.8,19.8,0,1,0-19.8-19.8,19.78,19.78,0,0,0,19.8,19.8h0" style="fill:#336f5f"/><text transform="translate(588.78 85.25)" style="isolation:isolate;font-size:27.779499053955078px;fill:#fff;font-family:Times-Roman, Times">5</text></g><g id="toggle_4" data-name="toggle 4"><path id="Nummer_2_Kreis-3" data-name="Nummer 2 Kreis-3" d="M639.1,443.6a19.8,19.8,0,1,0-19.8-19.8,19.78,19.78,0,0,0,19.8,19.8h0" style="fill:#336f5f"/><text transform="translate(631.62 433.33)" style="isolation:isolate;font-size:27.779499053955078px;fill:#fff;font-family:Times-Roman, Times">4</text></g><g id="toggle_3" data-name="toggle 3"><path id="Nummer_2_Kreis-4" data-name="Nummer 2 Kreis-4" d="M312.5,185.4a19.8,19.8,0,1,0-19.8-19.8h0a19.72,19.72,0,0,0,19.8,19.8" style="fill:#336f5f"/><text transform="translate(305.54 175.19)" style="isolation:isolate;font-size:27.779499053955078px;fill:#fff;font-family:Times-Roman, Times">3</text></g><g id="toggle_2" data-name="toggle 2"><path id="Nummer_2_Kreis-5" data-name="Nummer 2 Kreis-5" d="M196,95.5a19.8,19.8,0,1,0-19.8-19.8h0A19.78,19.78,0,0,0,196,95.5" style="fill:#336f5f"/><text transform="translate(189.03 85.24)" style="isolation:isolate;font-size:27.779499053955078px;fill:#fff;font-family:Times-Roman, Times">2</text></g><g id="toggle_1" data-name="toggle 1"><path id="Nummer_2_Kreis-6" data-name="Nummer 2 Kreis-6" d="M77.3,517.9a19.8,19.8,0,1,0-19.8-19.8h0a19.85,19.85,0,0,0,19.8,19.8" style="fill:#336f5f"/><text transform="translate(70.38 507.66)" style="isolation:isolate;font-size:27.779499053955078px;fill:#fff;font-family:Times-Roman, Times">1</text></g></svg>