<svg id="Ebene_1" data-name="Ebene 1" xmlns="http://www.w3.org/2000/svg" viewBox="0 0 500 500"><title>wie_abbildung_gaerung_illustration_mobile</title><g id="Illustration"><path id="Illustration_Inhalt_Gärbehälter" data-name="Illustration Inhalt Gärbehälter" d="M338,327.55v-.92a7.83,7.83,0,0,0-4.32-7v-129c0-3.69-37.47-6.69-83.68-6.69s-83.68,3-83.68,6.69v129a7.83,7.83,0,0,0-4.32,7v.92a7.84,7.84,0,0,0,7.83,7.85h0a7.84,7.84,0,0,0-7.83,7.85h0v.92a7.84,7.84,0,0,0,6.34,7.7A13.41,13.41,0,0,0,163,362.44c0,19.64,39,35.56,87,35.56s87-15.92,87-35.56c0-7.06-4.25-9.88-5.48-10.55a7.84,7.84,0,0,0,6.49-7.72v-.92a7.84,7.84,0,0,0-7.83-7.85h0A7.84,7.84,0,0,0,338,327.55Z" style="fill:#e0e0e0"/><path id="Illustration_Gärbehälter" data-name="Illustration Gärbehälter" d="M344.1,461.37l-16.81-80.89c7.31-5.4,11.21-11.54,11.21-18a13,13,0,0,0-4.25-10.18,8.87,8.87,0,0,0,5.26-8.09v-.93a8.86,8.86,0,0,0-4.79-7.86,8.86,8.86,0,0,0,4.79-7.86v-.93a8.86,8.86,0,0,0-4.36-7.62.94.94,0,0,0,0-.11V178.72a8.86,8.86,0,0,0,4.34-7.61v-.93a8.86,8.86,0,0,0-4.79-7.86,8.86,8.86,0,0,0,4.79-7.86v-.93a8.87,8.87,0,0,0-5.93-8.35,14.57,14.57,0,0,0,4.92-10.67c0-15.54-23.6-29.39-58.77-34.51V95a4,4,0,0,0-4-3.95H259V84.32h4.24a5,5,0,0,0,5-5V77.16a2.68,2.68,0,0,0-2.68-2.68h-5.74V42.74a1,1,0,0,0-1-1H241.55a1,1,0,0,0-1,1V74.48h-5.76a2.68,2.68,0,0,0-2.68,2.68v2.16a5,5,0,0,0,5,5h4.27V91H224.53a4,4,0,0,0-3.88,4v5c-35.19,5.13-58.77,18.94-58.77,34.51,0,6.1,3,9.28,4.86,10.7a8.87,8.87,0,0,0-5.87,8.33v.93a8.86,8.86,0,0,0,4.79,7.86,8.86,8.86,0,0,0-4.79,7.86v.93a8.86,8.86,0,0,0,4.33,7.6V318.93a.94.94,0,0,0,0,.11,8.86,8.86,0,0,0-4.35,7.61v.93a8.86,8.86,0,0,0,4.79,7.86,8.86,8.86,0,0,0-4.79,7.86v.93a8.87,8.87,0,0,0,5.35,8.13,14.3,14.3,0,0,0-4.34,10.14c0,6.67,4.2,13,12,18.57l-16.67,80.28a4.06,4.06,0,0,0,4,4.88h5.27a11.06,11.06,0,0,0,10.71-8.73l.36-1.75,54.68-6.34a19,19,0,0,0,17.88,12.67h0A19,19,0,0,0,268,449.42l55.73,6.46.34,1.63a11.05,11.05,0,0,0,10.74,8.73h5.25a4.06,4.06,0,0,0,4.06-4.06A4.15,4.15,0,0,0,344.1,461.37ZM242.55,43.74h15.27V74.48H242.55Zm-5.44,38.58a3,3,0,0,1-3-3V77.16a.68.68,0,0,1,.68-.68h30.77a.68.68,0,0,1,.68.68v2.16a3,3,0,0,1-3,3Zm19.89,2V91H243.38V84.32ZM222.65,95a2,2,0,0,1,1.94-2h51.18a2,2,0,0,1,2,2v8H222.65Zm-58.77,39.5c0-14.49,22.77-27.48,56.77-32.49v2a1,1,0,0,0,1,1h57.08a1,1,0,0,0,1-1v-2c34,5,56.77,18,56.77,32.47a12.56,12.56,0,0,1-5.5,10.21H169.52a1,1,0,0,0-.41-.36c-.21-.1-5.23-2.33-5.23-9.83Zm-1,20v-.93a6.87,6.87,0,0,1,6.86-6.86H330.65a6.87,6.87,0,0,1,6.86,6.86v.93a6.87,6.87,0,0,1-6.86,6.86H169.73a6.87,6.87,0,0,1-6.86-6.88h0Zm0,16.65v-.93a6.87,6.87,0,0,1,6.86-6.86H330.65a6.87,6.87,0,0,1,6.86,6.86v.93a6.87,6.87,0,0,1-6.86,6.86H169.73a6.87,6.87,0,0,1-6.86-6.88h0Zm27.86,25.19c15.89,1.27,37,2,59.46,2s43.58-.7,59.46-2c14.61-1.16,20.85-2.45,23.52-3.58V318.17a8.82,8.82,0,0,0-2.52-.37H169.73a8.82,8.82,0,0,0-2.53.37V192.72c2.66,1.13,8.9,2.41,23.53,3.58Zm-23.37-5.73c3.15-2.45,32.76-5.69,82.83-5.69s79.68,3.24,82.83,5.69c-3.15,2.45-32.76,5.69-82.83,5.69s-79.69-3.3-82.84-5.73Zm142.29-5.73c-15.89-1.27-37-2-59.46-2s-43.58.7-59.46,2c-14.63,1.17-20.86,2.45-23.53,3.58V179.6a8.82,8.82,0,0,0,2.53.37H330.65a8.82,8.82,0,0,0,2.52-.37v8.82c-2.67-1.13-8.91-2.42-23.52-3.58ZM162.87,327.59v-.93a6.87,6.87,0,0,1,6.86-6.86H330.65a6.87,6.87,0,0,1,6.86,6.86v.93a6.87,6.87,0,0,1-6.86,6.86H169.73A6.87,6.87,0,0,1,162.87,327.59Zm0,16.65v-.93a6.87,6.87,0,0,1,6.86-6.86H330.65a6.87,6.87,0,0,1,6.86,6.86v.93a6.87,6.87,0,0,1-6.86,6.86H169.73A6.87,6.87,0,0,1,162.87,344.24Zm1,18.28A12.31,12.31,0,0,1,168.5,353h0a8.85,8.85,0,0,0,1.22.09H330.65a8.85,8.85,0,0,0,1.19-.09c1.35.85,4.66,3.53,4.66,9.5,0,9.66-9.94,18.41-25.93,24.69h0a1,1,0,0,0-.3.13c-15.55,6-36.72,9.78-60,9.78-47.67,0-86.39-15.52-86.39-34.59ZM256.24,399v26.1a19,19,0,0,0-6.06-1h0a18.89,18.89,0,0,0-6,1V399c2,.06,4,.09,6.06.09S254.23,399.07,256.24,399Zm-81,58.1a9,9,0,0,1-8.76,7.14h-5.26a2.06,2.06,0,0,1-2-2.48l16.51-79.48a74.64,74.64,0,0,0,12.35,6.32l1.31.51Zm56.43-9.63L178,453.71l2.13-10.27,51.88-6a18.79,18.79,0,0,0-.34,10.06Zm-51.11-6.1,10.7-51.53c14.19,5.25,31.9,8.4,50.85,9.1v27a19.09,19.09,0,0,0-9.28,9.41Zm81.6,13.75a16.89,16.89,0,0,1-12,5h0a17,17,0,0,1,0-34h0a17,17,0,0,1,6.51,1.31,1,1,0,0,0,.33.14,17,17,0,0,1,5.15,27.58Zm5.33-19.82h0a19,19,0,0,0-9.24-9.42V399c19.36-.71,37.41-4,51.75-9.45l10.81,52Zm1.14,12.18a19.11,19.11,0,0,0,.53-4.37,18.9,18.9,0,0,0-.87-5.7l52.94,6.14,2.14,10.28Zm73,16.17a2,2,0,0,1-1.46.6h-5.25a9,9,0,0,1-8.78-7.14l-14.21-68.34.42-.16a73,73,0,0,0,13.2-6.87l16.64,80a2.14,2.14,0,0,1,0,.42,2,2,0,0,1-.61,1.49ZM177.4,127.58a1,1,0,0,0,.77-.36c6.6-8,21.48-14.42,40.8-17.65a1,1,0,0,0-.33-2c-19.8,3.31-35.11,10-42,18.35a1,1,0,0,0,.77,1.64Zm72.79,309.16a6.37,6.37,0,1,0,6.37,6.37h0A6.38,6.38,0,0,0,250.19,436.74Zm0,10.74a4.37,4.37,0,1,1,4.37-4.37h0A4.37,4.37,0,0,1,250.19,447.48Zm74-150.66a1,1,0,0,0,1-1V242.48a1,1,0,1,0-2,0v53.34a1,1,0,0,0,1,1Zm-5.73,9.92a1,1,0,0,0,1-1v-32a1,1,0,0,0-2,0v32A1,1,0,0,0,318.46,306.74Z" style="fill:#666"/></g><g id="Animation21"><path id="Illustration_Blase_21" data-name="Illustration Blase 21" d="M230.5,380.06a.5.5,0,1,1-.06-1,3.29,3.29,0,0,0,.74-.18.5.5,0,0,1,.35.94h0a4.28,4.28,0,0,1-1,.24Zm-1.74-.18h-.16a4.33,4.33,0,0,1-.89-.43.5.5,0,0,1,.54-.84,3.32,3.32,0,0,0,.69.33.51.51,0,0,1-.16,1Zm4-1a.5.5,0,0,1-.37-.84,3.36,3.36,0,0,0,.45-.62.5.5,0,1,1,.9.44h0a4.39,4.39,0,0,1-.58.8.5.5,0,0,1-.37.15Zm-6.06-.62a.5.5,0,0,1-.43-.24,4.27,4.27,0,0,1-.41-.91.52.52,0,1,1,1-.3,3.25,3.25,0,0,0,.31.69.5.5,0,0,1-.43.76Zm7.07-1.77h0a.5.5,0,0,1-.47-.53h0v-.17a3.31,3.31,0,0,0,0-.59.51.51,0,0,1,1-.18,4.4,4.4,0,0,1,.07.77V376a.5.5,0,0,1-.54.46h0Zm-7.57-.78h-.08a.5.5,0,0,1-.42-.57h0a4.26,4.26,0,0,1,.27-1,.5.5,0,0,1,.93.38,3.29,3.29,0,0,0-.2.73.5.5,0,0,1-.5.44ZM233,374a.5.5,0,0,1-.4-.2,3.41,3.41,0,0,0-.53-.55.5.5,0,0,1,.64-.77h0a4.4,4.4,0,0,1,.68.72.5.5,0,0,1-.4.8Zm-5.56-.57a.5.5,0,0,1-.33-.87A4.33,4.33,0,0,1,228,372a.5.5,0,0,1,.47.88,3.37,3.37,0,0,0-.63.44.5.5,0,0,1-.34.1Zm3.39-.85h-.11a3.32,3.32,0,0,0-.76-.09.54.54,0,0,1-.55-.49.46.46,0,0,1,.4-.51H230a4.37,4.37,0,0,1,1,.11.5.5,0,0,1-.11,1Z" style="fill:#666"/></g><g id="Animation20"><path id="Illustration_Blase_20" data-name="Illustration Blase 20" d="M298,372.38h0a2,2,0,0,1-1-.28.5.5,0,0,1,.5-.86,1.06,1.06,0,0,0,.52.14.5.5,0,0,1,0,1Zm1.35-.77a.5.5,0,0,1-.43-.75,1.06,1.06,0,0,0,.14-.52.5.5,0,0,1,.5-.5h0a.5.5,0,0,1,.5.5,2,2,0,0,1-.28,1,.5.5,0,0,1-.44.27Zm-2.89-.79h0a.5.5,0,0,1-.5-.5,2,2,0,0,1,.28-1,.5.5,0,1,1,.9.44h0a1,1,0,0,0-.14.52.5.5,0,0,1-.51.47Zm2.32-1.33a.5.5,0,0,1-.25-.07,1,1,0,0,0-.52-.14.5.5,0,0,1,0-1,2,2,0,0,1,1,.27.5.5,0,0,1-.25.93Z" style="fill:#666"/></g><g id="Animation19"><path id="Illustration_Blase_19" data-name="Illustration Blase 19" d="M315.88,369.43a3,3,0,0,1-1-.18.5.5,0,0,1,.34-.94,2,2,0,0,0,.69.12.5.5,0,1,1,0,1Zm1.63-.59a.5.5,0,0,1-.32-.88,2,2,0,0,0,.45-.54.5.5,0,0,1,.87.5,3.06,3.06,0,0,1-.67.8A.5.5,0,0,1,317.51,368.84Zm-3.82-.67a.5.5,0,0,1-.43-.25,3,3,0,0,1-.36-1,.51.51,0,1,1,1-.17,2,2,0,0,0,.24.66.5.5,0,0,1-.18.68.49.49,0,0,1-.27.08Zm4.68-1.71a.5.5,0,0,1-.49-.41,2,2,0,0,0-.24-.66.5.5,0,0,1,.87-.5,3,3,0,0,1,.36,1,.5.5,0,0,1-.41.58h-.09Zm-4.68-.82a.49.49,0,0,1-.25-.07.5.5,0,0,1-.18-.68,3.07,3.07,0,0,1,.67-.8.5.5,0,0,1,.65.76h0a2.07,2.07,0,0,0-.45.54.5.5,0,0,1-.44.25Zm3.06-1.12h-.17a8,8,0,0,0-.8-.13.5.5,0,0,1,.11-1h0a3,3,0,0,1,1,.18.51.51,0,0,1-.17,1h0Z" style="fill:#666"/></g><g id="Animation18"><path id="Illustration_Blase_18" data-name="Illustration Blase 18" d="M209.19,370.54a.5.5,0,1,1-.08-1,2.61,2.61,0,0,0,.74-.23.5.5,0,1,1,.44.9,3.62,3.62,0,0,1-1,.32Zm-1.81-.27a.5.5,0,0,1-.22,0,3.59,3.59,0,0,1-.89-.6.5.5,0,0,1,.63-.78h.1a2.6,2.6,0,0,0,.64.44.51.51,0,1,1-.22,1Zm4-1.26a.49.49,0,0,1-.25-.07.5.5,0,0,1-.18-.68,2.54,2.54,0,0,0,.28-.72.51.51,0,1,1,1,.22h0a3.57,3.57,0,0,1-.39,1,.5.5,0,0,1-.42.24Zm-5.73-.84a.5.5,0,0,1-.49-.39,3.65,3.65,0,0,1-.09-.82v-.26a.49.49,0,0,1,.52-.46h0a.5.5,0,0,1,.46.54h0V367a2.68,2.68,0,0,0,.07.59.5.5,0,0,1-.37.6Zm5.92-1.84a.5.5,0,0,1-.47-.32,2.6,2.6,0,0,0-.39-.67.5.5,0,0,1,.73-.69h0l.05.07a3.58,3.58,0,0,1,.54.93.5.5,0,0,1-.47.68Zm-5.34-.79a.5.5,0,0,1-.39-.81,3.63,3.63,0,0,1,.78-.73.5.5,0,0,1,.57.82,2.62,2.62,0,0,0-.57.53.5.5,0,0,1-.34.19Zm3.36-1h-.15a2.65,2.65,0,0,0-.77-.11.51.51,0,0,1-.51-.5.49.49,0,0,1,.48-.5h0a3.61,3.61,0,0,1,1.06.16.51.51,0,0,1-.15,1Z" style="fill:#666"/></g><g id="Animation17"><path id="Illustration_Blase_17" data-name="Illustration Blase 17" d="M276,302.33a.5.5,0,1,1-.07-1,2.58,2.58,0,0,0,.73-.22.5.5,0,0,1,.43.9,3.53,3.53,0,0,1-1,.31Zm-1.77-.27a.49.49,0,0,1-.22,0,3.49,3.49,0,0,1-.87-.6.5.5,0,0,1,.63-.78h0a2.53,2.53,0,0,0,.62.43.51.51,0,1,1-.22,1h0Zm4-1.22a.5.5,0,0,1-.43-.75,2.53,2.53,0,0,0,.28-.7.51.51,0,1,1,1,.22h0a3.51,3.51,0,0,1-.39,1,.5.5,0,0,1-.56.23Zm-5.6-.85a.5.5,0,0,1-.49-.39,3.55,3.55,0,0,1-.09-.79v-.27a.49.49,0,0,1,.52-.46h0a.5.5,0,0,1,.46.54h0v.19a2.63,2.63,0,0,0,.06.57.5.5,0,0,1-.38.6h-.08Zm5.8-1.78a.5.5,0,0,1-.47-.32,2.49,2.49,0,0,0-.38-.66.5.5,0,0,1,.78-.62,3.53,3.53,0,0,1,.53.92.5.5,0,0,1-.47.68Zm-5.21-.79a.5.5,0,0,1-.39-.81,3.51,3.51,0,0,1,.77-.72.5.5,0,0,1,.56.83h0a2.55,2.55,0,0,0-.56.51.5.5,0,0,1-.47.19Zm3.27-1h-.15a2.59,2.59,0,0,0-.75-.11.5.5,0,0,1,0-1,3.54,3.54,0,0,1,1,.16.51.51,0,0,1-.15,1Z" style="fill:#666"/></g><g id="Animation16"><path id="Illustration_Blase_16" data-name="Illustration Blase 16" d="M218.37,290.74a.5.5,0,1,1-.08-1h0a2.71,2.71,0,0,0,.77-.24.5.5,0,1,1,.44.9h0a3.7,3.7,0,0,1-1.06.33Zm-1.87-.28a.49.49,0,0,1-.22,0,3.74,3.74,0,0,1-.91-.62.5.5,0,0,1,.68-.74,2.74,2.74,0,0,0,.67.46.51.51,0,1,1-.22,1h0Zm4.17-1.3a.5.5,0,0,1-.43-.75,2.67,2.67,0,0,0,.29-.75.51.51,0,1,1,1,.22h0a3.64,3.64,0,0,1-.4,1,.5.5,0,0,1-.47.29Zm-5.91-.87a.5.5,0,0,1-.49-.39,3.74,3.74,0,0,1-.09-.84v-.26a.5.5,0,0,1,1,.07v.19a2.74,2.74,0,0,0,.07.61.5.5,0,0,1-.37.6Zm6.12-1.9a.5.5,0,0,1-.47-.32,2.69,2.69,0,0,0-.4-.7.5.5,0,0,1,.73-.69l.05.07a3.67,3.67,0,0,1,.55,1,.5.5,0,0,1-.47.68Zm-5.51-.82a.5.5,0,0,1-.39-.81,3.75,3.75,0,0,1,.81-.75.5.5,0,0,1,.66.75h0a2.74,2.74,0,0,0-.59.55.5.5,0,0,1-.41.2Zm3.46-1.08h-.15a2.73,2.73,0,0,0-.8-.12.51.51,0,0,1-.51-.5.49.49,0,0,1,.48-.5h0a4,4,0,0,1,1.11.16.51.51,0,1,1,0,1h-.13Z" style="fill:#666"/></g><g id="Animation15"><path id="Illustration_Blase_15" data-name="Illustration Blase 15" d="M292.08,285.74a3.78,3.78,0,0,1-.94-.11.52.52,0,1,1,.12-1h.13a2.77,2.77,0,0,0,.68.08.52.52,0,0,1,.52.5.48.48,0,0,1-.46.5h0Zm1.65-.46a.5.5,0,0,1-.25-.93,2.76,2.76,0,0,0,.56-.44.5.5,0,0,1,.76.65h0a3.74,3.74,0,0,1-.77.6.5.5,0,0,1-.25.07Zm-3.94-.47a.5.5,0,0,1-.35-.14,3.73,3.73,0,0,1-.61-.76.5.5,0,0,1,.86-.51,2.75,2.75,0,0,0,.45.56.5.5,0,0,1-.35.86Zm5.44-1.52h-.13a.5.5,0,0,1-.36-.61h0a2.72,2.72,0,0,0,.09-.7.51.51,0,0,1,.5-.51.49.49,0,0,1,.5.48h0a3.76,3.76,0,0,1-.12,1,.5.5,0,0,1-.48.38Zm-6.44-.79a.48.48,0,0,1-.5-.46h0a3.81,3.81,0,0,1,.11-.9.51.51,0,0,1,1,.24,2.85,2.85,0,0,0-.08.67.52.52,0,0,1-.53.49Zm6.09-1.68a.5.5,0,0,1-.43-.25A2.77,2.77,0,0,0,294,280a.5.5,0,0,1,.71-.71,3.79,3.79,0,0,1,.6.77.5.5,0,0,1-.18.68.51.51,0,0,1-.25.08Zm-5.18-.62a.5.5,0,0,1-.36-.85,3.8,3.8,0,0,1,.76-.61.5.5,0,0,1,.52.85,2.8,2.8,0,0,0-.56.45.5.5,0,0,1-.36.16Zm3.2-.9h-.13a2.84,2.84,0,0,0-.71-.09.53.53,0,0,1-.54-.49.47.47,0,0,1,.43-.51h.1a3.81,3.81,0,0,1,1,.13.5.5,0,1,1-.13,1Z" style="fill:#666"/></g><g id="Animation14"><path id="Illustration_Blase_14" data-name="Illustration Blase 14" d="M185.12,280a.5.5,0,1,1-.08-1,2.42,2.42,0,0,0,.68-.21.5.5,0,1,1,.44.9,3.36,3.36,0,0,1-1,.3Zm-1.7-.25a.5.5,0,0,1-.21,0,3.4,3.4,0,0,1-.84-.57.5.5,0,1,1,.68-.74,2.41,2.41,0,0,0,.59.4.51.51,0,1,1-.22,1Zm3.78-1.18a.5.5,0,0,1-.43-.75,2.39,2.39,0,0,0,.26-.67.51.51,0,1,1,1,.22h0a3.39,3.39,0,0,1-.37,1,.5.5,0,0,1-.46.28Zm-5.36-.79a.5.5,0,0,1-.49-.39,3.45,3.45,0,0,1-.09-.78v-.23a.5.5,0,1,1,1,.07v.17a2.41,2.41,0,0,0,.06.55.5.5,0,0,1-.37.6Zm5.54-1.73a.5.5,0,0,1-.47-.32,2.37,2.37,0,0,0-.36-.62.5.5,0,0,1,.78-.62,3.37,3.37,0,0,1,.51.88.5.5,0,0,1-.47.68Zm-5-.73a.5.5,0,0,1-.39-.81,3.45,3.45,0,0,1,.74-.69.5.5,0,0,1,.61.79h0a2.47,2.47,0,0,0-.52.49.5.5,0,0,1-.39.22Zm3.14-1h-.15a2.42,2.42,0,0,0-.71-.11.51.51,0,0,1-.51-.5.49.49,0,0,1,.48-.5h0a3.45,3.45,0,0,1,1,.15.51.51,0,0,1-.15,1Z" style="fill:#666"/></g><g id="Animation13"><path id="Illustration_Blase_13" data-name="Illustration Blase 13" d="M264.57,281.65a.5.5,0,0,1-.07-1,2.57,2.57,0,0,0,.72-.22.5.5,0,0,1,.49.87h-.06a3.51,3.51,0,0,1-1,.31Zm-1.77-.27a.49.49,0,0,1-.22,0,3.49,3.49,0,0,1-.87-.6.5.5,0,0,1,.68-.73,2.53,2.53,0,0,0,.62.43.51.51,0,1,1-.22,1h0Zm4-1.22a.5.5,0,0,1-.43-.75,2.53,2.53,0,0,0,.28-.7.51.51,0,1,1,1,.22h0a3.51,3.51,0,0,1-.39,1,.5.5,0,0,1-.51.23Zm-5.6-.84a.5.5,0,0,1-.49-.39,3.54,3.54,0,0,1-.09-.79v-.27a.49.49,0,0,1,.52-.46h0a.5.5,0,0,1,.46.54h0v.19a2.63,2.63,0,0,0,.06.57.5.5,0,0,1-.38.6h-.08Zm5.8-1.79a.5.5,0,0,1-.46-.32,2.54,2.54,0,0,0-.38-.66.5.5,0,0,1,.78-.62,3.54,3.54,0,0,1,.53.91.5.5,0,0,1-.28.65h0A.49.49,0,0,1,267,277.53Zm-5.21-.79a.5.5,0,0,1-.39-.81,3.5,3.5,0,0,1,.78-.72.5.5,0,0,1,.56.83,2.54,2.54,0,0,0-.55.51.5.5,0,0,1-.45.19Zm3.27-1h-.15a2.59,2.59,0,0,0-.75-.11.5.5,0,0,1,0-1,3.54,3.54,0,0,1,1,.16.51.51,0,1,1,0,1H265Z" style="fill:#666"/></g><g id="Animation12"><path id="Illustration_Blase_12" data-name="Illustration Blase 12" d="M239.76,278.75h0a3.22,3.22,0,0,1-1.07-.18.52.52,0,1,1,.12-1l.13,0H239a2.25,2.25,0,0,0,.74.13.51.51,0,0,1,.52.5h0a.49.49,0,0,1-.49.49Zm1.76-.66a.5.5,0,0,1-.32-.88,2.28,2.28,0,0,0,.5-.6.5.5,0,1,1,.9.44h0a3.24,3.24,0,0,1-.72.87.5.5,0,0,1-.36.17Zm-4.16-.68a.5.5,0,0,1-.43-.24,3.24,3.24,0,0,1-.4-1,.52.52,0,0,1,1-.25V276a2.21,2.21,0,0,0,.28.73.5.5,0,0,1-.43.76Zm5.08-1.91a.5.5,0,0,1-.49-.41,2.24,2.24,0,0,0-.27-.73.5.5,0,1,1,.81-.59l.05.09a3.22,3.22,0,0,1,.39,1.06.5.5,0,0,1-.4.58Zm-5.14-.84a.5.5,0,0,1-.44-.74,3.25,3.25,0,0,1,.71-.88.5.5,0,0,1,.66.75,2.24,2.24,0,0,0-.49.61.5.5,0,0,1-.43.26Zm3.36-1.27h-.17a2.26,2.26,0,0,0-.77-.13.53.53,0,0,1-.53-.49.47.47,0,0,1,.43-.51h.1a3.25,3.25,0,0,1,1.11.19.51.51,0,0,1-.17,1Z" style="fill:#666"/></g><g id="Animation11"><path id="Illustration_Blase_11" data-name="Illustration Blase 11" d="M274,275.6a3.28,3.28,0,0,1-1.11-.19.5.5,0,0,1,.34-.94,2.26,2.26,0,0,0,.75.13.49.49,0,0,1,.53.45h0a.52.52,0,0,1-.45.55Zm1.8-.66a.5.5,0,0,1-.32-.88,2.28,2.28,0,0,0,.51-.61.5.5,0,0,1,.87.5,3.33,3.33,0,0,1-.73.87.5.5,0,0,1-.32.12Zm-4.21-.73a.5.5,0,0,1-.43-.25,3.22,3.22,0,0,1-.39-1.07.51.51,0,0,1,1-.18,2.21,2.21,0,0,0,.27.74.5.5,0,0,1-.18.68.51.51,0,0,1-.26.09Zm5.16-1.9a.5.5,0,0,1-.49-.41,2.24,2.24,0,0,0-.27-.74.5.5,0,1,1,.87-.5,3.22,3.22,0,0,1,.39,1.07.5.5,0,0,1-.41.58h-.09Zm-5.17-.89a.5.5,0,0,1-.43-.75,3.29,3.29,0,0,1,.73-.87.5.5,0,0,1,.65.76h0a2.3,2.3,0,0,0-.51.61.5.5,0,0,1-.43.26Zm3.38-1.24h-.17A2.3,2.3,0,0,0,274,270a.5.5,0,1,1,.1-1,2.79,2.79,0,0,1,1,.19.51.51,0,0,1-.17,1Z" style="fill:#666"/></g><g id="Animation10"><path id="Illustration_Blase_10" data-name="Illustration Blase 10" d="M230.29,272.77a.5.5,0,1,1-.07-1,2.68,2.68,0,0,0,.77-.24.5.5,0,1,1,.44.9,3.64,3.64,0,0,1-1.06.33Zm-1.86-.27a.5.5,0,0,1-.21,0,3.66,3.66,0,0,1-.92-.62.5.5,0,0,1,.63-.78H228a2.72,2.72,0,0,0,.67.45.51.51,0,1,1-.22,1h0Zm4.15-1.29a.5.5,0,0,1-.43-.75,2.66,2.66,0,0,0,.29-.75.51.51,0,1,1,1,.22h0a3.67,3.67,0,0,1-.4,1,.5.5,0,0,1-.47.28Zm-5.89-.87a.5.5,0,0,1-.49-.39,3.73,3.73,0,0,1-.1-.84v-.26a.5.5,0,0,1,1,.07v.19a2.77,2.77,0,0,0,.07.62.5.5,0,0,1-.37.6Zm6.1-1.9a.5.5,0,0,1-.47-.32,2.71,2.71,0,0,0-.4-.7.5.5,0,0,1,.73-.69l.05.07a3.68,3.68,0,0,1,.56,1,.5.5,0,0,1-.28.65h0a.48.48,0,0,1-.2,0Zm-5.5-.81a.5.5,0,0,1-.39-.81,3.74,3.74,0,0,1,.8-.76.5.5,0,0,1,.61.79h0a2.74,2.74,0,0,0-.59.56.5.5,0,0,1-.4.19Zm3.46-1.08h-.15a2.67,2.67,0,0,0-.8-.12.5.5,0,1,1,.06-1,2.76,2.76,0,0,1,1,.16.51.51,0,0,1-.15,1Z" style="fill:#666"/></g><g id="Animation9"><path id="Illustration_Blase_9" data-name="Illustration Blase 9" d="M205.92,271.37h0a4.12,4.12,0,0,1-1-.13.52.52,0,1,1,.12-1h.13a3.1,3.1,0,0,0,.77.1.52.52,0,0,1,.52.5.49.49,0,0,1-.45.53h-.09Zm1.79-.5a.5.5,0,0,1-.25-.93,3.1,3.1,0,0,0,.64-.5.5.5,0,0,1,.71.7,4.12,4.12,0,0,1-.84.66.5.5,0,0,1-.26.07Zm-4.34-.53a.5.5,0,0,1-.35-.14,4.12,4.12,0,0,1-.66-.84.5.5,0,0,1,.86-.51,3.12,3.12,0,0,0,.5.63.5.5,0,0,1-.35.86Zm6-1.66h-.13a.5.5,0,0,1-.36-.61h0a3.09,3.09,0,0,0,.1-.79.51.51,0,0,1,.5-.51.49.49,0,0,1,.5.48h0a4,4,0,0,1-.13,1,.5.5,0,0,1-.49.37Zm-7.08-.89a.48.48,0,0,1-.5-.46h0a4.15,4.15,0,0,1,.12-1,.51.51,0,0,1,1,.24,3.14,3.14,0,0,0-.09.76.52.52,0,0,1-.54.48ZM209,266a.5.5,0,0,1-.43-.25,3.12,3.12,0,0,0-.49-.64.5.5,0,0,1,.71-.71h0a4.13,4.13,0,0,1,.65.84.5.5,0,0,1-.43.75Zm-5.7-.69a.5.5,0,0,1-.36-.85,4.16,4.16,0,0,1,.83-.66.5.5,0,0,1,.52.86h0a3.14,3.14,0,0,0-.63.5.5.5,0,0,1-.37.11Zm3.52-1h-.13a3.1,3.1,0,0,0-.8-.1.53.53,0,0,1-.53-.5.47.47,0,0,1,.44-.5h.1a4.14,4.14,0,0,1,1.06.14.5.5,0,1,1-.13,1Z" style="fill:#666"/></g><g id="Animation8"><path id="Illustration_Blase_8" data-name="Illustration Blase 8" d="M242.59,263.75a.5.5,0,0,1-.07-1,2.34,2.34,0,0,0,.69-.21.5.5,0,1,1,.44.9,3.38,3.38,0,0,1-1,.3Zm-1.7-.25a.49.49,0,0,1-.22,0,3.46,3.46,0,0,1-.85-.58.5.5,0,0,1,.63-.78h.05a2.48,2.48,0,0,0,.6.41.51.51,0,1,1-.22,1h0Zm3.81-1.18a.49.49,0,0,1-.25-.07.5.5,0,0,1-.18-.68,2.42,2.42,0,0,0,.27-.68.51.51,0,1,1,1,.22h0a3.42,3.42,0,0,1-.37,1,.5.5,0,0,1-.48.21Zm-5.39-.81a.5.5,0,0,1-.49-.39,3.46,3.46,0,0,1-.09-.77v-.25a.5.5,0,0,1,1,.07v.18a2.47,2.47,0,0,0,.06.55.5.5,0,0,1-.38.6h-.1Zm5.58-1.73a.5.5,0,0,1-.47-.32,2.43,2.43,0,0,0-.36-.63.5.5,0,0,1,.73-.69l.05.07a3.42,3.42,0,0,1,.51.89.5.5,0,0,1-.28.65h0a.48.48,0,0,1-.19,0Zm-5-.75a.5.5,0,0,1-.39-.81,3.45,3.45,0,0,1,.75-.7.5.5,0,0,1,.56.83,2.42,2.42,0,0,0-.53.5.5.5,0,0,1-.43.15Zm3.16-1h-.15a4.69,4.69,0,0,0-.79-.11.5.5,0,0,1-.44-.5.49.49,0,0,1,.48-.5h.05a3.5,3.5,0,0,1,1,.15.51.51,0,0,1-.15,1Z" style="fill:#666"/></g><g id="Animation7"><path id="Illustration_Blase_7" data-name="Illustration Blase 7" d="M192.6,258.93a3,3,0,0,1-1-.17.52.52,0,1,1,.12-1l.13,0h.08a2,2,0,0,0,.66.11.51.51,0,0,1,.51.5.49.49,0,0,1-.48.5h0Zm1.6-.59a.5.5,0,0,1-.33-.88,2,2,0,0,0,.44-.53.5.5,0,1,1,.87.5,3,3,0,0,1-.65.79.5.5,0,0,1-.33.12Zm-3.74-.62a.5.5,0,0,1-.43-.24,3,3,0,0,1-.37-1,.51.51,0,0,1,1-.19,2,2,0,0,0,.24.64.5.5,0,0,1-.17.69h0a.49.49,0,0,1-.27.1ZM195,256a.5.5,0,0,1-.49-.41,2,2,0,0,0-.24-.64.5.5,0,0,1,.81-.59l.05.09a3,3,0,0,1,.36,1,.5.5,0,0,1-.4.58Zm-4.61-.76a.5.5,0,0,1-.44-.74,3,3,0,0,1,.65-.8.5.5,0,1,1,.66.76,2,2,0,0,0-.43.53.5.5,0,0,1-.41.25Zm3-1.13h-.17a2,2,0,0,0-.67-.12.52.52,0,0,1-.52-.5.48.48,0,0,1,.46-.5h0a3,3,0,0,1,1,.18.51.51,0,0,1-.17,1Z" style="fill:#666"/></g><g id="Animation6"><path id="Illustration_Blase_6" data-name="Illustration Blase 6" d="M202.33,255h0a3.13,3.13,0,0,1-1.07-.19.5.5,0,1,1,.35-.94,2.17,2.17,0,0,0,.73.13.5.5,0,0,1,0,1Zm1.7-.61a.5.5,0,0,1-.32-.88,2.17,2.17,0,0,0,.48-.57.5.5,0,0,1,.91.41l-.05.09a3.12,3.12,0,0,1-.7.83.5.5,0,0,1-.35.17Zm-4-.72a.5.5,0,0,1-.44-.25,3.09,3.09,0,0,1-.36-1,.51.51,0,1,1,1-.16h0a2.11,2.11,0,0,0,.25.7.5.5,0,0,1-.43.75Zm4.88-1.75a.5.5,0,0,1-.49-.41,2.12,2.12,0,0,0-.25-.7.5.5,0,1,1,.87-.5,3.11,3.11,0,0,1,.37,1,.5.5,0,0,1-.41.58h0Zm-4.86-.89a.5.5,0,0,1-.43-.75,3.11,3.11,0,0,1,.71-.83.5.5,0,0,1,.71.71l-.08.06a2.14,2.14,0,0,0-.48.56.5.5,0,0,1-.41.3Zm3.17-1.14h-.17a2.12,2.12,0,0,0-.73-.13.5.5,0,0,1,0-1,3.12,3.12,0,0,1,1.07.19.51.51,0,0,1-.17,1h0Z" style="fill:#666"/></g><g id="Animation5"><path id="Illustration_Blase_5" data-name="Illustration Blase 5" d="M183,240.12a.5.5,0,1,1-.07-1,2.31,2.31,0,0,0,.67-.21.5.5,0,1,1,.44.9h0a3.31,3.31,0,0,1-1,.29Zm-1.65-.25a.5.5,0,0,1-.22,0,3.3,3.3,0,0,1-.82-.56.5.5,0,1,1,.63-.78H181a2.32,2.32,0,0,0,.57.39.51.51,0,0,1-.22,1h0Zm3.67-1.14a.5.5,0,0,1-.43-.75,2.3,2.3,0,0,0,.25-.65.51.51,0,0,1,1,.22h0a3.29,3.29,0,0,1-.36.93.5.5,0,0,1-.48.26Zm-5.21-.78a.5.5,0,0,1-.49-.39,3.34,3.34,0,0,1-.08-.75v-.25a.51.51,0,0,1,.54-.46.5.5,0,0,1,.46.54h0v.17a2.35,2.35,0,0,0,.06.52.5.5,0,0,1-.38.6h0Zm5.39-1.67a.5.5,0,0,1-.47-.32,2.32,2.32,0,0,0-.35-.6.5.5,0,0,1,.78-.62,3.32,3.32,0,0,1,.5.86.5.5,0,0,1-.47.68Zm-4.85-.73a.5.5,0,0,1-.39-.81,3.36,3.36,0,0,1,.73-.68.5.5,0,0,1,.61.79h0a2.35,2.35,0,0,0-.51.48.5.5,0,0,1-.4.2Zm3-.95h-.15a2.31,2.31,0,0,0-.69-.1.5.5,0,0,1,0-1h0a2.57,2.57,0,0,1,1,.14.51.51,0,0,1-.15,1Z" style="fill:#666"/></g><g id="Animation4"><path id="Illustration_Blase_4" data-name="Illustration Blase 4" d="M269.3,238.84a.5.5,0,1,1-.07-1,2.49,2.49,0,0,0,.72-.22.5.5,0,1,1,.44.9,3.5,3.5,0,0,1-1,.31Zm-1.77-.27a.5.5,0,0,1-.22,0,3.52,3.52,0,0,1-.87-.6.5.5,0,0,1,.63-.78h0a2.53,2.53,0,0,0,.62.43.51.51,0,1,1-.22,1h0Zm4-1.22a.5.5,0,0,1-.43-.75,2.52,2.52,0,0,0,.28-.7.51.51,0,1,1,1,.22h0a3.49,3.49,0,0,1-.39,1,.5.5,0,0,1-.51.23Zm-5.6-.84a.5.5,0,0,1-.49-.39,3.47,3.47,0,0,1-.09-.79v-.27a.5.5,0,1,1,1,.08h0v.19a2.48,2.48,0,0,0,.06.56.5.5,0,0,1-.38.6h0Zm5.8-1.79a.5.5,0,0,1-.46-.32,2.53,2.53,0,0,0-.38-.66.5.5,0,0,1,.78-.62,3.52,3.52,0,0,1,.53.91.5.5,0,0,1-.46.68Zm-5.21-.79a.5.5,0,0,1-.39-.81,3.56,3.56,0,0,1,.77-.72.5.5,0,1,1,.56.83,2.53,2.53,0,0,0-.56.52.5.5,0,0,1-.43.18Zm3.27-1h-.15a2.54,2.54,0,0,0-.75-.11.5.5,0,0,1,0-1,3.53,3.53,0,0,1,1,.16.51.51,0,0,1-.15,1Z" style="fill:#666"/></g><g id="Animation3"><path id="Animation3-2" d="M221.17,238.46a.5.5,0,1,1-.06-1,3.44,3.44,0,0,0,.79-.19.5.5,0,1,1,.35.94,4.47,4.47,0,0,1-1,.24Zm-1.83-.21h-.17a4.48,4.48,0,0,1-.94-.46.5.5,0,1,1,.55-.84,3.49,3.49,0,0,0,.73.36.51.51,0,0,1-.17,1Zm4.27-1a.5.5,0,0,1-.36-.84,3.51,3.51,0,0,0,.48-.65.5.5,0,1,1,.87.5,4.53,4.53,0,0,1-.62.84.5.5,0,0,1-.37.13Zm-6.37-.72a.5.5,0,0,1-.43-.25,4.55,4.55,0,0,1-.42-1,.52.52,0,0,1,1-.29,3.52,3.52,0,0,0,.33.74.5.5,0,0,1-.43.75Zm7.45-1.79h0a.5.5,0,0,1-.47-.53h0V234a3.54,3.54,0,0,0,0-.61.51.51,0,0,1,1-.17,4.53,4.53,0,0,1,.07.79v.25a.5.5,0,0,1-.56.43Zm-7.94-.89h-.08a.5.5,0,0,1-.41-.58h0a4.5,4.5,0,0,1,.29-1,.5.5,0,0,1,.92.39,3.45,3.45,0,0,0-.23.78.5.5,0,0,1-.49.38Zm7.15-1.72a.5.5,0,0,1-.4-.2,3.57,3.57,0,0,0-.56-.59.5.5,0,0,1,.64-.77,4.55,4.55,0,0,1,.72.76.5.5,0,0,1-.4.8Zm-5.8-.65a.5.5,0,0,1-.32-.88,4.47,4.47,0,0,1,.87-.58.5.5,0,0,1,.46.89h0a3.51,3.51,0,0,0-.67.45.5.5,0,0,1-.34.08Zm3.51-.85h-.12a3.5,3.5,0,0,0-.81-.09.51.51,0,0,1-.52-.5h0a.49.49,0,0,1,.48-.5h0a4.53,4.53,0,0,1,1,.12.5.5,0,0,1-.11,1Z" style="fill:#666"/></g><g id="Animation2"><path id="Illustration_Blase_2" data-name="Illustration Blase 2" d="M202.61,230.49h0a4.72,4.72,0,0,1-1-.1.51.51,0,0,1,.2-1,3.71,3.71,0,0,0,.75.08.51.51,0,0,1,.51.5.49.49,0,0,1-.46.52h0Zm1.7-.37a.51.51,0,1,1-.21-1h0a3.73,3.73,0,0,0,.67-.39.5.5,0,1,1,.59.81,4.74,4.74,0,0,1-.85.49.5.5,0,0,1-.2.09Zm-4.16-.42a.5.5,0,0,1-.29-.09,4.76,4.76,0,0,1-.73-.65.5.5,0,0,1,.74-.67,3.75,3.75,0,0,0,.58.52.5.5,0,0,1-.29.91Zm6.08-1.32a.5.5,0,0,1-.43-.75,3.72,3.72,0,0,0,.31-.71.52.52,0,0,1,1,.31h0a4.72,4.72,0,0,1-.4.9.5.5,0,0,1-.49.26Zm-7.61-.77a.5.5,0,0,1-.47-.34,4.7,4.7,0,0,1-.21-1,.5.5,0,0,1,1-.11,3.66,3.66,0,0,0,.16.75.5.5,0,0,1-.32.63Zm8.14-1.76a.5.5,0,0,1-.5-.45,3.71,3.71,0,0,0-.16-.76.52.52,0,0,1,1-.31,4.64,4.64,0,0,1,.21,1,.5.5,0,0,1-.44.55ZM198.6,225h-.15a.5.5,0,0,1-.33-.62h0a4.69,4.69,0,0,1,.39-.9.5.5,0,1,1,.87.5h0a3.68,3.68,0,0,0-.31.71.5.5,0,0,1-.48.29Zm7.11-1.54a.5.5,0,0,1-.37-.17,3.72,3.72,0,0,0-.58-.52.5.5,0,0,1,.59-.81,4.74,4.74,0,0,1,.73.66.5.5,0,0,1-.37.83Zm-5.6-.57a.5.5,0,0,1-.3-.9,4.64,4.64,0,0,1,.85-.5.5.5,0,0,1,.41.91,3.66,3.66,0,0,0-.67.39.5.5,0,0,1-.3.11Zm3.36-.73h-.1a3.68,3.68,0,0,0-.77-.08.52.52,0,0,1-.52-.5.48.48,0,0,1,.46-.5h0a4.73,4.73,0,0,1,1,.1.5.5,0,0,1-.1,1Z" style="fill:#666"/></g><g id="Animation1"><path id="Illustration_Blase_1" data-name="Illustration Blase 1" d="M224.79,226.25a.5.5,0,0,1,0-1,2.54,2.54,0,0,0,.74-.14.5.5,0,0,1,.33.94,3.52,3.52,0,0,1-1,.19Zm-1.73-.46a.5.5,0,0,1-.27-.08,3.56,3.56,0,0,1-.61-.49L222,225a.5.5,0,0,1,.76-.65h0l.13.14a2.57,2.57,0,0,0,.44.35.5.5,0,0,1-.27.92Zm4.07-.77a.5.5,0,0,1-.4-.8,2.51,2.51,0,0,0,.35-.67.52.52,0,1,1,1,.25v.08a3.52,3.52,0,0,1-.5.93.5.5,0,0,1-.39.19Zm-5.47-1.47a.5.5,0,0,1-.5-.45,3.61,3.61,0,0,1,0-.39,3.55,3.55,0,0,1,.06-.66.51.51,0,1,1,1,.13v.06a2.55,2.55,0,0,0,0,.48,2.61,2.61,0,0,0,0,.28.5.5,0,0,1-.44.55Zm6-1.12a.5.5,0,0,1-.48-.37,2.51,2.51,0,0,0-.3-.69.5.5,0,1,1,.85-.53,3.53,3.53,0,0,1,.42,1,.5.5,0,0,1-.35.61Zm-5.09-1.36a.5.5,0,0,1-.35-.85,3.54,3.54,0,0,1,.85-.63.5.5,0,0,1,.47.88,2.55,2.55,0,0,0-.61.45.5.5,0,0,1-.4.15Zm3.37-.64a.5.5,0,0,1-.2,0,2.54,2.54,0,0,0-.73-.2.5.5,0,0,1,.11-1,3.57,3.57,0,0,1,1,.27.51.51,0,0,1-.2,1Z" style="fill:#666"/></g></svg>