<svg xmlns="http://www.w3.org/2000/svg" width="1140" height="600" viewBox="0 0 1140 600">
    <g fill="#4F5250" fill-rule="evenodd">
        <path d="M764.441 213.394c.108.07.331.105.67.105 1.054 0 1.922-.209 2.603-.626 1.046-.642 1.57-1.738 1.57-3.29 0-1.384-.432-2.425-1.293-3.124-.738-.598-1.716-.897-2.933-.897-.303 0-.509.033-.617.1-.107.065-.161.21-.161.434v6.862c0 .22.054.365.161.436zm-2.719.362c.492-.053.813-.142.963-.267.15-.125.224-.443.224-.952v-6.006c0-.492-.073-.808-.218-.949-.145-.14-.468-.228-.969-.263v-.25h3.639c1.226 0 2.263.201 3.111.606 1.53.725 2.294 2.021 2.294 3.889 0 .672-.137 1.311-.412 1.918a3.937 3.937 0 0 1-1.242 1.536 4.193 4.193 0 0 1-1.095.6c-.69.255-1.538.382-2.544.382h-3.75v-.244zm10.857-8.754a.652.652 0 0 1 .488-.204.66.66 0 0 1 .484.2.668.668 0 0 1 .202.492.66.66 0 0 1-.202.484.66.66 0 0 1-.484.202.657.657 0 0 1-.488-.202.666.666 0 0 1-.198-.484c0-.189.066-.352.198-.488zm-1.041 8.813c.47-.044.767-.124.89-.24.123-.117.184-.432.184-.946v-3.144c0-.286-.02-.484-.06-.594-.065-.18-.204-.27-.414-.27a.756.756 0 0 0-.142.013c-.046.01-.18.044-.399.106v-.205l.283-.092c.77-.25 1.306-.44 1.609-.567a.859.859 0 0 1 .237-.079c.009.03.013.064.013.099v4.733c0 .5.06.815.182.943.12.127.394.208.82.243V214h-3.203v-.185zm8.226-5.355c.466.428.7 1.036.7 1.822h-4.187c.044 1.02.275 1.762.693 2.228.417.466.911.699 1.483.699.461 0 .85-.12 1.166-.363.317-.241.61-.584.877-1.028l.23.08c-.18.557-.517 1.074-1.011 1.548-.494.475-1.1.712-1.816.712-.826 0-1.464-.312-1.915-.936-.45-.624-.676-1.342-.676-2.155 0-.884.262-1.646.785-2.288.523-.641 1.204-.962 2.043-.962.62 0 1.163.214 1.628.643zm-3.157.504c-.14.237-.242.536-.303.896h2.782c-.049-.44-.132-.766-.251-.982-.215-.387-.576-.58-1.081-.58-.501 0-.883.222-1.147.666zm14.384-3.837c.505.145.795.218.87.218.193 0 .33-.037.412-.112a.883.883 0 0 0 .208-.323h.296l.106 2.841h-.31c-.277-.655-.563-1.143-.857-1.463-.532-.563-1.224-.844-2.077-.844-.865 0-1.627.328-2.284.985-.657.657-.985 1.74-.985 3.247 0 1.243.327 2.215.982 2.913.655.7 1.463 1.048 2.426 1.048a4.21 4.21 0 0 0 1.2-.19c.32-.106.52-.197.6-.274.079-.077.118-.19.118-.34v-2.155c0-.519-.074-.842-.22-.97-.148-.127-.47-.206-.966-.237v-.25h3.44v.25c-.334.022-.555.077-.665.165-.185.14-.277.43-.277.87v2.657c0 .158-.388.369-1.164.633-.775.263-1.521.395-2.238.395-1.318 0-2.43-.384-3.335-1.153-.998-.849-1.496-1.987-1.496-3.415 0-1.257.397-2.333 1.193-3.23.874-.989 2.034-1.483 3.48-1.483.523 0 1.037.072 1.543.217zm3.29 8.655c.404-.035.672-.106.803-.214.132-.107.198-.337.198-.689v-2.973c0-.435-.04-.745-.122-.932-.081-.187-.23-.28-.445-.28-.044 0-.102.005-.174.016a3.394 3.394 0 0 0-.228.043v-.218l.771-.27c.264-.092.447-.158.548-.198.22-.083.446-.178.679-.283.03 0 .049.01.056.033a.6.6 0 0 1 .01.138v1.081c.28-.39.552-.696.814-.916.261-.22.532-.33.814-.33a.76.76 0 0 1 .547.202c.14.134.21.302.21.504 0 .18-.053.332-.16.455a.516.516 0 0 1-.406.184c-.167 0-.335-.077-.504-.23-.17-.154-.303-.231-.4-.231-.153 0-.342.124-.566.372-.224.249-.336.505-.336.768v2.973c0 .378.088.64.263.788.176.147.468.216.877.207V214h-3.25v-.218zm5.632-5.059c.556-.604 1.271-.906 2.146-.906.87 0 1.59.286 2.162.857.571.571.857 1.331.857 2.28 0 .875-.277 1.635-.83 2.281-.554.646-1.27.97-2.15.97-.843 0-1.557-.31-2.142-.93-.584-.62-.877-1.398-.877-2.334 0-.874.278-1.613.834-2.218zm1.058-.168c-.44.4-.659 1.09-.659 2.07 0 .782.177 1.512.53 2.188.354.677.845 1.016 1.474 1.016.492 0 .871-.227 1.137-.68.266-.452.399-1.045.399-1.78 0-.76-.17-1.476-.508-2.148-.338-.672-.828-1.009-1.47-1.009-.347 0-.648.115-.903.343zm2.97-1.813a.644.644 0 0 1-.478.198.647.647 0 0 1-.475-.198.647.647 0 0 1-.197-.474c0-.185.065-.343.197-.475a.647.647 0 0 1 .475-.198c.189 0 .348.066.478.198s.194.29.194.475a.653.653 0 0 1-.194.474zm-3.639-.949a.636.636 0 0 1 .471-.198c.19 0 .349.066.478.198.13.132.195.29.195.475a.653.653 0 0 1-.195.474.644.644 0 0 1-.478.198.636.636 0 0 1-.47-.198.653.653 0 0 1-.195-.474c0-.185.064-.343.194-.475zm5.356 8.01c.308-.027.512-.082.613-.166.154-.127.23-.386.23-.777v-4.997c0-.791.1-1.41.298-1.859.36-.826 1.043-1.24 2.05-1.24.672 0 1.23.176 1.674.525.444.35.666.843.666 1.48 0 .668-.275 1.21-.824 1.628a2.889 2.889 0 0 1-1.002.494c.712.18 1.239.402 1.582.666.589.444.883 1.094.883 1.951 0 .73-.235 1.352-.705 1.866s-1.035.771-1.694.771c-.37 0-.684-.088-.943-.264a.854.854 0 0 1-.389-.751c0-.18.055-.332.165-.455a.548.548 0 0 1 .428-.185c.167 0 .303.05.406.149a.595.595 0 0 1 .174.399l.027.296a.54.54 0 0 0 .092.29c.048.075.154.112.317.112.36 0 .606-.257.738-.77.07-.278.105-.664.105-1.161 0-.879-.161-1.534-.484-1.964-.323-.431-.805-.653-1.447-.666a.416.416 0 0 1-.208-.056c-.05-.033-.076-.09-.076-.168 0-.075.025-.124.073-.149a.76.76 0 0 1 .23-.056c.365-.044.647-.14.844-.29.365-.277.548-.751.548-1.424 0-.39-.06-.744-.178-1.06-.211-.563-.572-.845-1.081-.845-.41 0-.701.154-.877.462-.176.307-.264.716-.264 1.226V214h-1.97v-.198zm11.338-5.343c.466.428.699 1.036.699 1.822h-4.186c.044 1.02.275 1.762.692 2.228.418.466.912.699 1.484.699.461 0 .85-.12 1.166-.363.317-.241.609-.584.877-1.028l.23.08c-.18.557-.517 1.074-1.011 1.548-.495.475-1.1.712-1.816.712-.826 0-1.465-.312-1.915-.936-.45-.624-.676-1.342-.676-2.155 0-.884.262-1.646.785-2.288.523-.641 1.204-.962 2.043-.962.62 0 1.162.214 1.628.643zm-3.157.504c-.14.237-.242.536-.303.896h2.781c-.048-.44-.131-.766-.25-.982-.215-.387-.576-.58-1.081-.58-.501 0-.884.222-1.147.666zm11.925-.982c.176.092.345.22.507.382v-2.096c0-.268-.03-.453-.089-.554-.059-.101-.2-.151-.425-.151a1.27 1.27 0 0 0-.138.006l-.264.026v-.217l.54-.138c.198-.053.396-.108.594-.165.198-.057.371-.112.52-.165.071-.022.187-.064.35-.125l.04.013-.014.692-.013.775c-.004.265-.006.528-.006.787l-.014 5.386c0 .285.036.485.106.6.07.114.257.171.56.171.049 0 .097-.001.145-.003.049-.003.097-.008.145-.017v.218c-.026.009-.345.118-.956.33l-1.034.388-.047-.06v-.81c-.246.268-.459.46-.639.574a2.08 2.08 0 0 1-1.114.296c-.747 0-1.352-.289-1.816-.867a3.115 3.115 0 0 1-.695-2.007c0-.953.277-1.772.833-2.455.556-.684 1.236-1.025 2.04-1.025.321 0 .616.07.884.21zm.191 5.128c.21-.202.316-.393.316-.573v-2.828c0-.572-.152-.975-.458-1.21-.305-.235-.603-.353-.893-.353-.554 0-.984.245-1.292.735-.308.49-.461 1.094-.461 1.81 0 .707.163 1.338.49 1.892.328.553.817.83 1.467.83.343 0 .62-.1.831-.303zm7.218-4.65c.466.428.699 1.036.699 1.822h-4.186c.044 1.02.275 1.762.692 2.228.418.466.912.699 1.483.699.462 0 .85-.12 1.167-.363.317-.241.609-.584.877-1.028l.23.08c-.18.557-.517 1.074-1.011 1.548-.495.475-1.1.712-1.816.712-.826 0-1.465-.312-1.915-.936-.45-.624-.676-1.342-.676-2.155 0-.884.262-1.646.785-2.288.523-.641 1.204-.962 2.043-.962.62 0 1.162.214 1.628.643zm-3.157.504c-.14.237-.242.536-.303.896h2.781c-.048-.44-.132-.766-.25-.982-.216-.387-.576-.58-1.081-.58-.501 0-.884.222-1.147.666zm5.148 2.96h.218c.1.5.237.885.408 1.153.308.492.758.738 1.352.738.33 0 .59-.09.78-.273a.935.935 0 0 0 .288-.709.976.976 0 0 0-.165-.534c-.11-.171-.303-.338-.58-.5l-.739-.423c-.54-.29-.938-.582-1.193-.876a1.54 1.54 0 0 1-.382-1.042c0-.492.176-.896.527-1.213.352-.316.794-.474 1.325-.474.233 0 .49.044.768.132.28.087.436.131.472.131.079 0 .136-.01.17-.033a.276.276 0 0 0 .093-.105h.158l.047 1.84h-.205c-.088-.427-.206-.759-.356-.996-.272-.44-.666-.66-1.18-.66-.307 0-.549.095-.725.284a.946.946 0 0 0-.263.666c0 .404.303.764.91 1.08l.87.469c.935.51 1.403 1.103 1.403 1.78 0 .518-.194.942-.583 1.272-.389.33-.898.494-1.526.494-.264 0-.562-.044-.896-.132-.334-.087-.532-.131-.594-.131a.195.195 0 0 0-.138.056.39.39 0 0 0-.092.135h-.172v-2.13zm14.51-6.797c.505.145.795.218.87.218.193 0 .33-.037.411-.112a.883.883 0 0 0 .208-.323h.297l.105 2.841h-.31c-.277-.655-.562-1.143-.857-1.463-.531-.563-1.224-.844-2.076-.844-.866 0-1.627.328-2.284.985-.657.657-.986 1.74-.986 3.247 0 1.243.328 2.215.983 2.913.654.7 1.463 1.048 2.425 1.048a4.21 4.21 0 0 0 1.2-.19c.32-.106.52-.197.6-.274.079-.077.119-.19.119-.34v-2.155c0-.519-.074-.842-.221-.97-.148-.127-.47-.206-.966-.237v-.25h3.44v.25c-.333.022-.555.077-.665.165-.184.14-.277.43-.277.87v2.657c0 .158-.388.369-1.163.633-.776.263-1.522.395-2.238.395-1.318 0-2.43-.384-3.336-1.153-.997-.849-1.496-1.987-1.496-3.415 0-1.257.398-2.333 1.193-3.23.875-.989 2.035-1.483 3.48-1.483.524 0 1.038.072 1.543.217zm3.506 8.688c.409-.04.686-.122.83-.247.146-.125.218-.37.218-.735v-6.44c0-.29-.024-.49-.072-.6-.088-.184-.266-.277-.534-.277a1.13 1.13 0 0 0-.201.02 5.2 5.2 0 0 0-.274.06v-.218c.594-.158 1.308-.37 2.143-.633.03 0 .05.013.056.04.006.026.01.083.01.171v7.904c0 .382.065.63.197.741.132.112.405.184.818.214V214h-3.19v-.185zm7.364-3.467a6.036 6.036 0 0 0-1.253.554c-.633.391-.95.835-.95 1.331 0 .4.133.695.396.884a.96.96 0 0 0 .574.184c.29 0 .568-.081.834-.244.266-.162.399-.369.399-.62v-2.089zm-2.42.745c.405-.264 1.211-.622 2.42-1.074v-.56c0-.449-.044-.761-.132-.937-.15-.294-.46-.441-.93-.441a1.28 1.28 0 0 0-.64.171c-.201.119-.302.281-.302.488 0 .052.01.141.033.267.022.125.033.205.033.24 0 .246-.082.418-.244.514a.614.614 0 0 1-.33.086c-.198 0-.35-.065-.455-.194a.668.668 0 0 1-.158-.432c0-.308.19-.63.57-.966.38-.336.937-.504 1.671-.504.853 0 1.43.277 1.734.83.162.304.244.745.244 1.325v2.644c0 .255.017.43.052.527.058.172.176.257.356.257a.593.593 0 0 0 .25-.046c.067-.03.181-.105.344-.224v.343c-.14.171-.293.312-.455.422-.246.167-.497.25-.752.25-.298 0-.515-.097-.649-.29a1.3 1.3 0 0 1-.22-.692c-.335.29-.62.505-.858.646-.4.237-.78.356-1.14.356a1.37 1.37 0 0 1-.982-.399c-.277-.266-.415-.603-.415-1.012 0-.637.318-1.169.955-1.595zm5.26.83h.218c.101.502.238.886.409 1.154.308.492.758.738 1.351.738.33 0 .59-.09.781-.273a.935.935 0 0 0 .287-.709.976.976 0 0 0-.165-.534c-.11-.171-.303-.338-.58-.5l-.738-.423c-.54-.29-.938-.582-1.193-.876a1.54 1.54 0 0 1-.382-1.042c0-.492.175-.896.527-1.213.352-.316.793-.474 1.325-.474.233 0 .489.044.768.132.279.087.436.131.471.131.08 0 .136-.01.172-.033a.276.276 0 0 0 .092-.105h.158l.046 1.84h-.204c-.088-.427-.207-.759-.356-.996-.273-.44-.666-.66-1.18-.66-.308 0-.55.095-.725.284a.946.946 0 0 0-.264.666c0 .404.303.764.91 1.08l.87.469c.936.51 1.404 1.103 1.404 1.78 0 .518-.194.942-.583 1.272-.39.33-.898.494-1.526.494-.264 0-.563-.044-.897-.132-.334-.087-.532-.131-.593-.131a.195.195 0 0 0-.139.056.39.39 0 0 0-.092.135h-.171v-2.13zm9.295-3.463c.466.428.7 1.036.7 1.822h-4.187c.044 1.02.275 1.762.693 2.228.417.466.911.699 1.483.699.461 0 .85-.12 1.166-.363.317-.241.61-.584.877-1.028l.23.08c-.18.557-.517 1.074-1.011 1.548-.494.475-1.1.712-1.816.712-.826 0-1.465-.312-1.915-.936-.45-.624-.676-1.342-.676-2.155 0-.884.262-1.646.785-2.288.523-.641 1.204-.962 2.043-.962.62 0 1.163.214 1.628.643zm-3.157.504c-.14.237-.242.536-.303.896H872c-.048-.44-.131-.766-.25-.982-.215-.387-.576-.58-1.081-.58-.501 0-.883.222-1.147.666zm5.148 2.96h.218c.101.5.237.885.409 1.153.307.492.758.738 1.35.738.33 0 .59-.09.782-.273a.935.935 0 0 0 .287-.709.976.976 0 0 0-.165-.534c-.11-.171-.303-.338-.58-.5l-.738-.423c-.54-.29-.939-.582-1.193-.876a1.54 1.54 0 0 1-.383-1.042c0-.492.176-.896.528-1.213.351-.316.793-.474 1.325-.474.232 0 .488.044.767.132.28.087.437.131.472.131.079 0 .136-.01.171-.033a.276.276 0 0 0 .092-.105h.159l.046 1.84h-.205c-.087-.427-.206-.759-.356-.996-.272-.44-.665-.66-1.18-.66-.307 0-.549.095-.725.284a.946.946 0 0 0-.263.666c0 .404.303.764.91 1.08l.87.469c.936.51 1.404 1.103 1.404 1.78 0 .518-.195.942-.584 1.272-.389.33-.897.494-1.526.494-.263 0-.562-.044-.896-.132-.334-.087-.532-.131-.594-.131a.195.195 0 0 0-.138.056.39.39 0 0 0-.092.135h-.172v-2.13zm9.276-6.922a.652.652 0 0 1 .487-.204.66.66 0 0 1 .485.2.668.668 0 0 1 .2.492.66.66 0 0 1-.2.484.66.66 0 0 1-.485.202.657.657 0 0 1-.487-.202.666.666 0 0 1-.198-.484c0-.189.066-.352.198-.488zm-1.042 8.813c.47-.044.767-.124.89-.24.123-.117.184-.432.184-.946v-3.144c0-.286-.02-.484-.059-.594-.066-.18-.204-.27-.415-.27a.756.756 0 0 0-.142.013c-.046.01-.179.044-.399.106v-.205l.284-.092c.769-.25 1.305-.44 1.608-.567a.859.859 0 0 1 .237-.079c.01.03.014.064.014.099v4.733c0 .5.06.815.18.943.122.127.395.208.822.243V214h-3.204v-.185zm4.206-1.891h.217c.101.5.238.885.409 1.153.308.492.758.738 1.351.738.33 0 .59-.09.781-.273a.935.935 0 0 0 .287-.709.976.976 0 0 0-.165-.534c-.11-.171-.303-.338-.58-.5l-.738-.423c-.54-.29-.938-.582-1.193-.876a1.54 1.54 0 0 1-.382-1.042c0-.492.175-.896.527-1.213.352-.316.793-.474 1.325-.474.233 0 .489.044.768.132.279.087.436.131.471.131.08 0 .136-.01.172-.033a.276.276 0 0 0 .092-.105h.158l.046 1.84h-.204c-.088-.427-.207-.759-.356-.996-.273-.44-.666-.66-1.18-.66-.308 0-.55.095-.725.284a.946.946 0 0 0-.264.666c0 .404.303.764.91 1.08l.87.469c.936.51 1.404 1.103 1.404 1.78 0 .518-.194.942-.583 1.272-.39.33-.898.494-1.526.494-.264 0-.563-.044-.897-.132-.334-.087-.532-.131-.593-.131a.195.195 0 0 0-.139.056.39.39 0 0 0-.092.135h-.171v-2.13zm8.009-4.002v.475h-1.345l-.013 3.797c0 .334.029.587.086.758.105.303.312.455.62.455a.746.746 0 0 0 .411-.112c.117-.075.25-.194.4-.356l.17.145-.144.197c-.229.308-.47.526-.725.653a1.648 1.648 0 0 1-.739.191c-.518 0-.87-.23-1.054-.692-.102-.25-.152-.598-.152-1.041v-3.995h-.719a.194.194 0 0 1-.049-.04.08.08 0 0 1-.016-.052c0-.044.01-.078.03-.102.019-.025.082-.08.187-.169.303-.25.522-.453.656-.61.134-.155.45-.567.946-1.235.057 0 .091.004.102.013.011.009.017.042.017.099v1.621h1.331zm3.949 5.907c.343-.031.571-.088.686-.172.175-.127.263-.382.263-.764v-3.408c0-.326-.043-.539-.128-.64-.086-.1-.228-.151-.426-.151-.092 0-.161.004-.207.013-.046.009-.1.024-.162.046v-.23l.475-.159c.171-.057.453-.16.844-.31.39-.15.597-.224.62-.224.021 0 .034.011.039.033a.767.767 0 0 1 .006.125v.89c.436-.395.811-.669 1.128-.82.316-.152.641-.228.975-.228.453 0 .813.154 1.081.462.14.166.257.393.35.678.325-.33.608-.573.85-.731.418-.273.844-.409 1.279-.409.707 0 1.18.288 1.417.864.136.325.204.839.204 1.542v2.736c0 .312.07.524.208.636.138.112.388.185.748.22V214h-2.973v-.185c.383-.035.634-.112.755-.23.12-.119.181-.36.181-.725v-2.841c0-.427-.046-.74-.138-.943-.163-.36-.481-.54-.956-.54-.286 0-.569.094-.85.283-.163.11-.363.285-.6.527v3.375c0 .356.063.626.188.811.125.185.39.283.794.297V214h-3.026v-.171c.418-.053.684-.154.798-.304.114-.149.171-.516.171-1.1v-1.846c0-.677-.043-1.143-.131-1.398-.145-.43-.453-.646-.923-.646-.268 0-.532.074-.791.221-.26.147-.488.34-.686.577v3.606c0 .334.058.564.175.692.116.127.37.193.761.198V214h-2.999v-.171zm11.608-8.827a.652.652 0 0 1 .488-.204.66.66 0 0 1 .485.2.668.668 0 0 1 .2.492.66.66 0 0 1-.2.484.66.66 0 0 1-.485.202.657.657 0 0 1-.488-.202.666.666 0 0 1-.197-.484c0-.189.066-.352.197-.488zm-1.041 8.813c.47-.044.767-.124.89-.24.123-.117.184-.432.184-.946v-3.144c0-.286-.02-.484-.059-.594-.066-.18-.204-.27-.415-.27a.756.756 0 0 0-.142.013 7.66 7.66 0 0 0-.399.106v-.205l.284-.092c.769-.25 1.305-.44 1.608-.567a.859.859 0 0 1 .237-.079c.01.03.014.064.014.099v4.733c0 .5.06.815.18.943.122.127.395.208.821.243V214h-3.203v-.185zm6.941-5.893v.475h-1.344l-.014 3.797c0 .334.029.587.086.758.105.303.312.455.62.455a.746.746 0 0 0 .412-.112c.116-.075.249-.194.398-.356l.172.145-.145.197c-.229.308-.47.526-.725.653a1.648 1.648 0 0 1-.739.191c-.518 0-.87-.23-1.054-.692-.101-.25-.152-.598-.152-1.041v-3.995h-.718a.194.194 0 0 1-.05-.04.08.08 0 0 1-.016-.052c0-.044.01-.078.03-.102.02-.025.082-.08.187-.169.303-.25.522-.453.656-.61.134-.155.45-.567.946-1.235.057 0 .091.004.102.013.011.009.017.042.017.099v1.621h1.331zm8.451.538c.466.428.7 1.036.7 1.822h-4.187c.044 1.02.275 1.762.692 2.228.418.466.912.699 1.484.699.461 0 .85-.12 1.166-.363.317-.241.609-.584.877-1.028l.23.08c-.18.557-.517 1.074-1.011 1.548-.494.475-1.1.712-1.816.712-.826 0-1.465-.312-1.915-.936-.45-.624-.676-1.342-.676-2.155 0-.884.262-1.646.785-2.288.523-.641 1.204-.962 2.043-.962.62 0 1.163.214 1.628.643zm-3.157.504c-.14.237-.242.536-.303.896h2.781c-.048-.44-.131-.766-.25-.982-.215-.387-.576-.58-1.081-.58-.501 0-.883.222-1.147.666zm5.755-3.962a.652.652 0 0 1 .488-.204.66.66 0 0 1 .484.2.668.668 0 0 1 .201.492.66.66 0 0 1-.2.484.66.66 0 0 1-.485.202.657.657 0 0 1-.488-.202.666.666 0 0 1-.198-.484c0-.189.066-.352.198-.488zm-1.042 8.813c.47-.044.767-.124.89-.24.123-.117.185-.432.185-.946v-3.144c0-.286-.02-.484-.06-.594-.066-.18-.204-.27-.415-.27a.756.756 0 0 0-.142.013c-.046.01-.179.044-.398.106v-.205l.283-.092c.77-.25 1.305-.44 1.608-.567a.859.859 0 0 1 .238-.079c.009.03.013.064.013.099v4.733c0 .5.06.815.181.943.121.127.395.208.82.243V214h-3.203v-.185zm3.751 0c.312-.04.53-.117.656-.234.125-.116.188-.376.188-.78v-3.343c0-.281-.026-.479-.08-.593-.083-.167-.254-.25-.513-.25-.04 0-.08.002-.122.006a4.341 4.341 0 0 0-.155.02v-.23c.18-.054.606-.19 1.279-.41l.62-.204c.03 0 .049.011.055.033.007.022.01.053.01.092v.97c.405-.379.72-.638.95-.778a1.98 1.98 0 0 1 1.067-.323c.3 0 .572.085.818.257.474.334.712.929.712 1.786v3.078c0 .317.063.545.19.686.128.14.341.213.64.217V214h-2.815v-.185c.321-.044.545-.133.673-.267.127-.134.191-.425.191-.873v-2.815c0-.378-.07-.69-.21-.939-.142-.248-.4-.372-.779-.372-.26 0-.523.087-.79.263-.15.101-.344.268-.58.501v3.692c0 .316.07.528.21.636.14.107.363.166.666.174V214h-2.88v-.185zm11.246-5.355c.466.428.699 1.036.699 1.822h-4.186c.044 1.02.275 1.762.692 2.228.418.466.912.699 1.483.699.462 0 .85-.12 1.167-.363.316-.241.609-.584.877-1.028l.23.08c-.18.557-.517 1.074-1.011 1.548-.495.475-1.1.712-1.816.712-.827 0-1.465-.312-1.915-.936-.45-.624-.676-1.342-.676-2.155 0-.884.261-1.646.784-2.288.523-.641 1.205-.962 2.044-.962.62 0 1.162.214 1.628.643zm-3.157.504c-.141.237-.242.536-.304.896h2.782c-.048-.44-.132-.766-.25-.982-.216-.387-.576-.58-1.081-.58-.501 0-.884.222-1.147.666zm4.667 4.865c.343-.031.571-.088.685-.172.176-.127.264-.382.264-.764v-3.408c0-.326-.043-.539-.129-.64-.085-.1-.227-.151-.425-.151-.092 0-.161.004-.207.013-.046.009-.1.024-.162.046v-.23l.475-.159c.171-.057.452-.16.844-.31.39-.15.597-.224.62-.224.021 0 .034.011.039.033a.767.767 0 0 1 .006.125v.89c.435-.395.811-.669 1.127-.82.317-.152.642-.228.976-.228.453 0 .813.154 1.081.462.14.166.257.393.35.678.325-.33.608-.573.85-.731.417-.273.844-.409 1.279-.409.707 0 1.18.288 1.417.864.136.325.204.839.204 1.542v2.736c0 .312.07.524.208.636.138.112.388.185.748.22V214h-2.973v-.185c.382-.035.634-.112.755-.23.12-.119.181-.36.181-.725v-2.841c0-.427-.046-.74-.138-.943-.163-.36-.481-.54-.956-.54-.286 0-.57.094-.85.283-.163.11-.363.285-.6.527v3.375c0 .356.062.626.188.811.125.185.39.283.794.297V214h-3.026v-.171c.418-.053.684-.154.798-.304.114-.149.171-.516.171-1.1v-1.846c0-.677-.044-1.143-.132-1.398-.145-.43-.452-.646-.922-.646-.268 0-.532.074-.791.221-.26.147-.488.34-.686.577v3.606c0 .334.058.564.175.692.116.127.37.193.761.198V214h-3v-.171zm13.85-.073c.531-.057.862-.155.992-.293.13-.139.194-.5.194-1.085v-5.847c0-.479-.072-.792-.217-.939-.145-.147-.468-.238-.97-.273v-.25h7.192l.046 1.937h-.375c-.093-.62-.266-1.012-.521-1.177-.255-.164-.758-.247-1.51-.247h-1.845c-.18 0-.296.031-.346.093-.05.061-.076.182-.076.362v3.013h1.951c.576 0 .943-.086 1.1-.258.159-.17.286-.518.383-1.041h.317v3.124h-.317c-.1-.522-.23-.869-.389-1.038-.158-.169-.523-.254-1.094-.254h-1.951v2.954c0 .496.076.814.227.952.152.139.483.228.992.267V214h-3.783v-.244zm9.466-5.86v4.219c0 .299.041.538.125.718.163.334.461.501.896.501.3 0 .591-.099.877-.296.163-.11.327-.262.494-.455v-3.613c0-.338-.065-.56-.197-.665-.132-.106-.396-.17-.791-.191v-.218h2.129v4.64c0 .3.054.505.161.617.108.112.335.161.683.148v.185c-.242.066-.42.115-.534.148a19.2 19.2 0 0 0-.574.181c-.114.04-.365.134-.751.284-.022 0-.035-.01-.04-.03a.322.322 0 0 1-.006-.069v-1.061c-.3.356-.572.62-.818.79a2.023 2.023 0 0 1-1.186.396c-.383 0-.743-.136-1.081-.408-.343-.269-.515-.719-.515-1.352v-3.42c0-.352-.074-.588-.224-.706-.096-.075-.303-.128-.62-.158v-.185h1.972zm3.114-1.154a.644.644 0 0 1-.478.198.647.647 0 0 1-.474-.198.647.647 0 0 1-.198-.474c0-.185.066-.343.198-.475a.647.647 0 0 1 .474-.198c.19 0 .349.066.478.198.13.132.195.29.195.475a.653.653 0 0 1-.195.474zm-3.638-.949a.636.636 0 0 1 .47-.198c.19 0 .35.066.479.198.13.132.194.29.194.475a.653.653 0 0 1-.194.474.644.644 0 0 1-.478.198.636.636 0 0 1-.471-.198.653.653 0 0 1-.195-.474c0-.185.065-.343.195-.475zm5.48 8.022c.41-.04.686-.122.831-.247.146-.125.218-.37.218-.735v-6.44c0-.29-.024-.49-.072-.6-.088-.184-.266-.277-.534-.277a1.13 1.13 0 0 0-.201.02 5.2 5.2 0 0 0-.274.06v-.218c.593-.158 1.307-.37 2.142-.633.031 0 .05.013.056.04.007.026.01.083.01.171v7.904c0 .382.066.63.198.741.132.112.404.184.817.214V214h-3.19v-.185zm3.772 0c.408-.04.685-.122.83-.247.145-.125.218-.37.218-.735v-6.44c0-.29-.024-.49-.073-.6-.088-.184-.266-.277-.534-.277a1.13 1.13 0 0 0-.2.02 5.2 5.2 0 0 0-.274.06v-.218c.593-.158 1.307-.37 2.142-.633.03 0 .05.013.056.04.007.026.01.083.01.171v7.904c0 .382.066.63.198.741.132.112.404.184.817.214V214h-3.19v-.185zm6.394-5.939v.205c-.229.026-.39.061-.485.105-.094.044-.141.14-.141.29 0 .07.01.137.03.201.02.064.053.157.102.28l1.37 3.408 1.187-3.019a7.31 7.31 0 0 0 .162-.455c.05-.158.075-.279.075-.362 0-.172-.08-.295-.243-.37a1.356 1.356 0 0 0-.396-.078v-.205h1.872v.205c-.215.017-.37.089-.465.214-.094.125-.231.414-.412.867l-1.905 4.746a.996.996 0 0 1-.085.171.107.107 0 0 1-.093.046c-.044 0-.08-.025-.112-.076a2.026 2.026 0 0 1-.099-.187l-2.017-4.826c-.162-.39-.336-.657-.52-.797-.11-.08-.27-.132-.482-.158v-.205h2.657zm8.59.584c.465.428.698 1.036.698 1.822h-4.186c.044 1.02.275 1.762.692 2.228.418.466.912.699 1.483.699.462 0 .85-.12 1.167-.363.317-.241.609-.584.877-1.028l.23.08c-.18.557-.517 1.074-1.011 1.548-.495.475-1.1.712-1.816.712-.826 0-1.465-.312-1.915-.936-.45-.624-.676-1.342-.676-2.155 0-.884.262-1.646.785-2.288.523-.641 1.204-.962 2.043-.962.62 0 1.162.214 1.628.643zm-3.158.504c-.14.237-.242.536-.303.896h2.781c-.048-.44-.132-.766-.25-.982-.216-.387-.576-.58-1.081-.58-.501 0-.884.222-1.147.666zm4.509 4.818c.404-.035.672-.106.804-.214.132-.107.198-.337.198-.689v-2.973c0-.435-.04-.745-.122-.932-.081-.187-.23-.28-.445-.28-.044 0-.102.005-.175.016a3.394 3.394 0 0 0-.227.043v-.218l.771-.27c.264-.092.446-.158.547-.198.22-.083.446-.178.68-.283.03 0 .049.01.055.033a.6.6 0 0 1 .01.138v1.081c.281-.39.553-.696.814-.916.262-.22.533-.33.814-.33a.76.76 0 0 1 .547.202c.14.134.211.302.211.504 0 .18-.054.332-.161.455a.516.516 0 0 1-.406.184c-.167 0-.335-.077-.504-.23-.17-.154-.302-.231-.399-.231-.154 0-.343.124-.567.372-.224.249-.336.505-.336.768v2.973c0 .378.088.64.264.788.176.147.468.216.877.207V214h-3.25v-.218zm4.674.047c.342-.031.57-.088.685-.172.176-.127.264-.382.264-.764v-3.408c0-.326-.043-.539-.129-.64-.085-.1-.227-.151-.425-.151-.092 0-.161.004-.208.013-.046.009-.1.024-.161.046v-.23l.475-.159c.171-.057.452-.16.843-.31.391-.15.598-.224.62-.224.022 0 .035.011.04.033a.767.767 0 0 1 .006.125v.89c.435-.395.81-.669 1.127-.82.317-.152.642-.228.976-.228.453 0 .813.154 1.08.462.142.166.258.393.35.678.326-.33.609-.573.85-.731.418-.273.844-.409 1.28-.409.707 0 1.18.288 1.417.864.136.325.204.839.204 1.542v2.736c0 .312.07.524.208.636.138.112.387.185.748.22V214h-2.973v-.185c.382-.035.634-.112.755-.23.12-.119.181-.36.181-.725v-2.841c0-.427-.046-.74-.138-.943-.163-.36-.482-.54-.956-.54-.286 0-.57.094-.85.283-.163.11-.363.285-.6.527v3.375c0 .356.062.626.187.811.126.185.39.283.795.297V214h-3.026v-.171c.418-.053.683-.154.798-.304.114-.149.171-.516.171-1.1v-1.846c0-.677-.044-1.143-.132-1.398-.145-.43-.452-.646-.923-.646-.268 0-.531.074-.79.221-.26.147-.488.34-.686.577v3.606c0 .334.058.564.175.692.116.127.37.193.76.198V214h-2.998v-.171zm11.48-5.106c.555-.604 1.27-.906 2.145-.906.87 0 1.59.286 2.162.857.571.571.857 1.331.857 2.28 0 .875-.277 1.635-.83 2.281-.554.646-1.27.97-2.15.97-.843 0-1.557-.31-2.142-.93-.584-.62-.876-1.398-.876-2.334 0-.874.278-1.613.833-2.218zm1.057-.168c-.439.4-.659 1.09-.659 2.07 0 .782.177 1.512.53 2.188.355.677.846 1.016 1.474 1.016.492 0 .871-.227 1.137-.68.266-.452.399-1.045.399-1.78 0-.76-.17-1.476-.508-2.148-.338-.672-.828-1.009-1.47-1.009-.347 0-.648.115-.903.343zm2.97-1.813a.644.644 0 0 1-.478.198.647.647 0 0 1-.474-.198.647.647 0 0 1-.198-.474c0-.185.066-.343.198-.475a.647.647 0 0 1 .474-.198c.19 0 .348.066.478.198s.194.29.194.475a.653.653 0 0 1-.194.474zm-3.639-.949a.636.636 0 0 1 .472-.198c.189 0 .348.066.478.198s.194.29.194.475a.653.653 0 0 1-.194.474.644.644 0 0 1-.478.198.636.636 0 0 1-.472-.198.653.653 0 0 1-.194-.474c0-.185.065-.343.194-.475zm7.153 10.191c.415.14.89.211 1.427.211.73 0 1.323-.126 1.78-.379.457-.253.685-.564.685-.933 0-.294-.184-.49-.554-.586-.228-.057-.66-.09-1.298-.1-.163-.004-.334-.01-.514-.016s-.345-.014-.495-.023a5.515 5.515 0 0 1-.468-.053 8.42 8.42 0 0 1-.48-.079c-.054 0-.183.139-.39.416-.21.28-.316.54-.316.777 0 .37.207.625.623.765zm-.699-4.904a2.034 2.034 0 0 1-.333-1.14c0-.515.204-1.002.613-1.464.409-.461.987-.692 1.734-.692.32 0 .674.076 1.061.227.387.152.758.228 1.114.228.092 0 .232-.004.419-.01.186-.007.322-.01.405-.01h.08v.534h-1.141c.079.185.14.345.184.481.075.255.112.497.112.725 0 .501-.207.962-.623 1.381-.415.42-.974.63-1.677.63-.11 0-.308-.02-.593-.06-.128 0-.296.108-.505.323-.208.216-.313.392-.313.528 0 .14.154.244.462.31.202.044.426.065.672.065 1.13 0 1.896.064 2.3.192.664.206.996.65.996 1.331 0 .695-.388 1.248-1.164 1.661-.775.413-1.559.62-2.35.62-.72 0-1.292-.146-1.713-.438-.422-.293-.633-.6-.633-.92 0-.158.056-.313.168-.465.112-.151.333-.377.662-.675l.435-.39.08-.078a2.044 2.044 0 0 1-.455-.231c-.176-.136-.264-.292-.264-.468 0-.163.076-.342.227-.537.152-.196.476-.513.973-.953-.4-.132-.711-.367-.933-.705zm2.792.376c.263-.211.395-.578.395-1.101 0-.418-.106-.888-.32-1.41-.213-.524-.568-.785-1.064-.785-.43 0-.727.204-.89.613a2.218 2.218 0 0 0-.125.797c0 .536.13 1.018.389 1.444.259.426.595.64 1.008.64a.932.932 0 0 0 .607-.198zm7.449-2.996c.465.428.698 1.036.698 1.822h-4.186c.044 1.02.275 1.762.693 2.228.417.466.911.699 1.483.699.461 0 .85-.12 1.167-.363.316-.241.608-.584.876-1.028l.23.08c-.18.557-.517 1.074-1.01 1.548-.495.475-1.1.712-1.817.712-.826 0-1.464-.312-1.915-.936-.45-.624-.676-1.342-.676-2.155 0-.884.262-1.646.785-2.288.523-.641 1.204-.962 2.043-.962.62 0 1.163.214 1.629.643zm-3.158.504c-.14.237-.242.536-.303.896h2.782c-.049-.44-.132-.766-.25-.982-.216-.387-.577-.58-1.082-.58-.5 0-.883.222-1.147.666zm4.694 4.851c.312-.04.53-.117.656-.234.125-.116.187-.376.187-.78v-3.343c0-.281-.026-.479-.079-.593-.083-.167-.255-.25-.514-.25-.04 0-.08.002-.122.006a4.341 4.341 0 0 0-.155.02v-.23c.18-.054.607-.19 1.28-.41l.619-.204c.03 0 .05.011.056.033.006.022.01.053.01.092v.97c.404-.379.72-.638.949-.778a1.98 1.98 0 0 1 1.068-.323c.299 0 .571.085.817.257.475.334.712.929.712 1.786v3.078c0 .317.064.545.191.686.128.14.34.213.64.217V214h-2.815v-.185c.32-.044.545-.133.672-.267.128-.134.191-.425.191-.873v-2.815c0-.378-.07-.69-.21-.939-.141-.248-.4-.372-.778-.372-.26 0-.523.087-.791.263-.15.101-.343.268-.58.501v3.692c0 .316.07.528.21.636.141.107.363.166.666.174V214h-2.88v-.185zm-247.747 13.061v.205c-.228.026-.39.061-.484.105-.095.044-.142.14-.142.29 0 .07.01.137.03.201.02.064.054.157.102.28l1.371 3.408 1.187-3.019a7.31 7.31 0 0 0 .161-.455c.05-.158.076-.279.076-.362 0-.172-.081-.295-.244-.37a1.356 1.356 0 0 0-.395-.078v-.205h1.872v.205c-.216.017-.37.089-.465.214-.095.125-.232.414-.412.867l-1.905 4.746a.996.996 0 0 1-.086.171.107.107 0 0 1-.092.046c-.044 0-.081-.025-.112-.076a2.026 2.026 0 0 1-.099-.187l-2.017-4.826c-.163-.39-.336-.657-.52-.797-.11-.08-.271-.132-.482-.158v-.205h2.656zm5.047.847c.556-.604 1.27-.906 2.145-.906.87 0 1.591.286 2.162.857.572.571.857 1.331.857 2.28 0 .875-.276 1.635-.83 2.281-.554.646-1.27.97-2.15.97-.843 0-1.557-.31-2.141-.93-.585-.62-.877-1.398-.877-2.334 0-.874.278-1.613.834-2.218zm1.058-.168c-.44.4-.66 1.09-.66 2.07 0 .782.177 1.512.531 2.188.354.677.845 1.016 1.473 1.016.493 0 .872-.227 1.137-.68.266-.452.4-1.045.4-1.78 0-.76-.17-1.476-.508-2.148-.339-.672-.829-1.009-1.47-1.009-.347 0-.648.115-.903.343zm4.779 5.26c.312-.04.53-.117.656-.234.125-.116.188-.376.188-.78v-3.343c0-.281-.027-.479-.08-.593-.083-.167-.254-.25-.514-.25-.04 0-.08.002-.122.006a4.341 4.341 0 0 0-.154.02v-.23c.18-.054.606-.19 1.278-.41l.62-.204c.03 0 .05.011.056.033.007.022.01.053.01.092v.97c.404-.379.72-.638.95-.778a1.98 1.98 0 0 1 1.067-.323c.299 0 .571.085.817.257.475.334.712.929.712 1.786v3.078c0 .317.064.545.191.686.128.14.341.213.64.217V233h-2.815v-.185c.321-.044.545-.133.673-.267.127-.134.19-.425.19-.873v-2.815c0-.378-.07-.69-.21-.939-.14-.248-.4-.372-.778-.372-.26 0-.523.087-.791.263-.15.101-.343.268-.58.501v3.692c0 .316.07.528.21.636.141.107.363.166.667.174V233h-2.881v-.185zm10.323.033c1.609-1.67 2.7-2.896 3.276-3.678.576-.782.864-1.545.864-2.287 0-.65-.176-1.146-.528-1.487a1.746 1.746 0 0 0-1.259-.51c-.602 0-1.09.22-1.463.659-.206.241-.404.613-.593 1.114l-.284-.06c.22-1.01.592-1.712 1.118-2.106.525-.393 1.088-.59 1.69-.59.743 0 1.344.234 1.803.702.46.468.69 1.04.69 1.718 0 .72-.25 1.415-.746 2.083-.496.667-1.575 1.856-3.236 3.566h3.025c.422 0 .719-.05.89-.152.172-.101.365-.347.58-.738l.172.079-.732 1.839h-5.267v-.152zm14.539-5.639c.398.284.596.594.596.933 0 .145-.05.28-.151.405-.101.125-.257.188-.468.188a.585.585 0 0 1-.406-.158.917.917 0 0 1-.253-.462l-.08-.316c-.057-.233-.156-.398-.296-.494-.145-.093-.336-.139-.574-.139-.5 0-.924.219-1.269.656-.345.437-.517 1.019-.517 1.744 0 .663.19 1.259.57 1.786.38.527.893.791 1.54.791.456 0 .863-.15 1.219-.448.202-.172.43-.444.685-.818l.185.113c-.25.527-.514.944-.791 1.252-.532.589-1.147.883-1.846.883-.685 0-1.292-.27-1.82-.81-.526-.541-.79-1.275-.79-2.202 0-.91.288-1.692.863-2.347.576-.655 1.303-.982 2.182-.982.55 0 1.023.142 1.42.425zm1.513 5.606c.409-.04.685-.122.83-.247.145-.125.218-.37.218-.735v-6.44c0-.29-.024-.49-.073-.6-.087-.184-.265-.277-.533-.277a1.13 1.13 0 0 0-.202.02 5.2 5.2 0 0 0-.273.06v-.218c.593-.158 1.307-.37 2.142-.633.031 0 .05.013.056.04.007.026.01.083.01.171v7.904c0 .382.066.63.198.741.132.112.404.184.817.214V233h-3.19v-.185zm6.935-8.2v-.224c.5-.114.951-.242 1.351-.382s.615-.211.646-.211a.249.249 0 0 1 .013.079v4.014c.115-.21.286-.41.515-.6.404-.33.87-.494 1.397-.494.646 0 1.197.273 1.655.818.457.544.685 1.252.685 2.122 0 .932-.297 1.73-.89 2.393-.593.663-1.373.995-2.34.995-.488 0-.967-.096-1.437-.29-.47-.193-.705-.387-.705-.58v-6.967c0-.255-.035-.437-.106-.544-.07-.108-.233-.162-.487-.162l-.297.033zm2.498 7.914c.303.099.57.148.798.148.615 0 1.07-.23 1.368-.692.296-.462.445-1.02.445-1.674 0-.655-.139-1.26-.416-1.816-.277-.556-.725-.834-1.344-.834-.313 0-.618.095-.917.286-.299.192-.448.434-.448.729v3.362c.04.228.21.392.514.49zm8.945-5.07c.466.43.7 1.037.7 1.823h-4.187c.044 1.02.275 1.762.693 2.228.417.466.911.699 1.483.699.461 0 .85-.12 1.166-.363.317-.241.61-.584.877-1.028l.23.08c-.18.557-.517 1.074-1.011 1.548-.494.475-1.1.712-1.816.712-.826 0-1.464-.312-1.915-.936-.45-.624-.676-1.342-.676-2.155 0-.884.262-1.646.785-2.288.523-.641 1.204-.962 2.043-.962.62 0 1.163.214 1.628.643zm-3.157.505c-.14.237-.242.536-.303.896h2.782c-.049-.44-.132-.766-.251-.982-.215-.387-.576-.58-1.081-.58-.501 0-.883.222-1.147.666zm10.725-.883c-.264.03-.46.074-.587.131-.127.058-.19.172-.19.343 0 .092.014.188.042.287.029.099.067.214.115.346l1.2 3.131 1.173-2.86c.053-.124.11-.285.172-.485.061-.2.092-.35.092-.452 0-.162-.05-.272-.151-.33a1.271 1.271 0 0 0-.442-.125v-.19h1.674v.19a.461.461 0 0 0-.27.159c-.07.083-.17.28-.297.593l-2.11 5.2a.47.47 0 0 1-.045.086c-.013.018-.033.027-.06.027-.052-.027-.083-.049-.092-.066l-1.49-3.685-1.733 3.672a.165.165 0 0 1-.036.056.076.076 0 0 1-.056.023c-.053-.027-.084-.049-.093-.066l-1.97-4.858c-.216-.532-.359-.845-.43-.94-.07-.094-.208-.157-.414-.187v-.205h2.438v.205a1.3 1.3 0 0 0-.464.108c-.108.055-.162.173-.162.353 0 .127.09.44.27.936.106.286.24.633.403 1.042l.751 1.872 1.187-2.545.013-.079c0-.088-.047-.252-.142-.491-.094-.24-.186-.454-.273-.643-.088-.197-.188-.335-.3-.412-.112-.077-.27-.124-.472-.141v-.205h2.75v.205zm5.584-.185v4.219c0 .299.041.538.125.718.162.334.461.501.896.501.3 0 .591-.099.877-.296.163-.11.327-.262.494-.455v-3.613c0-.338-.066-.56-.197-.665-.132-.106-.396-.17-.791-.191v-.218h2.129v4.64c0 .3.054.505.161.617.108.112.335.161.682.148v.185c-.241.066-.42.115-.533.148a19.2 19.2 0 0 0-.574.181c-.114.04-.365.134-.751.284-.022 0-.036-.01-.04-.03a.322.322 0 0 1-.007-.069v-1.061c-.298.356-.57.62-.817.79a2.023 2.023 0 0 1-1.186.396c-.383 0-.743-.136-1.081-.408-.343-.269-.515-.719-.515-1.352v-3.42c0-.352-.074-.588-.224-.706-.096-.075-.303-.128-.62-.158v-.185h1.972zm5.379 4.028h.217c.101.5.238.885.409 1.153.308.492.758.738 1.351.738.33 0 .59-.09.781-.273a.935.935 0 0 0 .287-.709.976.976 0 0 0-.165-.534c-.11-.171-.303-.338-.58-.5l-.738-.423c-.54-.29-.938-.582-1.193-.876a1.54 1.54 0 0 1-.383-1.042c0-.492.176-.896.528-1.213.351-.316.793-.474 1.325-.474.233 0 .489.044.768.132.279.087.436.131.471.131.08 0 .136-.01.171-.033a.276.276 0 0 0 .093-.105h.158l.046 1.84h-.204c-.088-.427-.207-.759-.356-.996-.273-.44-.666-.66-1.18-.66-.308 0-.55.095-.725.284a.946.946 0 0 0-.264.666c0 .404.303.764.91 1.08l.87.469c.936.51 1.404 1.103 1.404 1.78 0 .518-.195.942-.583 1.272-.39.33-.898.494-1.526.494-.264 0-.563-.044-.897-.132-.334-.087-.532-.131-.593-.131a.195.195 0 0 0-.139.056.39.39 0 0 0-.092.135h-.171v-2.13zm5.273 0h.218c.1.5.237.885.409 1.153.307.492.758.738 1.35.738.33 0 .59-.09.782-.273a.935.935 0 0 0 .287-.709.976.976 0 0 0-.165-.534c-.11-.171-.303-.338-.58-.5l-.738-.423c-.54-.29-.939-.582-1.194-.876a1.54 1.54 0 0 1-.382-1.042c0-.492.176-.896.527-1.213.352-.316.794-.474 1.325-.474.233 0 .49.044.768.132.28.087.437.131.472.131.079 0 .136-.01.171-.033a.276.276 0 0 0 .092-.105h.159l.046 1.84h-.205c-.088-.427-.206-.759-.356-.996-.272-.44-.665-.66-1.18-.66-.307 0-.549.095-.725.284a.946.946 0 0 0-.263.666c0 .404.303.764.91 1.08l.87.469c.936.51 1.404 1.103 1.404 1.78 0 .518-.195.942-.584 1.272-.389.33-.897.494-1.526.494-.263 0-.562-.044-.896-.132-.334-.087-.532-.131-.594-.131a.195.195 0 0 0-.138.056.39.39 0 0 0-.092.135h-.172v-2.13zm8.01-4.002v.475H864.6l-.013 3.797c0 .334.028.587.085.758.106.303.312.455.62.455a.746.746 0 0 0 .412-.112c.116-.075.25-.194.399-.356l.171.145-.145.197c-.228.308-.47.526-.725.653a1.648 1.648 0 0 1-.738.191c-.519 0-.87-.23-1.055-.692-.101-.25-.152-.598-.152-1.041v-3.995h-.718a.194.194 0 0 1-.05-.04.08.08 0 0 1-.016-.052c0-.044.01-.078.03-.102.02-.025.082-.08.188-.169.303-.25.521-.453.655-.61.135-.155.45-.567.946-1.235.058 0 .092.004.103.013.01.009.016.042.016.099v1.621h1.332zm3.757 5.893c.422-.03.7-.1.834-.21.134-.11.201-.348.201-.712v-6.605c0-.312-.052-.51-.158-.594-.105-.083-.257-.125-.455-.125a3.105 3.105 0 0 0-.422.026v-.184l.594-.158c.452-.119.837-.231 1.153-.336.194-.066.306-.1.336-.1.027 0 .043.006.05.017.006.011.01.036.01.076v5.544l1.826-1.609c.131-.118.22-.213.267-.283a.352.352 0 0 0 .069-.185c0-.1-.05-.165-.149-.191a2.983 2.983 0 0 0-.53-.06v-.184h2.749v.185c-.493.03-.888.128-1.187.293-.299.165-.872.636-1.72 1.414l-.39.356 1.22 1.582c.624.809 1.094 1.346 1.41 1.612.317.266.653.414 1.01.445V233h-2.934v-.185l.23-.013a.605.605 0 0 0 .205-.046c.062-.026.092-.07.092-.132a.286.286 0 0 0-.033-.135 1.085 1.085 0 0 0-.092-.142l-2.043-2.689v2.439c0 .303.112.505.336.606.132.062.358.095.679.1V233h-3.158v-.185zm7.02 0c.41-.04.686-.122.831-.247.145-.125.218-.37.218-.735v-6.44c0-.29-.024-.49-.073-.6-.087-.184-.265-.277-.533-.277a1.13 1.13 0 0 0-.202.02 5.2 5.2 0 0 0-.273.06v-.218c.593-.158 1.307-.37 2.142-.633.031 0 .05.013.056.04.007.026.01.083.01.171v7.904c0 .382.066.63.198.741.132.112.404.184.817.214V233h-3.19v-.185zm8.214-5.355c.466.428.7 1.036.7 1.822h-4.187c.044 1.02.275 1.762.693 2.228.417.466.911.699 1.483.699.461 0 .85-.12 1.166-.363.317-.241.61-.584.877-1.028l.23.08c-.18.557-.517 1.074-1.011 1.548-.494.475-1.1.712-1.816.712-.826 0-1.464-.312-1.915-.936-.45-.624-.676-1.342-.676-2.155 0-.884.262-1.646.785-2.288.523-.641 1.204-.962 2.043-.962.62 0 1.163.214 1.628.643zm-3.157.504c-.14.237-.242.536-.303.896h2.782c-.049-.44-.132-.766-.251-.982-.215-.387-.576-.58-1.081-.58-.501 0-.883.222-1.147.666zm5.755-3.962a.652.652 0 0 1 .488-.204.66.66 0 0 1 .484.2.668.668 0 0 1 .201.492.66.66 0 0 1-.2.484.66.66 0 0 1-.485.202.657.657 0 0 1-.488-.202.666.666 0 0 1-.198-.484c0-.189.066-.352.198-.488zm-1.042 8.813c.47-.044.767-.124.89-.24.123-.117.185-.432.185-.946v-3.144c0-.286-.02-.484-.06-.594-.065-.18-.204-.27-.415-.27a.756.756 0 0 0-.142.013c-.046.01-.179.044-.398.106v-.205l.283-.092c.77-.25 1.305-.44 1.609-.567a.859.859 0 0 1 .237-.079c.009.03.013.064.013.099v4.733c0 .5.06.815.181.943.121.127.395.208.821.243V233h-3.204v-.185zm3.751 0c.312-.04.53-.117.656-.234.125-.116.188-.376.188-.78v-3.343c0-.281-.026-.479-.079-.593-.084-.167-.255-.25-.514-.25-.04 0-.08.002-.122.006a4.341 4.341 0 0 0-.155.02v-.23c.18-.054.606-.19 1.279-.41l.62-.204c.03 0 .049.011.055.033.007.022.01.053.01.092v.97c.405-.379.721-.638.95-.778a1.98 1.98 0 0 1 1.067-.323c.3 0 .572.085.818.257.474.334.712.929.712 1.786v3.078c0 .317.063.545.19.686.128.14.341.213.64.217V233h-2.814v-.185c.32-.044.544-.133.672-.267.127-.134.191-.425.191-.873v-2.815c0-.378-.07-.69-.21-.939-.141-.248-.4-.372-.779-.372-.259 0-.523.087-.79.263-.15.101-.343.268-.58.501v3.692c0 .316.07.528.21.636.14.107.363.166.666.174V233h-2.88v-.185zm9.968-8.2v-.224c.5-.114.951-.242 1.35-.382.4-.14.616-.211.647-.211a.249.249 0 0 1 .013.079v4.014c.114-.21.286-.41.514-.6.405-.33.87-.494 1.398-.494.646 0 1.197.273 1.654.818.457.544.686 1.252.686 2.122 0 .932-.297 1.73-.89 2.393-.593.663-1.373.995-2.34.995-.488 0-.967-.096-1.437-.29-.47-.193-.706-.387-.706-.58v-6.967c0-.255-.035-.437-.105-.544-.07-.108-.233-.162-.488-.162l-.296.033zm2.498 7.914c.303.099.569.148.797.148.616 0 1.072-.23 1.368-.692.297-.462.445-1.02.445-1.674 0-.655-.138-1.26-.415-1.816-.277-.556-.725-.834-1.345-.834-.312 0-.617.095-.916.286-.299.192-.448.434-.448.729v3.362c.04.228.21.392.514.49zm8.945-5.07c.466.43.699 1.037.699 1.823h-4.186c.044 1.02.275 1.762.692 2.228.418.466.912.699 1.483.699.462 0 .85-.12 1.167-.363.317-.241.609-.584.877-1.028l.23.08c-.18.557-.517 1.074-1.011 1.548-.495.475-1.1.712-1.816.712-.827 0-1.465-.312-1.915-.936-.45-.624-.676-1.342-.676-2.155 0-.884.262-1.646.785-2.288.522-.641 1.204-.962 2.043-.962.62 0 1.162.214 1.628.643zm-3.157.505c-.141.237-.242.536-.304.896h2.782c-.048-.44-.132-.766-.25-.982-.216-.387-.576-.58-1.081-.58-.501 0-.884.222-1.147.666zm4.667 4.865c.343-.031.571-.088.685-.172.176-.127.264-.382.264-.764v-3.408c0-.326-.043-.539-.128-.64-.086-.1-.228-.151-.426-.151-.092 0-.161.004-.207.013-.046.009-.1.024-.162.046v-.23l.475-.159c.171-.057.452-.16.844-.31.39-.15.597-.224.62-.224.021 0 .034.011.039.033a.767.767 0 0 1 .006.125v.89c.435-.395.811-.669 1.128-.82.316-.152.641-.228.975-.228.453 0 .813.154 1.081.462.14.166.257.393.35.678.325-.33.608-.573.85-.731.417-.273.844-.409 1.279-.409.707 0 1.18.288 1.417.864.136.325.204.839.204 1.542v2.736c0 .312.07.524.208.636.138.112.388.185.748.22V233h-2.973v-.185c.383-.035.634-.112.755-.23.12-.119.181-.36.181-.725v-2.841c0-.427-.046-.74-.138-.943-.163-.36-.481-.54-.956-.54-.286 0-.57.094-.85.283-.163.11-.363.285-.6.527v3.375c0 .356.062.626.188.811.125.185.39.283.794.297V233h-3.026v-.171c.418-.053.684-.154.798-.304.114-.149.171-.516.171-1.1v-1.846c0-.677-.044-1.143-.131-1.398-.145-.43-.453-.646-.923-.646-.268 0-.532.074-.791.221-.26.147-.488.34-.686.577v3.606c0 .334.058.564.175.692.116.127.37.193.761.198V233h-3v-.171zm15.023-5.37c.466.43.699 1.037.699 1.823H924.7c.044 1.02.274 1.762.692 2.228.417.466.912.699 1.483.699.461 0 .85-.12 1.167-.363.316-.241.608-.584.876-1.028l.231.08c-.18.557-.517 1.074-1.012 1.548-.494.475-1.1.712-1.816.712-.826 0-1.464-.312-1.915-.936-.45-.624-.675-1.342-.675-2.155 0-.884.261-1.646.784-2.288.523-.641 1.204-.962 2.044-.962.62 0 1.162.214 1.628.643zm-3.158.505c-.14.237-.241.536-.303.896h2.782c-.048-.44-.132-.766-.25-.982-.216-.387-.576-.58-1.082-.58-.5 0-.883.222-1.147.666zm5.149 2.96h.217c.101.5.238.885.409 1.153.308.492.758.738 1.351.738.33 0 .59-.09.781-.273a.935.935 0 0 0 .287-.709.976.976 0 0 0-.165-.534c-.11-.171-.303-.338-.58-.5l-.738-.423c-.54-.29-.938-.582-1.193-.876a1.54 1.54 0 0 1-.382-1.042c0-.492.175-.896.527-1.213.351-.316.793-.474 1.325-.474.233 0 .489.044.768.132.279.087.436.131.471.131.08 0 .136-.01.172-.033a.276.276 0 0 0 .092-.105h.158l.046 1.84h-.204c-.088-.427-.207-.759-.356-.996-.273-.44-.666-.66-1.18-.66-.308 0-.55.095-.725.284a.946.946 0 0 0-.264.666c0 .404.303.764.91 1.08l.87.469c.936.51 1.404 1.103 1.404 1.78 0 .518-.194.942-.583 1.272-.39.33-.898.494-1.526.494-.264 0-.563-.044-.897-.132-.334-.087-.532-.131-.593-.131a.195.195 0 0 0-.139.056.39.39 0 0 0-.092.135h-.171v-2.13zm5.273 0h.218c.101.5.237.885.409 1.153.307.492.758.738 1.351.738.33 0 .59-.09.781-.273a.935.935 0 0 0 .287-.709.976.976 0 0 0-.165-.534c-.11-.171-.303-.338-.58-.5l-.738-.423c-.54-.29-.939-.582-1.193-.876a1.54 1.54 0 0 1-.383-1.042c0-.492.176-.896.528-1.213.351-.316.793-.474 1.325-.474.232 0 .488.044.767.132.28.087.437.131.472.131.079 0 .136-.01.171-.033a.276.276 0 0 0 .092-.105h.159l.046 1.84h-.205c-.087-.427-.206-.759-.355-.996-.273-.44-.666-.66-1.18-.66-.308 0-.55.095-.726.284a.946.946 0 0 0-.263.666c0 .404.303.764.91 1.08l.87.469c.936.51 1.404 1.103 1.404 1.78 0 .518-.195.942-.584 1.272-.389.33-.897.494-1.526.494-.263 0-.562-.044-.896-.132-.334-.087-.532-.131-.593-.131a.195.195 0 0 0-.139.056.39.39 0 0 0-.092.135h-.172v-2.13zm9.295-3.464c.466.428.699 1.036.699 1.822h-4.186c.044 1.02.275 1.762.692 2.228.418.466.912.699 1.483.699.462 0 .85-.12 1.167-.363.316-.241.609-.584.877-1.028l.23.08c-.18.557-.517 1.074-1.011 1.548-.495.475-1.1.712-1.816.712-.827 0-1.465-.312-1.915-.936-.45-.624-.676-1.342-.676-2.155 0-.884.261-1.646.784-2.288.523-.641 1.205-.962 2.044-.962.62 0 1.162.214 1.628.643zm-3.157.504c-.141.237-.242.536-.304.896h2.782c-.048-.44-.132-.766-.25-.982-.216-.387-.576-.58-1.081-.58-.501 0-.884.222-1.147.666zm4.693 4.851c.312-.04.53-.117.656-.234.125-.116.188-.376.188-.78v-3.343c0-.281-.026-.479-.08-.593-.083-.167-.254-.25-.513-.25-.04 0-.08.002-.122.006a4.341 4.341 0 0 0-.155.02v-.23c.18-.054.606-.19 1.279-.41l.62-.204c.03 0 .049.011.055.033.007.022.01.053.01.092v.97c.404-.379.72-.638.95-.778a1.98 1.98 0 0 1 1.067-.323c.3 0 .572.085.818.257.474.334.712.929.712 1.786v3.078c0 .317.063.545.19.686.128.14.341.213.64.217V233h-2.815v-.185c.321-.044.545-.133.673-.267.127-.134.191-.425.191-.873v-2.815c0-.378-.07-.69-.211-.939-.14-.248-.4-.372-.778-.372-.26 0-.523.087-.79.263-.15.101-.344.268-.58.501v3.692c0 .316.07.528.21.636.14.107.363.166.666.174V233h-2.88v-.185zm9.354 1.286c-.32.382-.666.657-1.035.824l-.125-.264c.422-.237.713-.494.873-.771.16-.277.241-.508.241-.692 0-.062-.02-.101-.06-.119a.305.305 0 0 0-.125-.026l-.441.046a.803.803 0 0 1-.508-.181c-.154-.121-.23-.296-.23-.524a.84.84 0 0 1 .19-.515c.128-.167.337-.25.627-.25.277 0 .525.109.745.326.22.218.33.52.33.907 0 .443-.161.857-.482 1.239zm8.043-7.12c.175.093.345.22.507.383v-2.096c0-.268-.03-.453-.089-.554-.06-.101-.2-.151-.425-.151a1.27 1.27 0 0 0-.138.006l-.264.026v-.217l.54-.138c.198-.053.396-.108.594-.165.197-.057.371-.112.52-.165.07-.022.187-.064.35-.125l.04.013-.014.692-.013.775c-.004.265-.007.528-.007.787l-.013 5.386c0 .285.035.485.106.6.07.114.257.171.56.171.048 0 .097-.001.145-.003.048-.003.097-.008.145-.017v.218c-.026.009-.345.118-.956.33l-1.035.388-.046-.06v-.81c-.246.268-.459.46-.64.574a2.08 2.08 0 0 1-1.113.296c-.747 0-1.353-.289-1.816-.867a3.115 3.115 0 0 1-.696-2.007c0-.953.278-1.772.834-2.455.556-.684 1.236-1.025 2.04-1.025.321 0 .616.07.884.21zm.19 5.13c.212-.203.317-.394.317-.574v-2.828c0-.572-.153-.975-.458-1.21-.305-.235-.603-.353-.893-.353-.554 0-.985.245-1.292.735-.308.49-.462 1.094-.462 1.81 0 .707.164 1.338.492 1.892.327.553.816.83 1.466.83.343 0 .62-.1.83-.303zm7.219-4.651c.466.428.699 1.036.699 1.822h-4.186c.044 1.02.275 1.762.692 2.228.418.466.912.699 1.483.699.462 0 .85-.12 1.167-.363.316-.241.609-.584.877-1.028l.23.08c-.18.557-.517 1.074-1.011 1.548-.495.475-1.1.712-1.816.712-.827 0-1.465-.312-1.915-.936-.45-.624-.676-1.342-.676-2.155 0-.884.261-1.646.784-2.288.523-.641 1.204-.962 2.044-.962.62 0 1.162.214 1.628.643zm-3.157.504c-.141.237-.242.536-.304.896h2.782c-.048-.44-.132-.766-.25-.982-.216-.387-.576-.58-1.081-.58-.501 0-.884.222-1.147.666zm4.693 4.851c.312-.04.53-.117.656-.234.125-.116.188-.376.188-.78v-3.343c0-.281-.026-.479-.08-.593-.083-.167-.254-.25-.513-.25-.04 0-.08.002-.122.006a4.341 4.341 0 0 0-.155.02v-.23c.18-.054.606-.19 1.279-.41l.62-.204c.03 0 .049.011.055.033.007.022.01.053.01.092v.97c.404-.379.72-.638.95-.778a1.98 1.98 0 0 1 1.067-.323c.299 0 .571.085.818.257.474.334.712.929.712 1.786v3.078c0 .317.063.545.19.686.128.14.341.213.64.217V233h-2.815v-.185c.321-.044.545-.133.673-.267.127-.134.19-.425.19-.873v-2.815c0-.378-.07-.69-.21-.939-.14-.248-.4-.372-.778-.372-.26 0-.523.087-.79.263-.15.101-.344.268-.581.501v3.692c0 .316.07.528.211.636.14.107.363.166.666.174V233h-2.88v-.185zm6.77 0c.312-.04.53-.117.656-.234.125-.116.188-.376.188-.78v-3.343c0-.281-.026-.479-.08-.593-.083-.167-.254-.25-.513-.25-.04 0-.08.002-.122.006a4.341 4.341 0 0 0-.155.02v-.23c.18-.054.606-.19 1.279-.41l.62-.204c.03 0 .049.011.055.033.007.022.01.053.01.092v.97c.404-.379.72-.638.95-.778a1.98 1.98 0 0 1 1.067-.323c.299 0 .571.085.818.257.474.334.712.929.712 1.786v3.078c0 .317.063.545.19.686.128.14.341.213.64.217V233h-2.815v-.185c.321-.044.545-.133.673-.267.127-.134.19-.425.19-.873v-2.815c0-.378-.07-.69-.21-.939-.14-.248-.4-.372-.778-.372-.26 0-.523.087-.79.263-.15.101-.344.268-.581.501v3.692c0 .316.07.528.211.636.14.107.363.166.666.174V233h-2.88v-.185zm12.01-5.919v4.219c0 .299.043.538.126.718.163.334.462.501.897.501.298 0 .59-.099.876-.296.163-.11.328-.262.495-.455v-3.613c0-.338-.066-.56-.198-.665-.132-.106-.396-.17-.791-.191v-.218h2.129v4.64c0 .3.054.505.162.617.107.112.335.161.682.148v.185c-.242.066-.42.115-.534.148a19.2 19.2 0 0 0-.574.181c-.114.04-.364.134-.751.284-.022 0-.035-.01-.04-.03a.322.322 0 0 1-.006-.069v-1.061c-.3.356-.572.62-.818.79a2.023 2.023 0 0 1-1.186.396c-.382 0-.743-.136-1.081-.408-.343-.269-.514-.719-.514-1.352v-3.42c0-.352-.075-.588-.224-.706-.097-.075-.304-.128-.62-.158v-.185h1.97zm4.925 5.92c.312-.04.53-.118.656-.235.125-.116.188-.376.188-.78v-3.343c0-.281-.026-.479-.08-.593-.083-.167-.254-.25-.513-.25-.04 0-.08.002-.122.006a4.341 4.341 0 0 0-.155.02v-.23c.18-.054.606-.19 1.279-.41l.62-.204c.03 0 .049.011.055.033.007.022.01.053.01.092v.97c.404-.379.72-.638.95-.778a1.98 1.98 0 0 1 1.067-.323c.299 0 .571.085.818.257.474.334.712.929.712 1.786v3.078c0 .317.063.545.19.686.128.14.341.213.64.217V233h-2.815v-.185c.321-.044.545-.133.673-.267.127-.134.19-.425.19-.873v-2.815c0-.378-.07-.69-.21-.939-.14-.248-.4-.372-.778-.372-.26 0-.523.087-.79.263-.15.101-.344.268-.581.501v3.692c0 .316.07.528.211.636.14.107.363.166.666.174V233h-2.88v-.185zm7.225-1.892h.217c.102.5.238.885.41 1.153.307.492.757.738 1.35.738.33 0 .59-.09.782-.273a.935.935 0 0 0 .286-.709.976.976 0 0 0-.164-.534c-.11-.171-.304-.338-.58-.5l-.739-.423c-.54-.29-.938-.582-1.193-.876a1.54 1.54 0 0 1-.382-1.042c0-.492.176-.896.527-1.213.352-.316.793-.474 1.325-.474.233 0 .489.044.768.132.28.087.436.131.471.131.08 0 .137-.01.172-.033a.276.276 0 0 0 .092-.105h.158l.046 1.84h-.204c-.088-.427-.207-.759-.356-.996-.272-.44-.666-.66-1.18-.66-.308 0-.55.095-.725.284a.946.946 0 0 0-.264.666c0 .404.304.764.91 1.08l.87.469c.936.51 1.404 1.103 1.404 1.78 0 .518-.194.942-.583 1.272-.39.33-.898.494-1.526.494-.264 0-.563-.044-.897-.132-.334-.087-.531-.131-.593-.131a.195.195 0 0 0-.138.056.39.39 0 0 0-.093.135h-.171v-2.13zm9.295-3.464c.465.428.698 1.036.698 1.822h-4.185c.044 1.02.274 1.762.692 2.228.417.466.912.699 1.483.699.461 0 .85-.12 1.167-.363.316-.241.608-.584.876-1.028l.231.08c-.18.557-.517 1.074-1.012 1.548-.494.475-1.1.712-1.816.712-.826 0-1.464-.312-1.915-.936-.45-.624-.675-1.342-.675-2.155 0-.884.261-1.646.784-2.288.523-.641 1.204-.962 2.043-.962.62 0 1.163.214 1.629.643zm-3.158.504c-.14.237-.242.536-.303.896h2.782c-.049-.44-.132-.766-.25-.982-.216-.387-.576-.58-1.082-.58-.5 0-.883.222-1.147.666zm4.51 4.818c.403-.035.672-.106.803-.214.132-.107.198-.337.198-.689v-2.973c0-.435-.04-.745-.122-.932-.081-.187-.23-.28-.445-.28-.044 0-.102.005-.174.016a3.394 3.394 0 0 0-.228.043v-.218l.771-.27c.264-.092.446-.158.547-.198.22-.083.447-.178.68-.283.03 0 .049.01.055.033a.6.6 0 0 1 .01.138v1.081c.282-.39.553-.696.814-.916.262-.22.533-.33.815-.33a.76.76 0 0 1 .547.202c.14.134.21.302.21.504 0 .18-.053.332-.16.455a.516.516 0 0 1-.406.184c-.167 0-.335-.077-.505-.23-.169-.154-.302-.231-.398-.231-.154 0-.343.124-.567.372-.224.249-.336.505-.336.768v2.973c0 .378.087.64.263.788.176.147.468.216.877.207V233h-3.25v-.218zm-245.987 16.502c.229.607.497 1.09.805 1.45.536.629 1.202.943 1.997.943.43 0 .803-.136 1.117-.409.314-.272.472-.652.472-1.14 0-.44-.159-.822-.475-1.147-.207-.207-.642-.516-1.305-.93l-1.154-.718a4.127 4.127 0 0 1-.83-.666c-.383-.426-.574-.896-.574-1.41 0-.682.226-1.248.68-1.701.452-.453 1.052-.679 1.799-.679.307 0 .678.076 1.11.227.433.152.68.228.742.228.167 0 .282-.04.346-.119a.855.855 0 0 0 .148-.336h.277l.297 2.874h-.323c-.22-.866-.573-1.47-1.058-1.813-.486-.343-.966-.514-1.44-.514-.37 0-.691.109-.966.326-.275.218-.412.52-.412.907 0 .347.105.644.316.89.211.25.539.512.982.784l1.187.732c.743.457 1.266.876 1.569 1.259.299.386.448.844.448 1.37 0 .708-.267 1.3-.8 1.774-.535.475-1.217.712-2.048.712-.417 0-.853-.08-1.308-.237-.455-.159-.715-.238-.781-.238-.158 0-.265.049-.32.145a.915.915 0 0 0-.109.31h-.296l-.402-2.874h.31zm11.434-3.075c.398.284.597.594.597.933 0 .145-.05.28-.152.405-.101.125-.257.188-.468.188a.585.585 0 0 1-.405-.158.917.917 0 0 1-.254-.462l-.08-.316c-.056-.233-.155-.398-.296-.494-.145-.093-.336-.139-.573-.139-.501 0-.924.219-1.27.656-.344.437-.517 1.019-.517 1.744 0 .663.19 1.259.57 1.786.38.527.894.791 1.54.791.457 0 .863-.15 1.22-.448.201-.172.43-.444.685-.818l.184.113c-.25.527-.514.944-.79 1.252-.533.589-1.148.883-1.846.883-.686 0-1.292-.27-1.82-.81-.527-.541-.79-1.275-.79-2.202 0-.91.287-1.692.863-2.347.575-.655 1.303-.982 2.182-.982.549 0 1.022.142 1.42.425zm1.355 5.606c.36-.048.597-.137.709-.267.112-.13.168-.436.168-.92v-6.327c0-.246-.032-.428-.096-.544-.064-.116-.219-.175-.465-.175-.048 0-.095.004-.141.01l-.155.023v-.237l.715-.208c.283-.081.48-.14.59-.174l.633-.198.013.046v4.047c.277-.316.523-.549.738-.698a2.18 2.18 0 0 1 1.253-.396c.712 0 1.197.299 1.456.897.141.316.211.731.211 1.245v2.69c0 .466.054.769.162.91.108.14.328.232.662.276V252h-2.854v-.185c.382-.052.628-.142.738-.27.11-.127.165-.433.165-.916v-2.67c0-.426-.071-.771-.214-1.035-.143-.263-.412-.395-.808-.395-.342 0-.674.123-.995.369-.32.246-.481.406-.481.481v3.25c0 .492.057.8.171.923.115.123.358.21.732.263V252h-2.907v-.185zm6.895 0c.312-.04.53-.117.656-.234.125-.116.188-.376.188-.78v-3.343c0-.281-.026-.479-.08-.593-.083-.167-.254-.25-.513-.25-.04 0-.08.002-.122.006a4.34 4.34 0 0 0-.155.02v-.23c.18-.054.606-.19 1.279-.41l.62-.204c.03 0 .049.011.055.033.007.022.01.053.01.092v.97c.404-.379.72-.638.95-.778a1.98 1.98 0 0 1 1.067-.323c.3 0 .572.085.818.257.474.334.712.929.712 1.786v3.078c0 .317.063.545.19.686.128.14.341.213.64.217V252H791.4v-.185c.321-.044.545-.133.673-.267.127-.134.191-.425.191-.873v-2.815c0-.378-.07-.69-.211-.939-.14-.248-.4-.372-.778-.372-.26 0-.523.087-.79.263-.15.101-.344.268-.58.501v3.692c0 .316.07.528.21.636.14.107.363.166.666.174V252h-2.88v-.185zm10.396-3.467a6.036 6.036 0 0 0-1.253.554c-.633.391-.949.835-.949 1.331 0 .4.132.695.396.884a.96.96 0 0 0 .573.184c.29 0 .568-.081.834-.244.266-.162.399-.369.399-.62v-2.089zm-2.42.745c.405-.264 1.211-.622 2.42-1.074v-.56c0-.449-.044-.761-.132-.937-.15-.294-.46-.441-.93-.441a1.28 1.28 0 0 0-.639.171c-.202.119-.303.281-.303.488 0 .052.01.141.033.267.022.125.033.205.033.24 0 .246-.082.418-.244.514a.614.614 0 0 1-.33.086c-.198 0-.35-.065-.455-.194a.668.668 0 0 1-.158-.432c0-.308.19-.63.57-.966.38-.336.938-.504 1.671-.504.853 0 1.43.277 1.734.83.163.304.244.745.244 1.325v2.644c0 .255.018.43.053.527.057.172.175.257.356.257a.593.593 0 0 0 .25-.046c.066-.03.18-.105.343-.224v.343c-.14.171-.292.312-.455.422-.246.167-.497.25-.751.25-.3 0-.516-.097-.65-.29a1.3 1.3 0 0 1-.22-.692c-.335.29-.62.505-.857.646-.4.237-.78.356-1.14.356a1.37 1.37 0 0 1-.983-.399c-.277-.266-.415-.603-.415-1.012 0-.637.318-1.169.956-1.595zm7.229 2.363c.226.147.493.221.8.221.475 0 .88-.236 1.217-.709.336-.472.504-1.13.504-1.974 0-.808-.175-1.413-.524-1.813-.35-.4-.755-.6-1.216-.6-.325 0-.622.1-.89.3-.268.2-.402.397-.402.59v3.316c.114.299.284.522.51.67zm-2.607 3.266c.413-.026.675-.114.787-.263.112-.15.168-.385.168-.706v-6.328c0-.334-.04-.548-.122-.642-.08-.095-.234-.142-.458-.142-.048 0-.093.002-.135.006a3.285 3.285 0 0 0-.181.027v-.218l.626-.204c.022-.004.464-.156 1.325-.455.022 0 .039.01.05.03a.14.14 0 0 1 .016.069v.89c.29-.29.545-.505.765-.646a2.28 2.28 0 0 1 1.22-.37c.606 0 1.127.259 1.565.775.437.517.656 1.223.656 2.12 0 .878-.263 1.676-.788 2.392-.525.717-1.186 1.075-1.981 1.075-.246 0-.46-.03-.64-.092a1.908 1.908 0 0 1-.777-.508v2.156c0 .443.072.716.217.817.145.101.462.17.95.204v.23h-3.263v-.217zm7.409-4.798h.218c.1.5.237.885.408 1.153.308.492.758.738 1.352.738.33 0 .59-.09.78-.273a.935.935 0 0 0 .287-.709.976.976 0 0 0-.164-.534c-.11-.171-.304-.338-.58-.5l-.739-.423c-.54-.29-.938-.582-1.193-.876a1.54 1.54 0 0 1-.382-1.042c0-.492.176-.896.527-1.213.352-.316.793-.474 1.325-.474.233 0 .489.044.768.132.28.087.436.131.471.131.08 0 .137-.01.172-.033a.276.276 0 0 0 .092-.105h.158l.046 1.84h-.204c-.088-.427-.207-.759-.356-.996-.272-.44-.666-.66-1.18-.66-.307 0-.55.095-.725.284a.946.946 0 0 0-.264.666c0 .404.304.764.91 1.08l.87.469c.936.51 1.404 1.103 1.404 1.78 0 .518-.194.942-.583 1.272-.39.33-.898.494-1.526.494-.264 0-.563-.044-.897-.132-.334-.087-.531-.131-.593-.131a.195.195 0 0 0-.138.056.39.39 0 0 0-.093.135h-.171v-2.13zm8.669 0h.217c.101.5.237.885.409 1.153.307.492.758.738 1.351.738.33 0 .59-.09.781-.273a.935.935 0 0 0 .287-.709.976.976 0 0 0-.165-.534c-.11-.171-.303-.338-.58-.5l-.738-.423c-.54-.29-.938-.582-1.193-.876a1.54 1.54 0 0 1-.383-1.042c0-.492.176-.896.528-1.213.351-.316.793-.474 1.325-.474.233 0 .489.044.768.132.279.087.436.131.471.131.08 0 .136-.01.171-.033a.276.276 0 0 0 .093-.105h.158l.046 1.84h-.204c-.088-.427-.207-.759-.356-.996-.273-.44-.666-.66-1.18-.66-.308 0-.55.095-.725.284a.946.946 0 0 0-.264.666c0 .404.303.764.91 1.08l.87.469c.936.51 1.404 1.103 1.404 1.78 0 .518-.195.942-.584 1.272-.388.33-.897.494-1.526.494-.263 0-.562-.044-.896-.132-.334-.087-.532-.131-.593-.131a.195.195 0 0 0-.139.056.39.39 0 0 0-.092.135h-.171v-2.13zm9.35-3.715c.398.284.597.594.597.933 0 .145-.05.28-.152.405-.1.125-.257.188-.468.188a.585.585 0 0 1-.405-.158.917.917 0 0 1-.254-.462l-.079-.316c-.057-.233-.156-.398-.297-.494-.145-.093-.336-.139-.573-.139-.501 0-.924.219-1.27.656-.344.437-.517 1.019-.517 1.744 0 .663.19 1.259.57 1.786.38.527.894.791 1.54.791.457 0 .863-.15 1.22-.448.201-.172.43-.444.685-.818l.184.113c-.25.527-.514.944-.79 1.252-.532.589-1.148.883-1.846.883-.686 0-1.292-.27-1.82-.81-.527-.541-.79-1.275-.79-2.202 0-.91.287-1.692.863-2.347.576-.655 1.303-.982 2.182-.982.55 0 1.023.142 1.42.425zm1.355 5.606c.36-.048.597-.137.709-.267.112-.13.168-.436.168-.92v-6.327c0-.246-.032-.428-.096-.544-.063-.116-.218-.175-.464-.175-.049 0-.096.004-.142.01l-.155.023v-.237l.715-.208c.284-.081.48-.14.59-.174l.633-.198.013.046v4.047c.277-.316.523-.549.738-.698a2.18 2.18 0 0 1 1.253-.396c.712 0 1.197.299 1.457.897.14.316.21.731.21 1.245v2.69c0 .466.054.769.162.91.108.14.329.232.663.276V252h-2.855v-.185c.383-.052.629-.142.739-.27.11-.127.164-.433.164-.916v-2.67c0-.426-.071-.771-.214-1.035-.143-.263-.412-.395-.807-.395-.343 0-.675.123-.996.369-.32.246-.48.406-.48.481v3.25c0 .492.056.8.17.923.115.123.359.21.732.263V252h-2.907v-.185zm6.869.014c.343-.031.571-.088.686-.172.175-.127.263-.382.263-.764v-3.408c0-.326-.043-.539-.128-.64-.086-.1-.228-.151-.425-.151-.093 0-.162.004-.208.013-.046.009-.1.024-.162.046v-.23l.475-.159c.171-.057.453-.16.844-.31.39-.15.597-.224.62-.224.021 0 .035.011.039.033a.767.767 0 0 1 .007.125v.89c.435-.395.81-.669 1.127-.82.316-.152.641-.228.975-.228.453 0 .813.154 1.081.462.141.166.257.393.35.678.325-.33.608-.573.85-.731.418-.273.844-.409 1.279-.409.707 0 1.18.288 1.417.864.136.325.204.839.204 1.542v2.736c0 .312.07.524.208.636.139.112.388.185.748.22V252h-2.973v-.185c.383-.035.634-.112.755-.23.121-.119.181-.36.181-.725v-2.841c0-.427-.046-.74-.138-.943-.163-.36-.481-.54-.956-.54-.285 0-.569.094-.85.283-.163.11-.363.285-.6.527v3.375c0 .356.063.626.188.811.125.185.39.283.794.297V252h-3.025v-.171c.417-.053.683-.154.797-.304.114-.149.172-.516.172-1.1v-1.846c0-.677-.044-1.143-.132-1.398-.145-.43-.453-.646-.923-.646-.268 0-.532.074-.791.221-.26.147-.488.34-.686.577v3.606c0 .334.059.564.175.692.116.127.37.193.761.198V252h-2.999v-.171zm15.023-5.37c.466.43.699 1.037.699 1.823h-4.186c.044 1.02.275 1.762.692 2.228.418.466.912.699 1.483.699.462 0 .85-.12 1.167-.363.316-.241.609-.584.877-1.028l.23.08c-.18.557-.517 1.074-1.011 1.548-.495.475-1.1.712-1.817.712-.826 0-1.464-.312-1.914-.936-.45-.624-.676-1.342-.676-2.155 0-.884.261-1.646.784-2.288.523-.641 1.204-.962 2.044-.962.62 0 1.162.214 1.628.643zm-3.157.505c-.141.237-.242.536-.304.896h2.782c-.048-.44-.132-.766-.25-.982-.216-.387-.576-.58-1.082-.58-.5 0-.883.222-1.146.666zm9.225-.755c.398.284.597.594.597.933 0 .145-.051.28-.152.405s-.257.188-.468.188a.585.585 0 0 1-.406-.158.917.917 0 0 1-.253-.462l-.08-.316c-.057-.233-.155-.398-.296-.494-.145-.093-.336-.139-.574-.139-.5 0-.923.219-1.268.656-.345.437-.518 1.019-.518 1.744 0 .663.19 1.259.57 1.786.38.527.893.791 1.54.791.457 0 .863-.15 1.219-.448.202-.172.43-.444.686-.818l.184.113c-.25.527-.514.944-.79 1.252-.533.589-1.148.883-1.847.883-.685 0-1.292-.27-1.819-.81-.527-.541-.791-1.275-.791-2.202 0-.91.288-1.692.864-2.347.575-.655 1.303-.982 2.181-.982.55 0 1.023.142 1.421.425zm1.263 5.606c.421-.03.7-.1.833-.21.134-.11.201-.348.201-.712v-6.605c0-.312-.052-.51-.158-.594-.105-.083-.257-.125-.455-.125a3.105 3.105 0 0 0-.421.026v-.184l.593-.158c.452-.119.837-.231 1.153-.336.194-.066.306-.1.337-.1.026 0 .042.006.049.017.007.011.01.036.01.076v5.544l1.826-1.609c.132-.118.22-.213.267-.283a.352.352 0 0 0 .069-.185c0-.1-.05-.165-.148-.191a2.983 2.983 0 0 0-.531-.06v-.184h2.749v.185c-.492.03-.888.128-1.187.293-.299.165-.872.636-1.72 1.414l-.39.356 1.22 1.582c.624.809 1.095 1.346 1.411 1.612.316.266.653.414 1.009.445V252h-2.934v-.185l.23-.013a.605.605 0 0 0 .205-.046c.062-.026.093-.07.093-.132a.286.286 0 0 0-.033-.135 1.085 1.085 0 0 0-.093-.142l-2.043-2.689v2.439c0 .303.112.505.336.606.132.062.358.095.679.1V252h-3.157v-.185zm10.177-5.893v.475h-1.344l-.013 3.797c0 .334.028.587.085.758.106.303.312.455.62.455a.746.746 0 0 0 .412-.112c.116-.075.25-.194.399-.356l.171.145-.145.197c-.228.308-.47.526-.725.653a1.648 1.648 0 0 1-.738.191c-.519 0-.87-.23-1.055-.692-.101-.25-.152-.598-.152-1.041v-3.995h-.718a.194.194 0 0 1-.05-.04.08.08 0 0 1-.016-.052c0-.044.01-.078.03-.102.02-.025.082-.08.187-.169.304-.25.522-.453.656-.61.134-.155.45-.567.946-1.235.057 0 .091.004.102.013.011.009.017.042.017.099v1.621h1.331zm7.601 2.426a6.036 6.036 0 0 0-1.252.554c-.633.391-.95.835-.95 1.331 0 .4.132.695.396.884a.96.96 0 0 0 .574.184c.29 0 .568-.081.833-.244.266-.162.4-.369.4-.62v-2.089zm-2.419.745c.404-.264 1.21-.622 2.42-1.074v-.56c0-.449-.045-.761-.133-.937-.149-.294-.459-.441-.929-.441a1.28 1.28 0 0 0-.64.171c-.202.119-.303.281-.303.488 0 .052.011.141.033.267.022.125.033.205.033.24 0 .246-.081.418-.244.514a.614.614 0 0 1-.33.086c-.197 0-.349-.065-.454-.194a.668.668 0 0 1-.158-.432c0-.308.19-.63.57-.966.38-.336.937-.504 1.671-.504.852 0 1.43.277 1.734.83.162.304.243.745.243 1.325v2.644c0 .255.018.43.053.527.057.172.176.257.356.257a.593.593 0 0 0 .25-.046c.067-.03.18-.105.343-.224v.343c-.14.171-.292.312-.454.422-.246.167-.497.25-.752.25-.299 0-.515-.097-.65-.29a1.3 1.3 0 0 1-.22-.692c-.334.29-.62.505-.857.646-.4.237-.78.356-1.14.356a1.37 1.37 0 0 1-.982-.399c-.277-.266-.416-.603-.416-1.012 0-.637.319-1.169.956-1.595zm6.651-3.197v4.219c0 .299.042.538.126.718.162.334.461.501.896.501.299 0 .591-.099.877-.296.162-.11.327-.262.494-.455v-3.613c0-.338-.066-.56-.198-.665-.131-.106-.395-.17-.79-.191v-.218h2.129v4.64c0 .3.053.505.161.617.108.112.335.161.682.148v.185c-.241.066-.42.115-.534.148a19.2 19.2 0 0 0-.573.181c-.114.04-.365.134-.752.284-.021 0-.035-.01-.04-.03a.322.322 0 0 1-.006-.069v-1.061c-.298.356-.571.62-.817.79a2.023 2.023 0 0 1-1.187.396c-.382 0-.742-.136-1.08-.408-.343-.269-.515-.719-.515-1.352v-3.42c0-.352-.074-.588-.224-.706-.097-.075-.303-.128-.62-.158v-.185h1.971zm4.944 5.92c.466-.023.773-.11.92-.26.147-.153.22-.472.22-.96v-4.232h-1.126v-.442h1.127c0-.694.094-1.28.283-1.76.36-.918 1.022-1.377 1.984-1.377.387 0 .733.077 1.039.23.305.154.458.36.458.62a.558.558 0 0 1-.158.389.502.502 0 0 1-.383.171.498.498 0 0 1-.33-.115 1.928 1.928 0 0 1-.329-.405l-.112-.172a.964.964 0 0 0-.218-.234.564.564 0 0 0-.349-.095c-.334 0-.56.164-.679.494-.066.176-.099.406-.099.692v1.562h1.655v.442h-1.642v4.232c0 .497.067.814.202.952.134.139.484.228 1.05.267V252h-3.513v-.185zm6.2 2.168c.416.14.891.211 1.427.211.73 0 1.323-.126 1.78-.379.457-.253.686-.564.686-.933 0-.294-.185-.49-.554-.586-.228-.057-.661-.09-1.299-.1-.162-.004-.334-.01-.514-.016s-.345-.014-.494-.023a5.515 5.515 0 0 1-.468-.053 8.42 8.42 0 0 1-.481-.079c-.053 0-.183.139-.39.416-.21.28-.316.54-.316.777 0 .37.208.625.623.765zm-.698-4.904a2.034 2.034 0 0 1-.333-1.14c0-.515.204-1.002.613-1.464.408-.461.986-.692 1.733-.692.321 0 .675.076 1.062.227.386.152.758.228 1.114.228.092 0 .231-.004.418-.01.187-.007.322-.01.406-.01h.079v.534h-1.14c.078.185.14.345.184.481.075.255.112.497.112.725 0 .501-.208.962-.623 1.381-.415.42-.974.63-1.678.63-.11 0-.307-.02-.593-.06-.127 0-.295.108-.504.323-.209.216-.313.392-.313.528 0 .14.154.244.461.31.202.044.426.065.673.065 1.129 0 1.896.064 2.3.192.664.206.995.65.995 1.331 0 .695-.387 1.248-1.163 1.661-.776.413-1.559.62-2.35.62-.72 0-1.292-.146-1.714-.438-.422-.293-.633-.6-.633-.92 0-.158.056-.313.168-.465.113-.151.333-.377.663-.675l.435-.39.08-.078a2.044 2.044 0 0 1-.456-.231c-.176-.136-.263-.292-.263-.468 0-.163.075-.342.227-.537.152-.196.476-.513.972-.953-.4-.132-.71-.367-.932-.705zm2.791.376c.264-.211.396-.578.396-1.101 0-.418-.107-.888-.32-1.41-.213-.524-.568-.785-1.065-.785-.43 0-.727.204-.89.613a2.218 2.218 0 0 0-.125.797c0 .536.13 1.018.39 1.444.258.426.595.64 1.008.64a.932.932 0 0 0 .606-.198zm2.789 2.326c.404-.035.672-.106.804-.214.132-.107.198-.337.198-.689v-2.973c0-.435-.041-.745-.122-.932-.082-.187-.23-.28-.445-.28-.044 0-.102.005-.175.016a3.394 3.394 0 0 0-.227.043v-.218l.77-.27c.265-.092.447-.158.548-.198.22-.083.446-.178.679-.283.03 0 .05.01.056.033a.6.6 0 0 1 .01.138v1.081c.281-.39.553-.696.814-.916.261-.22.533-.33.814-.33a.76.76 0 0 1 .547.202c.14.134.211.302.211.504 0 .18-.054.332-.161.455a.516.516 0 0 1-.406.184c-.167 0-.335-.077-.504-.23-.17-.154-.302-.231-.399-.231-.154 0-.343.124-.567.372-.224.249-.336.505-.336.768v2.973c0 .378.088.64.264.788.176.147.468.216.877.207V252h-3.25v-.218zm6.546-5.886v4.219c0 .299.041.538.125.718.162.334.461.501.896.501.3 0 .591-.099.877-.296.163-.11.327-.262.494-.455v-3.613c0-.338-.065-.56-.197-.665-.132-.106-.396-.17-.791-.191v-.218h2.129v4.64c0 .3.054.505.161.617.108.112.335.161.683.148v.185c-.242.066-.42.115-.534.148a19.2 19.2 0 0 0-.574.181c-.114.04-.365.134-.751.284-.022 0-.035-.01-.04-.03a.322.322 0 0 1-.006-.069v-1.061c-.3.356-.572.62-.818.79a2.023 2.023 0 0 1-1.186.396c-.383 0-.743-.136-1.081-.408-.343-.269-.515-.719-.515-1.352v-3.42c0-.352-.074-.588-.224-.706-.096-.075-.303-.128-.62-.158v-.185h1.972zm4.924 5.92c.312-.04.53-.118.656-.235.125-.116.188-.376.188-.78v-3.343c0-.281-.027-.479-.08-.593-.083-.167-.254-.25-.514-.25-.04 0-.08.002-.122.006a4.34 4.34 0 0 0-.154.02v-.23c.18-.054.606-.19 1.278-.41l.62-.204c.03 0 .05.011.056.033.007.022.01.053.01.092v.97c.404-.379.72-.638.95-.778a1.98 1.98 0 0 1 1.067-.323c.299 0 .571.085.817.257.475.334.712.929.712 1.786v3.078c0 .317.064.545.191.686.128.14.341.213.64.217V252h-2.815v-.185c.321-.044.545-.133.673-.267.127-.134.19-.425.19-.873v-2.815c0-.378-.07-.69-.21-.939-.14-.248-.4-.372-.778-.372-.26 0-.523.087-.791.263-.15.101-.343.268-.58.501v3.692c0 .316.07.528.21.636.141.107.363.166.667.174V252h-2.881v-.185zm10.606-5.834c.176.092.345.22.508.382v-2.096c0-.268-.03-.453-.09-.554-.058-.101-.2-.151-.424-.151a1.27 1.27 0 0 0-.139.006l-.263.026v-.217l.54-.138c.198-.053.396-.108.593-.165.198-.057.372-.112.521-.165.07-.022.187-.064.35-.125l.04.013-.014.692-.013.775c-.005.265-.007.528-.007.787l-.013 5.386c0 .285.035.485.105.6.07.114.258.171.56.171.05 0 .097-.001.146-.003.048-.003.096-.008.145-.017v.218c-.027.009-.345.118-.956.33l-1.035.388-.046-.06v-.81c-.246.268-.46.46-.64.574a2.08 2.08 0 0 1-1.114.296c-.747 0-1.352-.289-1.816-.867a3.115 3.115 0 0 1-.695-2.007c0-.953.278-1.772.834-2.455.556-.684 1.236-1.025 2.04-1.025.32 0 .615.07.883.21zm.192 5.128c.21-.202.316-.393.316-.573v-2.828c0-.572-.153-.975-.458-1.21-.306-.235-.603-.353-.893-.353-.554 0-.985.245-1.292.735-.308.49-.462 1.094-.462 1.81 0 .707.164 1.338.491 1.892.328.553.817.83 1.467.83.343 0 .62-.1.83-.303zm6.592-1.186h.217c.101.5.238.885.409 1.153.308.492.758.738 1.351.738.33 0 .59-.09.781-.273a.935.935 0 0 0 .287-.709.976.976 0 0 0-.165-.534c-.11-.171-.303-.338-.58-.5l-.738-.423c-.54-.29-.938-.582-1.193-.876a1.54 1.54 0 0 1-.382-1.042c0-.492.175-.896.527-1.213.351-.316.793-.474 1.325-.474.233 0 .489.044.768.132.279.087.436.131.471.131.08 0 .136-.01.172-.033a.276.276 0 0 0 .092-.105h.158l.046 1.84h-.204c-.088-.427-.207-.759-.356-.996-.273-.44-.666-.66-1.18-.66-.308 0-.55.095-.725.284a.946.946 0 0 0-.264.666c0 .404.303.764.91 1.08l.87.469c.936.51 1.404 1.103 1.404 1.78 0 .518-.194.942-.583 1.272-.39.33-.898.494-1.526.494-.264 0-.563-.044-.897-.132-.334-.087-.532-.131-.593-.131a.195.195 0 0 0-.139.056.39.39 0 0 0-.092.135h-.171v-2.13zm9.294-3.464c.466.428.7 1.036.7 1.822h-4.187c.044 1.02.275 1.762.692 2.228.418.466.912.699 1.484.699.461 0 .85-.12 1.166-.363.317-.241.609-.584.877-1.028l.23.08c-.18.557-.517 1.074-1.011 1.548-.494.475-1.1.712-1.816.712-.826 0-1.465-.312-1.915-.936-.45-.624-.676-1.342-.676-2.155 0-.884.262-1.646.785-2.288.523-.641 1.204-.962 2.043-.962.62 0 1.163.214 1.628.643zm-3.157.504c-.14.237-.242.536-.303.896h2.781c-.048-.44-.131-.766-.25-.982-.215-.387-.576-.58-1.081-.58-.501 0-.883.222-1.147.666zm5.755-3.962a.652.652 0 0 1 .488-.204.66.66 0 0 1 .484.2.668.668 0 0 1 .201.492.66.66 0 0 1-.2.484.66.66 0 0 1-.485.202.657.657 0 0 1-.488-.202.666.666 0 0 1-.198-.484c0-.189.066-.352.198-.488zm-1.042 8.813c.47-.044.767-.124.89-.24.123-.117.185-.432.185-.946v-3.144c0-.286-.02-.484-.06-.594-.065-.18-.204-.27-.415-.27a.756.756 0 0 0-.142.013 7.66 7.66 0 0 0-.398.106v-.205l.283-.092c.77-.25 1.305-.44 1.608-.567a.859.859 0 0 1 .238-.079c.009.03.013.064.013.099v4.733c0 .5.06.815.181.943.121.127.395.208.82.243V252h-3.203v-.185zm3.751 0c.312-.04.53-.117.656-.234.125-.116.188-.376.188-.78v-3.343c0-.281-.026-.479-.08-.593-.083-.167-.254-.25-.513-.25-.04 0-.08.002-.122.006a4.34 4.34 0 0 0-.155.02v-.23c.18-.054.606-.19 1.279-.41l.62-.204c.03 0 .049.011.055.033.007.022.01.053.01.092v.97c.405-.379.72-.638.95-.778a1.98 1.98 0 0 1 1.067-.323c.3 0 .572.085.818.257.474.334.712.929.712 1.786v3.078c0 .317.063.545.19.686.128.14.341.213.64.217V252h-2.814v-.185c.32-.044.544-.133.672-.267.127-.134.191-.425.191-.873v-2.815c0-.378-.07-.69-.21-.939-.142-.248-.4-.372-.779-.372-.259 0-.523.087-.79.263-.15.101-.344.268-.58.501v3.692c0 .316.07.528.21.636.14.107.363.166.666.174V252H938v-.185zm11.246-5.355c.466.428.699 1.036.699 1.822h-4.186c.044 1.02.275 1.762.692 2.228.418.466.912.699 1.483.699.462 0 .85-.12 1.167-.363.316-.241.609-.584.877-1.028l.23.08c-.18.557-.517 1.074-1.011 1.548-.495.475-1.1.712-1.816.712-.827 0-1.465-.312-1.915-.936-.45-.624-.676-1.342-.676-2.155 0-.884.262-1.646.784-2.288.523-.641 1.205-.962 2.044-.962.62 0 1.162.214 1.628.643zm-3.157.504c-.141.237-.242.536-.304.896h2.782c-.048-.44-.132-.766-.25-.982-.216-.387-.576-.58-1.081-.58-.501 0-.884.222-1.147.666zm4.509 4.818c.404-.035.672-.106.804-.214.132-.107.198-.337.198-.689v-2.973c0-.435-.041-.745-.122-.932-.082-.187-.23-.28-.445-.28-.044 0-.102.005-.175.016a3.394 3.394 0 0 0-.227.043v-.218l.77-.27c.265-.092.447-.158.548-.198.22-.083.446-.178.679-.283.03 0 .05.01.056.033a.6.6 0 0 1 .01.138v1.081c.281-.39.552-.696.814-.916.261-.22.533-.33.814-.33a.76.76 0 0 1 .547.202c.14.134.211.302.211.504 0 .18-.054.332-.161.455a.516.516 0 0 1-.406.184c-.167 0-.335-.077-.504-.23-.17-.154-.302-.231-.399-.231-.154 0-.343.124-.567.372-.224.249-.336.505-.336.768v2.973c0 .378.088.64.264.788.175.147.468.216.876.207V252h-3.25v-.218zm13.138-3.25l-1.563-3.717-1.542 3.718h3.105zM957.908 252v-.244c.348-.04.608-.171.782-.395.173-.225.47-.833.893-1.826l2.814-6.625h.264l3.362 7.653c.224.51.403.825.537.946.134.12.36.203.676.247V252H963.8v-.244c.396-.035.65-.078.765-.128.114-.051.171-.175.171-.373a1.64 1.64 0 0 0-.065-.35 3.8 3.8 0 0 0-.185-.527l-.56-1.298h-3.534a60.775 60.775 0 0 0-.629 1.618c-.068.196-.102.35-.102.465 0 .228.092.387.277.474.114.053.33.093.646.12V252h-2.677zm9.631-.218c.405-.035.673-.106.804-.214.132-.107.198-.337.198-.689v-2.973c0-.435-.04-.745-.122-.932-.081-.187-.23-.28-.445-.28-.044 0-.102.005-.174.016a3.394 3.394 0 0 0-.228.043v-.218l.771-.27c.264-.092.446-.158.548-.198.22-.083.446-.178.678-.283.031 0 .05.01.057.033a.6.6 0 0 1 .01.138v1.081c.28-.39.552-.696.814-.916.261-.22.532-.33.814-.33a.76.76 0 0 1 .547.202c.14.134.21.302.21.504 0 .18-.053.332-.16.455a.516.516 0 0 1-.406.184c-.167 0-.335-.077-.505-.23-.169-.154-.302-.231-.398-.231-.154 0-.343.124-.567.372-.224.249-.336.505-.336.768v2.973c0 .378.087.64.263.788.176.147.468.216.877.207V252h-3.25v-.218zm5.633-5.059c.556-.604 1.271-.906 2.146-.906.87 0 1.59.286 2.162.857.571.571.857 1.331.857 2.28 0 .875-.277 1.635-.83 2.281-.554.646-1.27.97-2.15.97-.843 0-1.558-.31-2.142-.93-.584-.62-.877-1.398-.877-2.334 0-.874.278-1.613.834-2.218zm1.058-.168c-.44.4-.66 1.09-.66 2.07 0 .782.178 1.512.532 2.188.353.677.844 1.016 1.473 1.016.492 0 .871-.227 1.137-.68.266-.452.399-1.045.399-1.78 0-.76-.17-1.476-.508-2.148-.338-.672-.828-1.009-1.47-1.009-.347 0-.648.115-.903.343zm4.753 5.274c.343-.031.571-.088.686-.172.175-.127.263-.382.263-.764v-3.408c0-.326-.043-.539-.128-.64-.086-.1-.228-.151-.425-.151-.093 0-.162.004-.208.013-.046.009-.1.024-.162.046v-.23l.475-.159c.171-.057.453-.16.844-.31.39-.15.597-.224.62-.224.021 0 .035.011.039.033a.767.767 0 0 1 .007.125v.89c.435-.395.81-.669 1.127-.82.316-.152.641-.228.975-.228.453 0 .813.154 1.081.462.141.166.257.393.35.678.325-.33.608-.573.85-.731.418-.273.844-.409 1.279-.409.707 0 1.18.288 1.417.864.136.325.204.839.204 1.542v2.736c0 .312.07.524.208.636.139.112.388.185.748.22V252h-2.973v-.185c.383-.035.634-.112.755-.23.121-.119.181-.36.181-.725v-2.841c0-.427-.046-.74-.138-.943-.163-.36-.481-.54-.956-.54-.285 0-.569.094-.85.283-.163.11-.363.285-.6.527v3.375c0 .356.063.626.188.811.125.185.39.283.794.297V252h-3.025v-.171c.417-.053.683-.154.797-.304.114-.149.172-.516.172-1.1v-1.846c0-.677-.044-1.143-.132-1.398-.145-.43-.453-.646-.923-.646-.268 0-.532.074-.791.221-.26.147-.488.34-.686.577v3.606c0 .334.058.564.175.692.116.127.37.193.761.198V252h-2.999v-.171zm15.023-5.37c.466.43.699 1.037.699 1.823h-4.186c.044 1.02.275 1.762.692 2.228.418.466.912.699 1.483.699.462 0 .85-.12 1.167-.363.316-.241.609-.584.877-1.028l.23.08c-.18.557-.517 1.074-1.011 1.548-.495.475-1.1.712-1.817.712-.826 0-1.464-.312-1.914-.936-.45-.624-.676-1.342-.676-2.155 0-.884.261-1.646.784-2.288.523-.641 1.204-.962 2.044-.962.62 0 1.162.214 1.628.643zm-3.158.505c-.14.237-.241.536-.303.896h2.782c-.048-.44-.132-.766-.25-.982-.216-.387-.576-.58-1.082-.58-.5 0-.883.222-1.147.666zm4.694 4.851c.312-.04.53-.117.656-.234.125-.116.188-.376.188-.78v-3.343c0-.281-.027-.479-.08-.593-.083-.167-.254-.25-.513-.25-.04 0-.08.002-.122.006a4.34 4.34 0 0 0-.155.02v-.23c.18-.054.606-.19 1.279-.41l.62-.204c.03 0 .049.011.055.033.007.022.01.053.01.092v.97c.404-.379.72-.638.95-.778a1.98 1.98 0 0 1 1.067-.323c.299 0 .571.085.818.257.474.334.711.929.711 1.786v3.078c0 .317.064.545.192.686.127.14.34.213.639.217V252h-2.815v-.185c.321-.044.545-.133.673-.267.127-.134.19-.425.19-.873v-2.815c0-.378-.07-.69-.21-.939-.14-.248-.4-.372-.778-.372-.26 0-.523.087-.79.263-.15.101-.344.268-.581.501v3.692c0 .316.07.528.21.636.142.107.363.166.667.174V252h-2.88v-.185zm6.79 0c.466-.022.772-.108.92-.26.147-.152.22-.471.22-.96v-4.231h-1.127v-.442h1.127c0-.694.095-1.28.284-1.76.36-.918 1.021-1.377 1.984-1.377.387 0 .733.077 1.038.23.305.154.458.36.458.62a.558.558 0 0 1-.158.389.502.502 0 0 1-.382.171.498.498 0 0 1-.33-.115 1.928 1.928 0 0 1-.33-.405l-.112-.172a.964.964 0 0 0-.217-.234.564.564 0 0 0-.35-.095c-.334 0-.56.164-.678.494-.066.176-.1.406-.1.692v1.562h1.655v.442h-1.641v4.232c0 .497.067.814.2.952.135.139.485.228 1.052.267V252h-3.513v-.185zm6.341-5.919v4.219c0 .299.042.538.126.718.162.334.461.501.896.501.299 0 .591-.099.877-.296.162-.11.327-.262.494-.455v-3.613c0-.338-.066-.56-.198-.665-.131-.106-.395-.17-.79-.191v-.218h2.129v4.64c0 .3.053.505.161.617.108.112.335.161.682.148v.185c-.241.066-.42.115-.534.148-.114.033-.305.094-.573.181-.114.04-.365.134-.752.284-.022 0-.035-.01-.04-.03a.322.322 0 0 1-.006-.069v-1.061c-.299.356-.571.62-.817.79a2.023 2.023 0 0 1-1.187.396c-.382 0-.742-.136-1.08-.408-.343-.269-.515-.719-.515-1.352v-3.42c0-.352-.075-.588-.224-.706-.097-.075-.303-.128-.62-.158v-.185h1.971zm3.115-1.154a.644.644 0 0 1-.478.198.647.647 0 0 1-.475-.198.647.647 0 0 1-.197-.474c0-.185.066-.343.197-.475a.647.647 0 0 1 .475-.198c.19 0 .348.066.478.198s.194.29.194.475a.653.653 0 0 1-.194.474zm-3.639-.949a.636.636 0 0 1 .472-.198c.189 0 .348.066.478.198s.194.29.194.475a.653.653 0 0 1-.194.474.644.644 0 0 1-.478.198.636.636 0 0 1-.472-.198.653.653 0 0 1-.194-.474c0-.185.065-.343.194-.475zm5.482 8.022c.408-.04.685-.122.83-.247.145-.125.218-.37.218-.735v-6.44c0-.29-.024-.49-.073-.6-.088-.184-.266-.277-.534-.277a1.13 1.13 0 0 0-.2.02 5.2 5.2 0 0 0-.274.06v-.218c.593-.158 1.307-.37 2.142-.633.03 0 .05.013.056.04.007.026.01.083.01.171v7.904c0 .382.066.63.198.741.132.112.404.184.817.214V252h-3.19v-.185zm3.77 0c.41-.04.686-.122.83-.247.146-.125.218-.37.218-.735v-6.44c0-.29-.024-.49-.072-.6-.088-.184-.266-.277-.534-.277a1.13 1.13 0 0 0-.201.02 5.2 5.2 0 0 0-.274.06v-.218c.594-.158 1.308-.37 2.143-.633.03 0 .05.013.056.04.006.026.01.083.01.171v7.904c0 .382.066.63.197.741.132.112.405.184.818.214V252h-3.19v-.185zm8.214-5.355c.466.428.699 1.036.699 1.822h-4.186c.044 1.02.275 1.762.692 2.228.418.466.912.699 1.483.699.462 0 .85-.12 1.167-.363.316-.241.609-.584.877-1.028l.23.08c-.18.557-.517 1.074-1.011 1.548-.495.475-1.1.712-1.817.712-.826 0-1.464-.312-1.914-.936-.45-.624-.676-1.342-.676-2.155 0-.884.261-1.646.784-2.288.523-.641 1.204-.962 2.044-.962.62 0 1.162.214 1.628.643zm-3.157.504c-.141.237-.242.536-.304.896h2.782c-.048-.44-.132-.766-.25-.982-.216-.387-.576-.58-1.082-.58-.5 0-.883.222-1.146.666zm-211.16 20.384a6.036 6.036 0 0 0-1.253.554c-.632.391-.949.835-.949 1.331 0 .4.132.695.396.884a.96.96 0 0 0 .573.184c.29 0 .568-.081.834-.244.266-.162.399-.369.399-.62v-2.089zm-2.42.745c.405-.264 1.211-.622 2.42-1.074v-.56c0-.449-.044-.761-.132-.937-.15-.294-.46-.441-.93-.441a1.28 1.28 0 0 0-.639.171c-.202.119-.303.281-.303.488 0 .052.01.141.033.267.022.125.033.205.033.24 0 .246-.081.418-.244.514a.614.614 0 0 1-.33.086c-.197 0-.349-.065-.455-.194a.668.668 0 0 1-.158-.432c0-.308.19-.63.57-.966.38-.336.938-.504 1.671-.504.853 0 1.43.277 1.734.83.163.304.244.745.244 1.325v2.644c0 .255.018.43.053.527.057.172.176.257.356.257a.593.593 0 0 0 .25-.046c.066-.03.18-.105.343-.224v.343c-.14.171-.292.312-.455.422-.246.167-.496.25-.751.25-.3 0-.516-.097-.65-.29a1.3 1.3 0 0 1-.22-.692c-.334.29-.62.505-.857.646-.4.237-.78.356-1.14.356a1.37 1.37 0 0 1-.983-.399c-.277-.266-.415-.603-.415-1.012 0-.637.318-1.169.956-1.595zm9.338-2.884c.398.284.597.594.597.933 0 .145-.05.28-.152.405-.101.125-.257.188-.468.188a.585.585 0 0 1-.405-.158.917.917 0 0 1-.254-.462l-.08-.316c-.056-.233-.155-.398-.296-.494-.145-.093-.336-.139-.573-.139-.501 0-.924.219-1.27.656-.344.437-.517 1.019-.517 1.744 0 .663.19 1.259.57 1.786.38.527.894.791 1.54.791.457 0 .863-.15 1.22-.448.201-.172.43-.444.685-.818l.184.113c-.25.527-.514.944-.79 1.252-.533.589-1.148.883-1.846.883-.686 0-1.292-.27-1.82-.81-.527-.541-.79-1.275-.79-2.202 0-.91.287-1.692.863-2.347.575-.655 1.303-.982 2.182-.982.549 0 1.022.142 1.42.425zm3.326-.313v4.219c0 .299.042.538.125.718.163.334.462.501.897.501.298 0 .59-.099.876-.296.163-.11.328-.262.495-.455v-3.613c0-.338-.066-.56-.198-.665-.132-.106-.396-.17-.791-.191v-.218h2.13v4.64c0 .3.053.505.16.617.108.112.336.161.683.148v.185c-.242.066-.42.115-.534.148a19.2 19.2 0 0 0-.574.181c-.114.04-.364.134-.751.284-.022 0-.035-.01-.04-.03a.322.322 0 0 1-.006-.069v-1.061c-.299.356-.571.62-.818.79a2.023 2.023 0 0 1-1.186.396c-.382 0-.743-.136-1.081-.408-.343-.269-.514-.719-.514-1.352v-3.42c0-.352-.075-.588-.224-.706-.097-.075-.304-.128-.62-.158v-.185h1.97zm4.799 5.92c.36-.049.597-.138.709-.268.112-.13.168-.436.168-.92v-6.327c0-.246-.032-.428-.096-.544-.064-.116-.219-.175-.465-.175-.048 0-.095.004-.141.01a14.7 14.7 0 0 0-.155.023v-.237l.715-.208c.283-.081.48-.14.59-.174l.633-.198.013.046v4.047c.277-.316.523-.549.738-.698a2.18 2.18 0 0 1 1.253-.396c.712 0 1.197.299 1.456.897.141.316.211.731.211 1.245v2.69c0 .466.054.769.162.91.108.14.328.232.662.276V271h-2.854v-.185c.382-.052.628-.142.738-.27.11-.127.165-.433.165-.916v-2.67c0-.426-.071-.771-.214-1.035-.143-.263-.412-.395-.808-.395-.342 0-.674.123-.995.369-.32.246-.481.406-.481.481v3.25c0 .492.057.8.171.923.115.123.358.21.732.263V271h-2.907v-.185zm10.745-1.892h.218c.1.5.237.885.408 1.153.308.492.758.738 1.352.738.33 0 .59-.09.78-.273a.935.935 0 0 0 .287-.709.976.976 0 0 0-.164-.534c-.11-.171-.304-.338-.58-.5l-.739-.423c-.54-.29-.938-.582-1.193-.876a1.54 1.54 0 0 1-.382-1.042c0-.492.176-.896.527-1.213.352-.316.793-.474 1.325-.474.233 0 .489.044.768.132.28.087.436.131.471.131.08 0 .137-.01.172-.033a.276.276 0 0 0 .092-.105h.158l.046 1.84h-.204c-.088-.427-.206-.759-.356-.996-.272-.44-.666-.66-1.18-.66-.307 0-.55.095-.725.284a.946.946 0 0 0-.264.666c0 .404.304.764.91 1.08l.87.469c.936.51 1.404 1.103 1.404 1.78 0 .518-.194.942-.583 1.272-.389.33-.898.494-1.526.494-.264 0-.563-.044-.897-.132-.334-.087-.531-.131-.593-.131a.195.195 0 0 0-.138.056.39.39 0 0 0-.093.135h-.171v-2.13zm9.35-3.715c.398.284.597.594.597.933 0 .145-.05.28-.151.405-.101.125-.257.188-.468.188a.585.585 0 0 1-.406-.158.917.917 0 0 1-.254-.462l-.079-.316c-.057-.233-.156-.398-.296-.494-.145-.093-.336-.139-.574-.139-.5 0-.924.219-1.269.656-.345.437-.517 1.019-.517 1.744 0 .663.19 1.259.57 1.786.38.527.893.791 1.54.791.456 0 .863-.15 1.219-.448.202-.172.43-.444.685-.818l.185.113c-.25.527-.514.944-.791 1.252-.532.589-1.147.883-1.846.883-.685 0-1.292-.27-1.82-.81-.527-.541-.79-1.275-.79-2.202 0-.91.288-1.692.863-2.347.576-.655 1.303-.982 2.182-.982.55 0 1.023.142 1.42.425zm1.356 5.606c.36-.048.596-.137.708-.267.112-.13.168-.436.168-.92v-6.327c0-.246-.032-.428-.095-.544-.064-.116-.219-.175-.465-.175-.048 0-.096.004-.142.01a14.7 14.7 0 0 0-.155.023v-.237l.716-.208c.283-.081.48-.14.59-.174l.632-.198.014.046v4.047c.276-.316.522-.549.738-.698a2.18 2.18 0 0 1 1.252-.396c.712 0 1.198.299 1.457.897.14.316.211.731.211 1.245v2.69c0 .466.054.769.161.91.108.14.329.232.663.276V271h-2.854v-.185c.382-.052.628-.142.738-.27.11-.127.165-.433.165-.916v-2.67c0-.426-.072-.771-.214-1.035-.143-.263-.412-.395-.808-.395-.343 0-.675.123-.995.369-.321.246-.482.406-.482.481v3.25c0 .492.058.8.172.923.114.123.358.21.732.263V271h-2.907v-.185zm7.828-5.092c.555-.604 1.27-.906 2.145-.906.87 0 1.591.286 2.162.857.572.571.857 1.331.857 2.28 0 .875-.277 1.635-.83 2.281-.554.646-1.27.97-2.15.97-.843 0-1.557-.31-2.142-.93-.584-.62-.876-1.398-.876-2.334 0-.874.278-1.613.834-2.218zm1.058-.168c-.44.4-.66 1.09-.66 2.07 0 .782.177 1.512.531 2.188.354.677.845 1.016 1.473 1.016.492 0 .871-.227 1.137-.68.266-.452.4-1.045.4-1.78 0-.76-.17-1.476-.508-2.148-.339-.672-.829-1.009-1.47-1.009-.348 0-.649.115-.903.343zm4.779 5.26c.312-.04.53-.117.656-.234.125-.116.188-.376.188-.78v-3.343c0-.281-.027-.479-.08-.593-.083-.167-.254-.25-.514-.25-.04 0-.08.002-.122.006a4.34 4.34 0 0 0-.155.02v-.23c.18-.054.607-.19 1.28-.41l.619-.204c.03 0 .05.011.056.033.006.022.01.053.01.092v.97c.404-.379.72-.638.949-.778a1.98 1.98 0 0 1 1.068-.323c.299 0 .571.085.817.257.475.334.712.929.712 1.786v3.078c0 .317.064.545.191.686.128.14.34.213.64.217V271h-2.815v-.185c.32-.044.545-.133.672-.267.128-.134.192-.425.192-.873v-2.815c0-.378-.07-.69-.211-.939-.141-.248-.4-.372-.778-.372-.26 0-.523.087-.791.263-.15.101-.343.268-.58.501v3.692c0 .316.07.528.21.636.141.107.363.166.666.174V271h-2.88v-.185zm11.226-8.813a.652.652 0 0 1 .488-.204.66.66 0 0 1 .484.2.668.668 0 0 1 .201.492.66.66 0 0 1-.2.484.66.66 0 0 1-.485.202.657.657 0 0 1-.488-.202.666.666 0 0 1-.198-.484c0-.189.066-.352.198-.488zm-1.041 8.813c.47-.044.766-.124.89-.24.123-.117.184-.432.184-.946v-3.144c0-.286-.02-.484-.06-.594-.065-.18-.204-.27-.415-.27a.756.756 0 0 0-.141.013 7.66 7.66 0 0 0-.4.106v-.205l.284-.092c.77-.25 1.306-.44 1.609-.567a.859.859 0 0 1 .237-.079c.009.03.013.064.013.099v4.733c0 .5.06.815.182.943.12.127.394.208.82.243V271h-3.203v-.185zm3.75 0c.313-.04.531-.117.656-.234.126-.116.188-.376.188-.78v-3.343c0-.281-.026-.479-.079-.593-.083-.167-.255-.25-.514-.25-.04 0-.08.002-.122.006a4.34 4.34 0 0 0-.155.02v-.23c.18-.054.607-.19 1.279-.41l.62-.204c.03 0 .049.011.056.033.006.022.01.053.01.092v.97c.404-.379.72-.638.949-.778a1.98 1.98 0 0 1 1.068-.323c.298 0 .57.085.817.257.475.334.712.929.712 1.786v3.078c0 .317.064.545.191.686.128.14.34.213.64.217V271h-2.815v-.185c.32-.044.545-.133.672-.267.128-.134.191-.425.191-.873v-2.815c0-.378-.07-.69-.21-.939-.141-.248-.4-.372-.778-.372-.26 0-.523.087-.791.263-.15.101-.343.268-.58.501v3.692c0 .316.07.528.21.636.141.107.363.166.666.174V271h-2.88v-.185zm9.948 0c.422-.03.7-.1.834-.21.134-.11.2-.348.2-.712v-6.605c0-.312-.052-.51-.157-.594-.106-.083-.257-.125-.455-.125a3.104 3.104 0 0 0-.422.026v-.184l.593-.158c.453-.119.837-.231 1.154-.336.193-.066.305-.1.336-.1.026 0 .043.006.05.017.006.011.01.036.01.076v5.544l1.825-1.609c.132-.118.221-.213.267-.283a.352.352 0 0 0 .07-.185c0-.1-.05-.165-.149-.191a2.983 2.983 0 0 0-.53-.06v-.184h2.748v.185c-.492.03-.887.128-1.186.293-.3.165-.873.636-1.72 1.414l-.39.356 1.22 1.582c.624.809 1.094 1.346 1.41 1.612.317.266.653.414 1.009.445V271h-2.933v-.185l.23-.013a.605.605 0 0 0 .205-.046c.061-.026.092-.07.092-.132a.286.286 0 0 0-.033-.135 1.085 1.085 0 0 0-.092-.142l-2.044-2.689v2.439c0 .303.112.505.337.606.131.062.358.095.678.1V271h-3.157v-.185zm7.02 0c.41-.04.686-.122.831-.247.145-.125.218-.37.218-.735v-6.44c0-.29-.025-.49-.073-.6-.088-.184-.266-.277-.534-.277a1.13 1.13 0 0 0-.2.02 5.2 5.2 0 0 0-.274.06v-.218c.593-.158 1.307-.37 2.142-.633.03 0 .05.013.056.04.006.026.01.083.01.171v7.904c0 .382.066.63.198.741.131.112.404.184.817.214V271h-3.19v-.185zm8.214-5.355c.466.428.699 1.036.699 1.822h-4.186c.044 1.02.275 1.762.692 2.228.418.466.912.699 1.483.699.462 0 .85-.12 1.167-.363.316-.241.609-.584.877-1.028l.23.08c-.18.557-.517 1.074-1.011 1.548-.495.475-1.1.712-1.816.712-.827 0-1.465-.312-1.915-.936-.45-.624-.676-1.342-.676-2.155 0-.884.262-1.646.784-2.288.523-.641 1.205-.962 2.044-.962.62 0 1.162.214 1.628.643zm-3.157.504c-.141.237-.242.536-.304.896h2.782c-.048-.44-.132-.766-.25-.982-.216-.387-.576-.58-1.081-.58-.501 0-.884.222-1.147.666zm5.754-3.962a.652.652 0 0 1 .488-.204.66.66 0 0 1 .485.2.668.668 0 0 1 .2.492.66.66 0 0 1-.2.484.66.66 0 0 1-.485.202.657.657 0 0 1-.488-.202.666.666 0 0 1-.197-.484c0-.189.066-.352.197-.488zm-1.041 8.813c.47-.044.767-.124.89-.24.123-.117.184-.432.184-.946v-3.144c0-.286-.02-.484-.059-.594-.066-.18-.204-.27-.415-.27a.756.756 0 0 0-.142.013 7.66 7.66 0 0 0-.399.106v-.205l.284-.092c.769-.25 1.305-.44 1.608-.567a.859.859 0 0 1 .237-.079c.01.03.014.064.014.099v4.733c0 .5.06.815.18.943.122.127.395.208.822.243V271h-3.204v-.185zm3.75 0c.313-.04.532-.117.657-.234.125-.116.188-.376.188-.78v-3.343c0-.281-.027-.479-.08-.593-.083-.167-.254-.25-.514-.25-.04 0-.08.002-.122.006a4.34 4.34 0 0 0-.154.02v-.23c.18-.054.606-.19 1.278-.41l.62-.204c.03 0 .05.011.056.033.007.022.01.053.01.092v.97c.404-.379.72-.638.95-.778a1.98 1.98 0 0 1 1.067-.323c.299 0 .571.085.817.257.475.334.712.929.712 1.786v3.078c0 .317.064.545.191.686.128.14.341.213.64.217V271h-2.815v-.185c.321-.044.545-.133.673-.267.127-.134.19-.425.19-.873v-2.815c0-.378-.07-.69-.21-.939-.14-.248-.4-.372-.778-.372-.26 0-.523.087-.791.263-.15.101-.343.268-.58.501v3.692c0 .316.07.528.21.636.141.107.363.166.667.174V271h-2.881v-.185zm11.247-5.355c.466.428.699 1.036.699 1.822h-4.186c.044 1.02.274 1.762.692 2.228.417.466.912.699 1.483.699.461 0 .85-.12 1.167-.363.316-.241.608-.584.876-1.028l.231.08c-.18.557-.517 1.074-1.012 1.548-.494.475-1.1.712-1.816.712-.826 0-1.464-.312-1.915-.936-.45-.624-.675-1.342-.675-2.155 0-.884.261-1.646.784-2.288.523-.641 1.204-.962 2.044-.962.62 0 1.162.214 1.628.643zm-3.158.504c-.14.237-.241.536-.303.896h2.782c-.049-.44-.132-.766-.25-.982-.216-.387-.576-.58-1.082-.58-.5 0-.883.222-1.147.666zm4.51 4.818c.404-.035.672-.106.804-.214.131-.107.197-.337.197-.689v-2.973c0-.435-.04-.745-.122-.932-.081-.187-.23-.28-.445-.28-.044 0-.102.005-.174.016a3.394 3.394 0 0 0-.228.043v-.218l.772-.27c.263-.092.446-.158.547-.198.22-.083.446-.178.679-.283.03 0 .049.01.056.033a.6.6 0 0 1 .01.138v1.081c.28-.39.552-.696.814-.916.261-.22.532-.33.814-.33a.76.76 0 0 1 .547.202c.14.134.21.302.21.504 0 .18-.053.332-.16.455a.516.516 0 0 1-.406.184c-.167 0-.335-.077-.504-.23-.17-.154-.303-.231-.4-.231-.153 0-.342.124-.566.372-.224.249-.336.505-.336.768v2.973c0 .378.088.64.263.788.176.147.468.216.877.207V271h-3.25v-.218zm9.175-5.322c.466.428.7 1.036.7 1.822h-4.187c.044 1.02.275 1.762.692 2.228.418.466.912.699 1.484.699.461 0 .85-.12 1.166-.363.317-.241.609-.584.877-1.028l.23.08c-.18.557-.517 1.074-1.011 1.548-.495.475-1.1.712-1.816.712-.826 0-1.465-.312-1.915-.936-.45-.624-.676-1.342-.676-2.155 0-.884.262-1.646.785-2.288.523-.641 1.204-.962 2.043-.962.62 0 1.162.214 1.628.643zm-3.157.504c-.14.237-.242.536-.303.896h2.781c-.048-.44-.131-.766-.25-.982-.215-.387-.576-.58-1.081-.58-.501 0-.883.222-1.147.666zm4.693 4.851c.312-.04.531-.117.656-.234.126-.116.188-.376.188-.78v-3.343c0-.281-.026-.479-.079-.593-.083-.167-.255-.25-.514-.25-.04 0-.08.002-.122.006a4.34 4.34 0 0 0-.155.02v-.23c.18-.054.607-.19 1.279-.41l.62-.204c.03 0 .049.011.056.033.006.022.01.053.01.092v.97c.404-.379.72-.638.949-.778a1.98 1.98 0 0 1 1.068-.323c.298 0 .57.085.817.257.475.334.712.929.712 1.786v3.078c0 .317.064.545.191.686.127.14.34.213.64.217V271h-2.815v-.185c.32-.044.545-.133.672-.267s.191-.425.191-.873v-2.815c0-.378-.07-.69-.21-.939-.141-.248-.4-.372-.779-.372-.259 0-.523.087-.79.263-.15.101-.343.268-.58.501v3.692c0 .316.07.528.21.636.14.107.363.166.666.174V271h-2.88v-.185zm10.073-.059c.558-.057.916-.183 1.075-.379.158-.195.237-.65.237-1.361v-5.485c0-.487-.077-.805-.23-.952-.155-.147-.504-.234-1.049-.26v-.25h2.67l3.124 6.808 2.986-6.809h2.69v.25c-.501.036-.824.127-.97.274-.144.147-.217.46-.217.94v6.005c0 .492.073.807.218.946.145.138.468.23.969.273V271h-3.784v-.244c.545-.044.885-.142 1.019-.293.134-.152.2-.513.2-1.085v-6.064L944.749 271h-.185l-3.395-7.37v5.386c0 .738.108 1.22.323 1.443.14.145.455.244.943.297V271h-3.17v-.244zm16.592-5.296c.466.428.699 1.036.699 1.822h-4.186c.044 1.02.275 1.762.692 2.228.417.466.912.699 1.483.699.462 0 .85-.12 1.167-.363.316-.241.609-.584.877-1.028l.23.08c-.18.557-.517 1.074-1.012 1.548-.494.475-1.1.712-1.816.712-.826 0-1.464-.312-1.914-.936-.45-.624-.676-1.342-.676-2.155 0-.884.261-1.646.784-2.288.523-.641 1.204-.962 2.044-.962.62 0 1.162.214 1.628.643zm-3.158.504c-.14.237-.241.536-.303.896h2.782c-.048-.44-.132-.766-.25-.982-.216-.387-.576-.58-1.082-.58-.5 0-.883.222-1.147.666zm4.694 4.851c.312-.04.53-.117.656-.234.125-.116.188-.376.188-.78v-3.343c0-.281-.027-.479-.08-.593-.083-.167-.254-.25-.513-.25-.04 0-.08.002-.122.006a4.34 4.34 0 0 0-.155.02v-.23c.18-.054.606-.19 1.278-.41l.62-.204c.03 0 .05.011.056.033.007.022.01.053.01.092v.97c.404-.379.72-.638.95-.778a1.98 1.98 0 0 1 1.067-.323c.299 0 .571.085.818.257.474.334.711.929.711 1.786v3.078c0 .317.064.545.192.686.127.14.34.213.639.217V271h-2.815v-.185c.321-.044.545-.133.673-.267.127-.134.19-.425.19-.873v-2.815c0-.378-.07-.69-.21-.939-.14-.248-.4-.372-.778-.372-.26 0-.523.087-.791.263-.15.101-.343.268-.58.501v3.692c0 .316.07.528.21.636.142.107.363.166.667.174V271h-2.881v-.185zm8.474 2.17c.415.14.891.21 1.427.21.73 0 1.323-.126 1.78-.379.457-.253.685-.564.685-.933 0-.294-.184-.49-.553-.586-.229-.057-.662-.09-1.299-.1a53.99 53.99 0 0 1-.514-.016c-.18-.006-.345-.014-.494-.023a5.515 5.515 0 0 1-.468-.053 8.42 8.42 0 0 1-.482-.079c-.052 0-.182.139-.388.416-.211.28-.317.54-.317.777 0 .37.208.625.623.765zm-.699-4.905a2.034 2.034 0 0 1-.333-1.14c0-.515.205-1.002.613-1.464.41-.461.987-.692 1.734-.692.32 0 .675.076 1.061.227.387.152.758.228 1.114.228.093 0 .232-.004.419-.01.187-.007.322-.01.405-.01h.08v.534h-1.14c.078.185.14.345.184.481.074.255.112.497.112.725 0 .501-.208.962-.623 1.381-.416.42-.975.63-1.678.63-.11 0-.307-.02-.593-.06-.128 0-.296.108-.504.323-.21.216-.313.392-.313.528 0 .14.153.244.46.31.203.044.427.065.673.065 1.13 0 1.897.064 2.3.192.664.206.996.65.996 1.331 0 .695-.388 1.248-1.163 1.661-.776.413-1.56.62-2.35.62-.72 0-1.292-.146-1.714-.438-.422-.293-.633-.6-.633-.92 0-.158.056-.313.168-.465.112-.151.333-.377.663-.675l.435-.39.079-.078a2.044 2.044 0 0 1-.455-.231c-.176-.136-.264-.292-.264-.468 0-.163.076-.342.228-.537.151-.196.475-.513.972-.953-.4-.132-.71-.367-.933-.705zm2.792.376c.264-.211.395-.578.395-1.101 0-.418-.106-.888-.32-1.41-.212-.524-.567-.785-1.064-.785-.43 0-.727.204-.89.613a2.218 2.218 0 0 0-.125.797c0 .536.13 1.018.389 1.444.26.426.595.64 1.008.64a.932.932 0 0 0 .607-.198zm7.449-2.996c.466.428.699 1.036.699 1.822h-4.186c.044 1.02.274 1.762.692 2.228.417.466.912.699 1.483.699.462 0 .85-.12 1.167-.363.316-.241.608-.584.877-1.028l.23.08c-.18.557-.517 1.074-1.012 1.548-.494.475-1.1.712-1.816.712-.826 0-1.464-.312-1.915-.936-.45-.624-.675-1.342-.675-2.155 0-.884.261-1.646.784-2.288.523-.641 1.204-.962 2.044-.962.62 0 1.162.214 1.628.643zm-3.158.504c-.14.237-.241.536-.303.896h2.782c-.048-.44-.132-.766-.25-.982-.216-.387-.576-.58-1.082-.58-.5 0-.883.222-1.147.666zm4.694 4.851c.312-.04.53-.117.656-.234.125-.116.188-.376.188-.78v-3.343c0-.281-.027-.479-.08-.593-.083-.167-.254-.25-.514-.25-.04 0-.08.002-.121.006a4.34 4.34 0 0 0-.155.02v-.23c.18-.054.606-.19 1.278-.41l.62-.204c.03 0 .05.011.056.033.007.022.01.053.01.092v.97c.404-.379.72-.638.95-.778a1.98 1.98 0 0 1 1.067-.323c.299 0 .571.085.817.257.475.334.712.929.712 1.786v3.078c0 .317.064.545.192.686.127.14.34.213.639.217V271h-2.815v-.185c.321-.044.545-.133.673-.267.127-.134.19-.425.19-.873v-2.815c0-.378-.07-.69-.21-.939-.14-.248-.4-.372-.778-.372-.26 0-.523.087-.791.263-.15.101-.343.268-.58.501v3.692c0 .316.07.528.21.636.141.107.363.166.667.174V271h-2.881v-.185zm8.194.122a.73.73 0 0 1-.218-.53c0-.207.074-.383.221-.528a.73.73 0 0 1 .53-.217c.207 0 .383.072.528.217.145.145.218.321.218.528a.735.735 0 0 1-.215.53.71.71 0 0 1-.53.221.72.72 0 0 1-.534-.22zM823.367 146.768h1.458l-4.138 10.276h-.315l-3.347-8.32-3.377 8.32h-.315l-4.123-10.276h1.472l2.82 7.053 2.834-7.053h1.392l2.849 7.053 2.79-7.053zm8.2 0h5.801v1.304h-4.336v3.12h4.19v1.31h-4.19v3.18h4.475v1.303h-5.94v-10.217zm13.115 0h1.465V157h-1.465v-10.232zm9.335 0h1.465v8.899h4.607V157h-6.072v-10.232zm33.876 0h1.458l-4.138 10.276h-.315l-3.348-8.32-3.376 8.32h-.315l-4.124-10.276h1.473l2.82 7.053 2.834-7.053h1.392l2.849 7.053 2.79-7.053zm8.2 0h5.801v1.304h-4.336v3.12h4.19v1.31h-4.19v3.18h4.475v1.303h-5.94v-10.217zm21.23 0h1.392V157h-1.26l-6.84-7.874V157h-1.378v-10.232h1.187l6.9 7.94v-7.94zm9.196 0h1.465V157h-1.465v-10.232zm14.866 5.193h3.435v4.336c-1.26.547-2.51.82-3.75.82-1.695 0-3.049-.494-4.062-1.483-1.013-.989-1.52-2.208-1.52-3.658 0-1.529.525-2.8 1.575-3.816 1.05-1.016 2.366-1.524 3.948-1.524.576 0 1.123.062 1.64.187.518.125 1.172.353 1.964.685v1.494c-1.221-.708-2.432-1.062-3.633-1.062-1.118 0-2.06.38-2.827 1.143-.767.761-1.15 1.696-1.15 2.805 0 1.162.383 2.112 1.15 2.849.766.737 1.752 1.106 2.959 1.106.585 0 1.286-.135 2.102-.403l.139-.044v-2.131h-1.97v-1.304zm11.173-5.193h5.801v1.304h-4.336v3.12h4.19v1.31h-4.19v3.18h4.475v1.303h-5.94v-10.217zM965.702 157v-10.232h2.564c1.035 0 1.856.256 2.464.77.608.512.912 1.205.912 2.08 0 .595-.149 1.11-.447 1.545-.297.434-.725.759-1.281.974.327.215.647.508.96.879.312.37.751 1.018 1.317 1.94.357.582.643 1.019.857 1.312l.542.732h-1.743l-.447-.674a1.745 1.745 0 0 0-.087-.124l-.286-.403-.454-.747-.49-.799a8.078 8.078 0 0 0-.832-1.003 3.163 3.163 0 0 0-.681-.538c-.203-.11-.544-.165-1.022-.165h-.381V157h-1.465zm1.904-8.987h-.439v3.23h.557c.742 0 1.25-.063 1.527-.19.276-.127.49-.319.644-.575.154-.257.231-.548.231-.875 0-.323-.085-.614-.256-.876a1.37 1.37 0 0 0-.722-.553c-.31-.107-.824-.16-1.542-.16zm-181.77 17.755h1.362V176h-1.473v-7.961l-3.149 3.955h-.271l-3.179-3.955V176h-1.465v-10.232h1.377l3.406 4.204 3.391-4.204zm12.433-.059h1.032L803.88 176h-1.501l-1.363-3.032h-4.35l-1.29 3.032h-1.5l4.394-10.29zm2.146 5.955l-1.648-3.706-1.531 3.706h3.179zm18.322-5.896h1.392V176h-1.26l-6.841-7.874V176h-1.377v-10.232h1.187l6.899 7.94v-7.94zm18 7.859v1.611c-1.074.586-2.315.88-3.72.88-1.143 0-2.113-.23-2.909-.69a5.07 5.07 0 0 1-1.89-1.896 5.152 5.152 0 0 1-.695-2.615c0-1.49.531-2.742 1.593-3.757 1.062-1.016 2.372-1.524 3.93-1.524 1.074 0 2.267.281 3.581.843v1.574c-1.196-.683-2.366-1.025-3.508-1.025-1.172 0-2.145.37-2.919 1.11-.774.74-1.16 1.666-1.16 2.779 0 1.123.38 2.046 1.142 2.769.761.722 1.735 1.084 2.922 1.084 1.24 0 2.451-.381 3.633-1.143zm14.616-7.859h1.465V176h-1.465v-4.453h-5.75V176h-1.464v-10.232h1.464v4.424h5.75v-4.424zm17.465 0h1.362V176h-1.472v-7.961l-3.15 3.955h-.27l-3.179-3.955V176h-1.465v-10.232h1.377l3.406 4.204 3.391-4.204zm12.434-.059h1.032L886.862 176h-1.501l-1.363-3.032h-4.35l-1.29 3.032h-1.5l4.394-10.29zm2.146 5.955l-1.648-3.706-1.531 3.706h3.179zm10.192-5.896h1.465v8.899h4.607V176h-6.072v-10.232zm30.865 0h1.363V176h-1.472v-7.961l-3.15 3.955h-.27l-3.18-3.955V176h-1.464v-10.232h1.377l3.405 4.204 3.391-4.204zm9.167 0h5.801v1.304h-4.336v3.12h4.19v1.31h-4.19v3.18h4.475v1.303h-5.94v-10.217zm20.315 0h1.465V176h-1.465v-4.453h-5.75V176h-1.465v-10.232h1.465v4.424h5.75v-4.424zM963.3 176v-10.232h2.564c1.035 0 1.857.256 2.464.77.608.512.912 1.205.912 2.08 0 .595-.149 1.11-.446 1.545-.298.434-.726.759-1.282.974.327.215.647.508.96.879.312.37.751 1.018 1.318 1.94.356.582.642 1.019.857 1.312l.542.732h-1.744l-.446-.674a1.745 1.745 0 0 0-.088-.124l-.286-.403-.454-.747-.49-.799a8.078 8.078 0 0 0-.832-1.003 3.163 3.163 0 0 0-.681-.538c-.203-.11-.543-.165-1.022-.165h-.38V176H963.3zm1.905-8.987h-.44v3.23h.557c.742 0 1.251-.063 1.527-.19s.49-.319.644-.575c.154-.257.231-.548.231-.875 0-.323-.085-.614-.256-.876a1.37 1.37 0 0 0-.722-.553c-.31-.107-.824-.16-1.541-.16zm22.494-1.245h1.464V176H987.7v-10.232zm11.87 5.94l-1.114-.674c-.698-.425-1.195-.843-1.49-1.256a2.385 2.385 0 0 1-.444-1.424c0-.806.28-1.46.839-1.963.559-.503 1.285-.755 2.179-.755.854 0 1.638.24 2.35.718v1.663c-.736-.708-1.53-1.062-2.38-1.062-.478 0-.871.11-1.179.333-.307.222-.461.506-.461.853 0 .308.112.596.337.864.224.269.588.55 1.091.843l1.12.659c1.25.742 1.876 1.69 1.876 2.842 0 .82-.275 1.486-.824 2-.55.512-1.264.768-2.143.768-1.01 0-1.93-.31-2.76-.93v-1.86c.79 1 1.706 1.501 2.746 1.501.459 0 .84-.128 1.146-.384.305-.257.458-.578.458-.964 0-.625-.45-1.215-1.348-1.772zm9.063-5.955h8.548v1.304h-3.567V176h-1.472v-8.943h-3.509v-1.304z"/>
    </g>
</svg>
