<svg id="Ebene_1" data-name="Ebene 1" xmlns="http://www.w3.org/2000/svg" viewBox="0 0 1140 720"><title>was_abbildung_flasche_text</title><g id="toggle_4" data-name="toggle 4"><path id="Kreis_Nabel" data-name="Kreis Nabel" d="M576,519.5a8,8,0,1,0-8-8,8,8,0,0,0,8,8" style="fill:#fff"/><polygon id="Plus_Nabel" data-name="Plus Nabel" points="576.5 511 576.5 506.8 575.5 506.8 575.5 511 571.3 511 571.3 512 575.5 512 575.5 516.3 576.5 516.3 576.5 512 580.8 512 580.8 511 576.5 511" style="fill:#666"/></g><g id="toggle_3" data-name="toggle 3"><path id="Kreis_Flaschengrößen" data-name="Kreis Flaschengrößen" d="M629,328a8,8,0,1,0-8-8,8,8,0,0,0,8,8" style="fill:#fff"/><polygon id="Plus_Flaschengrößen" data-name="Plus Flaschengrößen" points="629.5 319.5 629.5 315.3 628.5 315.3 628.5 319.5 624.3 319.5 624.3 320.5 628.5 320.5 628.5 324.8 629.5 324.8 629.5 320.5 633.8 320.5 633.8 319.5 629.5 319.5" style="fill:#666"/></g><g id="toggle_2" data-name="toggle 2"><path id="Kreis_Ausgießer" data-name="Kreis Ausgießer" d="M576,108a8,8,0,1,0-8-8,8,8,0,0,0,8,8" style="fill:#fff"/><polygon id="Plus_Ausgießer" data-name="Plus Ausgießer" points="576.5 99.5 576.5 95.3 575.5 95.3 575.5 99.5 571.3 99.5 571.3 100.5 575.5 100.5 575.5 104.8 576.5 104.8 576.5 100.5 580.8 100.5 580.8 99.5 576.5 99.5" style="fill:#666"/></g><g id="toggle_1" data-name="toggle 1"><path id="Kreis_Zierstöpsel" data-name="Kreis Zierstöpsel" d="M576,63.4a8,8,0,1,0-8-8,8,8,0,0,0,8,8" style="fill:#fff"/><polygon id="Plus_Zierstöpsel" data-name="Plus Zierstöpsel" points="576.5 54.9 576.5 50.7 575.5 50.7 575.5 54.9 571.3 54.9 571.3 55.9 575.5 55.9 575.5 60.2 576.5 60.2 576.5 55.9 580.8 55.9 580.8 54.9 576.5 54.9" style="fill:#666"/></g></svg>