<svg id="Ebene_1" data-name="Ebene 1" xmlns="http://www.w3.org/2000/svg" viewBox="0 0 220.6 150"><title>was_abbildung_flasche_text_flaschengroessen_mobile</title><g id="text_3" data-name="text 3"><path id="Icon_40_ml" data-name="Icon 40 ml" d="M194.67,108.15h1.2c.1,0,.1,0,.1-.1,1.5-1.1,2.9-6.4,3.7-9.7h0v-.2a7,7,0,0,0-.9-5.6,15.84,15.84,0,0,0-3-2.8,2.34,2.34,0,0,1-.7-.7l-.9-1.2a5.22,5.22,0,0,1-.7-2.1v-.3h0c0-.2.1-.4.3-.4h.1V85h0l-.1-.1h-2.6c-.1,0-.1,0-.1.1h0v.1h.1c.2,0,.3.2.3.4h0v.3a3.94,3.94,0,0,1-.6,2.1l-.9,1.2a2.34,2.34,0,0,1-.7.7,19.91,19.91,0,0,0-3,2.8,7,7,0,0,0-.9,5.6v.2h0c.8,3.3,2.2,8.5,3.7,9.7,0,.1.1.1.2.1Z" style="fill:#ddd"/><path id="Icon_350_ml" data-name="Icon 350 ml" d="M130.5,108.15h2.9c.1,0,.3-.1.3-.2,3.6-2.7,7-15.2,8.8-23h0v-.4a16.24,16.24,0,0,0-2.2-13.2,38.18,38.18,0,0,0-7.2-6.7c-.5-.5-1.1-1-1.6-1.6a31.55,31.55,0,0,1-2.2-2.9,13.22,13.22,0,0,1-1.6-5.1v-.76a1,1,0,0,1,.8-1h.2v-.1h0s0-.1-.2-.2h-6.1c-.2,0-.2.1-.2.2h0v.1h.2a1,1,0,0,1,.8,1v.8a11.72,11.72,0,0,1-1.6,5.1,12.34,12.34,0,0,1-2.2,2.9c-.5.5-1,1.1-1.6,1.6a38.18,38.18,0,0,0-7.2,6.7,16.24,16.24,0,0,0-2.2,13.2V85h0c1.8,7.7,5.2,20.3,8.8,23,.1.1.2.2.3.2Z" style="fill:#336f5f"/><path id="Icon_700_ml" data-name="Icon 700 ml" d="M51,108.15h4.4a.55.55,0,0,0,.5-.3c5.3-4,10.4-22.7,13.1-34.3h0c0-.1.1-.2.1-.3v-.3c2.7-11.5-2.6-18.6-3.3-19.7s-4.6-5.4-10.7-10c-.8-.8-1.6-1.5-2.4-2.4a23.62,23.62,0,0,1-3.2-4.4,18.2,18.2,0,0,1-2.3-7.6v-1.1a1.32,1.32,0,0,1,1.1-1.4h.4c.1-.1.1-.1.1-.2h0V26c0-.1,0-.2-.4-.3h-9.3c-.4.1-.4.2-.4.3v.1h0c0,.1,0,.2.1.2h.4a1.24,1.24,0,0,1,1.1,1.36v1.14a18.2,18.2,0,0,1-2.3,7.6,27.46,27.46,0,0,1-3.2,4.4c-.8.8-1.5,1.6-2.3,2.4-6.1,4.6-10.1,9-10.7,10s-6,8.2-3.3,19.7v.34a.37.37,0,0,0,.1.3h0c2.8,11.6,7.8,30.2,13.1,34.3a.55.55,0,0,0,.5.3H51Z" style="fill:#ddd"/><text transform="translate(177.89 129.08)" style="isolation:isolate;font-size:13.5px;fill:#666;font-family:Times-Roman, Times">40 ml</text><text transform="translate(108.39 129.08)" style="isolation:isolate;font-size:13.5px;fill:#336f5f;font-family:Times-Roman, Times">350 ml</text><text transform="translate(25.39 129.08)" style="isolation:isolate;font-size:13.5px;fill:#666;font-family:Times-Roman, Times">700 ml</text></g></svg>